%TF.GenerationSoftware,KiCad,Pcbnew,10.0.3*%
%TF.CreationDate,2026-06-09T23:17:27+02:00*%
%TF.ProjectId,OpenTherm,4f70656e-5468-4657-926d-2e6b69636164,rev?*%
%TF.SameCoordinates,Original*%
%TF.FileFunction,Soldermask,Top*%
%TF.FilePolarity,Negative*%
%FSLAX46Y46*%
G04 Gerber Fmt 4.6, Leading zero omitted, Abs format (unit mm)*
G04 Created by KiCad (PCBNEW 10.0.3) date 2026-06-09 23:17:27*
%MOMM*%
%LPD*%
G01*
G04 APERTURE LIST*
G04 Aperture macros list*
%AMRoundRect*
0 Rectangle with rounded corners*
0 $1 Rounding radius*
0 $2 $3 $4 $5 $6 $7 $8 $9 X,Y pos of 4 corners*
0 Add a 4 corners polygon primitive as box body*
4,1,4,$2,$3,$4,$5,$6,$7,$8,$9,$2,$3,0*
0 Add four circle primitives for the rounded corners*
1,1,$1+$1,$2,$3*
1,1,$1+$1,$4,$5*
1,1,$1+$1,$6,$7*
1,1,$1+$1,$8,$9*
0 Add four rect primitives between the rounded corners*
20,1,$1+$1,$2,$3,$4,$5,0*
20,1,$1+$1,$4,$5,$6,$7,0*
20,1,$1+$1,$6,$7,$8,$9,0*
20,1,$1+$1,$8,$9,$2,$3,0*%
G04 Aperture macros list end*
%ADD10C,1.300000*%
%ADD11RoundRect,0.150000X-0.587500X-0.150000X0.587500X-0.150000X0.587500X0.150000X-0.587500X0.150000X0*%
%ADD12RoundRect,0.200000X-0.275000X0.200000X-0.275000X-0.200000X0.275000X-0.200000X0.275000X0.200000X0*%
%ADD13RoundRect,0.112500X0.112500X-0.187500X0.112500X0.187500X-0.112500X0.187500X-0.112500X-0.187500X0*%
%ADD14RoundRect,0.150000X0.587500X0.150000X-0.587500X0.150000X-0.587500X-0.150000X0.587500X-0.150000X0*%
%ADD15RoundRect,0.200000X-0.200000X-0.275000X0.200000X-0.275000X0.200000X0.275000X-0.200000X0.275000X0*%
%ADD16RoundRect,0.112500X0.187500X0.112500X-0.187500X0.112500X-0.187500X-0.112500X0.187500X-0.112500X0*%
%ADD17RoundRect,0.135000X0.185000X-0.135000X0.185000X0.135000X-0.185000X0.135000X-0.185000X-0.135000X0*%
%ADD18RoundRect,0.249999X0.790001X1.550001X-0.790001X1.550001X-0.790001X-1.550001X0.790001X-1.550001X0*%
%ADD19O,2.080000X3.600000*%
%ADD20C,2.100000*%
%ADD21RoundRect,0.200000X0.200000X0.275000X-0.200000X0.275000X-0.200000X-0.275000X0.200000X-0.275000X0*%
%ADD22RoundRect,0.243750X-0.243750X-0.456250X0.243750X-0.456250X0.243750X0.456250X-0.243750X0.456250X0*%
%ADD23RoundRect,0.225000X-0.250000X0.225000X-0.250000X-0.225000X0.250000X-0.225000X0.250000X0.225000X0*%
%ADD24RoundRect,0.225000X0.225000X0.250000X-0.225000X0.250000X-0.225000X-0.250000X0.225000X-0.250000X0*%
%ADD25C,3.000000*%
%ADD26RoundRect,0.140000X0.170000X-0.140000X0.170000X0.140000X-0.170000X0.140000X-0.170000X-0.140000X0*%
%ADD27R,3.000000X3.000000*%
%ADD28RoundRect,0.135000X-0.185000X0.135000X-0.185000X-0.135000X0.185000X-0.135000X0.185000X0.135000X0*%
%ADD29RoundRect,0.250000X0.250000X0.250000X-0.250000X0.250000X-0.250000X-0.250000X0.250000X-0.250000X0*%
%ADD30RoundRect,0.249999X-0.790001X-1.550001X0.790001X-1.550001X0.790001X1.550001X-0.790001X1.550001X0*%
%ADD31RoundRect,0.250000X0.457500X0.445000X-0.457500X0.445000X-0.457500X-0.445000X0.457500X-0.445000X0*%
%ADD32RoundRect,0.250000X-0.250000X-0.250000X0.250000X-0.250000X0.250000X0.250000X-0.250000X0.250000X0*%
%ADD33RoundRect,0.140000X0.140000X0.170000X-0.140000X0.170000X-0.140000X-0.170000X0.140000X-0.170000X0*%
%ADD34R,1.360000X1.230000*%
%ADD35RoundRect,0.225000X-0.225000X-0.250000X0.225000X-0.250000X0.225000X0.250000X-0.225000X0.250000X0*%
%ADD36R,0.900000X1.500000*%
%ADD37R,1.500000X0.900000*%
%ADD38C,0.600000*%
%ADD39R,3.900000X3.900000*%
%ADD40RoundRect,0.150000X-0.150000X0.825000X-0.150000X-0.825000X0.150000X-0.825000X0.150000X0.825000X0*%
%ADD41R,1.550000X2.100000*%
%ADD42RoundRect,0.135000X0.135000X0.185000X-0.135000X0.185000X-0.135000X-0.185000X0.135000X-0.185000X0*%
%ADD43RoundRect,0.150000X-0.150000X0.587500X-0.150000X-0.587500X0.150000X-0.587500X0.150000X0.587500X0*%
%ADD44RoundRect,0.140000X-0.140000X-0.170000X0.140000X-0.170000X0.140000X0.170000X-0.140000X0.170000X0*%
%ADD45RoundRect,0.218750X0.256250X-0.218750X0.256250X0.218750X-0.256250X0.218750X-0.256250X-0.218750X0*%
%ADD46R,1.910000X0.610000*%
%ADD47R,1.205000X1.550000*%
%ADD48RoundRect,0.140000X-0.170000X0.140000X-0.170000X-0.140000X0.170000X-0.140000X0.170000X0.140000X0*%
%ADD49R,0.600000X1.160000*%
%ADD50R,0.300000X1.160000*%
%ADD51O,0.900000X2.000000*%
%ADD52O,0.900000X1.700000*%
%ADD53RoundRect,0.112500X-0.187500X-0.112500X0.187500X-0.112500X0.187500X0.112500X-0.187500X0.112500X0*%
%ADD54RoundRect,0.135000X-0.135000X-0.185000X0.135000X-0.185000X0.135000X0.185000X-0.135000X0.185000X0*%
%ADD55R,2.300000X2.000000*%
%ADD56O,2.300000X2.000000*%
%ADD57RoundRect,0.250000X0.325000X0.650000X-0.325000X0.650000X-0.325000X-0.650000X0.325000X-0.650000X0*%
%ADD58RoundRect,0.150000X0.150000X-0.875000X0.150000X0.875000X-0.150000X0.875000X-0.150000X-0.875000X0*%
%ADD59RoundRect,0.250000X0.650000X-0.325000X0.650000X0.325000X-0.650000X0.325000X-0.650000X-0.325000X0*%
%ADD60RoundRect,0.243750X0.243750X0.456250X-0.243750X0.456250X-0.243750X-0.456250X0.243750X-0.456250X0*%
%ADD61RoundRect,0.250500X0.499500X0.499500X-0.499500X0.499500X-0.499500X-0.499500X0.499500X-0.499500X0*%
%ADD62C,1.500000*%
%ADD63C,2.500000*%
%ADD64RoundRect,0.250000X1.400000X1.000000X-1.400000X1.000000X-1.400000X-1.000000X1.400000X-1.000000X0*%
%ADD65RoundRect,0.250000X0.450000X0.350000X-0.450000X0.350000X-0.450000X-0.350000X0.450000X-0.350000X0*%
%ADD66RoundRect,0.250000X-1.500000X0.925000X-1.500000X-0.925000X1.500000X-0.925000X1.500000X0.925000X0*%
%ADD67RoundRect,0.250000X1.950000X1.000000X-1.950000X1.000000X-1.950000X-1.000000X1.950000X-1.000000X0*%
%ADD68RoundRect,0.075000X-0.075000X0.662500X-0.075000X-0.662500X0.075000X-0.662500X0.075000X0.662500X0*%
%ADD69RoundRect,0.075000X-0.662500X0.075000X-0.662500X-0.075000X0.662500X-0.075000X0.662500X0.075000X0*%
G04 APERTURE END LIST*
D10*
%TO.C,REF\u002A\u002A*%
X229709244Y-24069031D03*
%TD*%
%TO.C,REF\u002A\u002A*%
X17209244Y-93269031D03*
%TD*%
%TO.C,REF\u002A\u002A*%
X14434244Y-24069031D03*
%TD*%
D11*
%TO.C,Q38*%
X180859244Y-65194031D03*
X180859244Y-67094031D03*
X182734244Y-66144031D03*
%TD*%
D12*
%TO.C,R92*%
X17634244Y-23144031D03*
X17634244Y-24794031D03*
%TD*%
D13*
%TO.C,D8*%
X16734244Y-70569031D03*
X16734244Y-68469031D03*
%TD*%
D11*
%TO.C,Q35*%
X113064251Y-65194031D03*
X113064251Y-67094031D03*
X114939251Y-66144031D03*
%TD*%
D14*
%TO.C,Q30*%
X154041744Y-36748940D03*
X154041744Y-34848940D03*
X152166744Y-35798940D03*
%TD*%
%TO.C,Q8*%
X109041744Y-33348940D03*
X109041744Y-31448940D03*
X107166744Y-32398940D03*
%TD*%
D12*
%TO.C,R58*%
X13109244Y-65319031D03*
X13109244Y-66969031D03*
%TD*%
%TO.C,R89*%
X45609881Y-35814547D03*
X45609881Y-37464547D03*
%TD*%
D13*
%TO.C,D19*%
X114914251Y-70569031D03*
X114914251Y-68469031D03*
%TD*%
D15*
%TO.C,R41*%
X153549244Y-23469031D03*
X155199244Y-23469031D03*
%TD*%
D16*
%TO.C,D17*%
X188974244Y-25773526D03*
X186874244Y-25773526D03*
%TD*%
D14*
%TO.C,Q4*%
X83081744Y-33345331D03*
X83081744Y-31445331D03*
X81206744Y-32395331D03*
%TD*%
D17*
%TO.C,R120*%
X67234244Y-36379031D03*
X67234244Y-35359031D03*
%TD*%
D18*
%TO.C,J5*%
X143314244Y-20151026D03*
D19*
X138234244Y-20151026D03*
%TD*%
D11*
%TO.C,Q12*%
X96206744Y-25023721D03*
X96206744Y-26923721D03*
X98081744Y-25973721D03*
%TD*%
D20*
%TO.C,J22*%
X117339251Y-66794031D03*
X117339251Y-78294031D03*
X117339251Y-85294031D03*
X122039251Y-66794031D03*
%TD*%
D21*
%TO.C,R55*%
X184649244Y-47273526D03*
X182999244Y-47273526D03*
%TD*%
D12*
%TO.C,R95*%
X31934244Y-23144031D03*
X31934244Y-24794031D03*
%TD*%
D22*
%TO.C,D4*%
X122409795Y-38469031D03*
X124284795Y-38469031D03*
%TD*%
D20*
%TO.C,J23*%
X139959244Y-66794031D03*
X139959244Y-78294031D03*
X139959244Y-85294031D03*
X144659244Y-66794031D03*
%TD*%
D23*
%TO.C,C5*%
X13109244Y-36544031D03*
X13109244Y-38094031D03*
%TD*%
D20*
%TO.C,J21*%
X94734244Y-66794031D03*
X94734244Y-78294031D03*
X94734244Y-85294031D03*
X99434244Y-66794031D03*
%TD*%
D22*
%TO.C,D5*%
X137409795Y-38469031D03*
X139284795Y-38469031D03*
%TD*%
D24*
%TO.C,C2*%
X14709244Y-60894031D03*
X13159244Y-60894031D03*
%TD*%
D15*
%TO.C,R68*%
X168549244Y-23469031D03*
X170199244Y-23469031D03*
%TD*%
D18*
%TO.C,J2*%
X98314244Y-20151026D03*
D19*
X93234244Y-20151026D03*
%TD*%
D21*
%TO.C,R14*%
X112559244Y-36345331D03*
X110909244Y-36345331D03*
%TD*%
%TO.C,R12*%
X112899244Y-28469031D03*
X111249244Y-28469031D03*
%TD*%
D25*
%TO.C,F1*%
X210000000Y-81000000D03*
X232500000Y-81000000D03*
%TD*%
D21*
%TO.C,R73*%
X172559244Y-36345331D03*
X170909244Y-36345331D03*
%TD*%
D14*
%TO.C,Q26*%
X154049244Y-26919031D03*
X154049244Y-25019031D03*
X152174244Y-25969031D03*
%TD*%
D12*
%TO.C,R84*%
X17634244Y-59844031D03*
X17634244Y-61494031D03*
%TD*%
D26*
%TO.C,C26*%
X61184244Y-53286531D03*
X61184244Y-52326531D03*
%TD*%
D21*
%TO.C,R28*%
X127899244Y-28469031D03*
X126249244Y-28469031D03*
%TD*%
D18*
%TO.C,J8*%
X173314244Y-20151026D03*
D19*
X168234244Y-20151026D03*
%TD*%
D14*
%TO.C,Q13*%
X94041744Y-33348940D03*
X94041744Y-31448940D03*
X92166744Y-32398940D03*
%TD*%
D21*
%TO.C,R74*%
X172559244Y-34845331D03*
X170909244Y-34845331D03*
%TD*%
D15*
%TO.C,R40*%
X140909244Y-37845331D03*
X142559244Y-37845331D03*
%TD*%
D27*
%TO.C,J17*%
X237234244Y-50869031D03*
D25*
X237234244Y-45869031D03*
X237234244Y-40869031D03*
X237234244Y-35869031D03*
%TD*%
D28*
%TO.C,R123*%
X61034244Y-48996531D03*
X61034244Y-50016531D03*
%TD*%
D23*
%TO.C,C6*%
X29646827Y-32744004D03*
X29646827Y-34294004D03*
%TD*%
D13*
%TO.C,D18*%
X92309244Y-70569031D03*
X92309244Y-68469031D03*
%TD*%
D29*
%TO.C,D12*%
X189131744Y-29773526D03*
X186631744Y-29773526D03*
%TD*%
D11*
%TO.C,Q22*%
X141206744Y-25023721D03*
X141206744Y-26923721D03*
X143081744Y-25973721D03*
%TD*%
D15*
%TO.C,R23*%
X95909244Y-37845331D03*
X97559244Y-37845331D03*
%TD*%
D14*
%TO.C,Q20*%
X124041744Y-36748940D03*
X124041744Y-34848940D03*
X122166744Y-35798940D03*
%TD*%
D21*
%TO.C,R43*%
X153999244Y-29969031D03*
X152349244Y-29969031D03*
%TD*%
D15*
%TO.C,R85*%
X186941767Y-47287367D03*
X188591767Y-47287367D03*
%TD*%
D30*
%TO.C,J11*%
X94747359Y-89000000D03*
D19*
X99827359Y-89000000D03*
X104907359Y-89000000D03*
X109987359Y-89000000D03*
%TD*%
D12*
%TO.C,R61*%
X111289251Y-65319031D03*
X111289251Y-66969031D03*
%TD*%
D31*
%TO.C,C23*%
X58586744Y-48606531D03*
X55881744Y-48606531D03*
%TD*%
D32*
%TO.C,D13*%
X186631744Y-31773526D03*
X189131744Y-31773526D03*
%TD*%
D11*
%TO.C,Q27*%
X156206744Y-25023721D03*
X156206744Y-26923721D03*
X158081744Y-25973721D03*
%TD*%
D33*
%TO.C,C24*%
X57684244Y-45656531D03*
X56724244Y-45656531D03*
%TD*%
%TO.C,C14*%
X62414244Y-33919031D03*
X61454244Y-33919031D03*
%TD*%
D26*
%TO.C,C21*%
X59334244Y-38786531D03*
X59334244Y-37826531D03*
%TD*%
D34*
%TO.C,SW2*%
X31934244Y-21449031D03*
X31934244Y-17089031D03*
%TD*%
D13*
%TO.C,D9*%
X59534244Y-70594031D03*
X59534244Y-68494031D03*
%TD*%
D21*
%TO.C,R46*%
X157559244Y-36345331D03*
X155909244Y-36345331D03*
%TD*%
%TO.C,R38*%
X142559244Y-36345331D03*
X140909244Y-36345331D03*
%TD*%
%TO.C,R64*%
X158184244Y-63694031D03*
X156534244Y-63694031D03*
%TD*%
D26*
%TO.C,C15*%
X62434244Y-36349031D03*
X62434244Y-35389031D03*
%TD*%
D28*
%TO.C,R124*%
X61984244Y-48996531D03*
X61984244Y-50016531D03*
%TD*%
D35*
%TO.C,C12*%
X41644741Y-37359665D03*
X43194741Y-37359665D03*
%TD*%
D33*
%TO.C,C17*%
X57684244Y-46606531D03*
X56724244Y-46606531D03*
%TD*%
D21*
%TO.C,R15*%
X112559244Y-34845331D03*
X110909244Y-34845331D03*
%TD*%
D14*
%TO.C,Q15*%
X94041744Y-36748940D03*
X94041744Y-34848940D03*
X92166744Y-35798940D03*
%TD*%
D21*
%TO.C,R22*%
X97559244Y-34845331D03*
X95909244Y-34845331D03*
%TD*%
%TO.C,R36*%
X142899244Y-28469031D03*
X141249244Y-28469031D03*
%TD*%
D15*
%TO.C,R96*%
X46999739Y-37348043D03*
X48649739Y-37348043D03*
%TD*%
D21*
%TO.C,R57*%
X14809244Y-63719031D03*
X13159244Y-63719031D03*
%TD*%
%TO.C,R13*%
X112899244Y-29969031D03*
X111249244Y-29969031D03*
%TD*%
D12*
%TO.C,R59*%
X88684244Y-65319031D03*
X88684244Y-66969031D03*
%TD*%
D11*
%TO.C,Q37*%
X158259244Y-65169031D03*
X158259244Y-67069031D03*
X160134244Y-66119031D03*
%TD*%
D21*
%TO.C,R21*%
X97559244Y-36345331D03*
X95909244Y-36345331D03*
%TD*%
%TO.C,R5*%
X82899244Y-29969031D03*
X81249244Y-29969031D03*
%TD*%
D15*
%TO.C,R2*%
X77349244Y-28469031D03*
X78999244Y-28469031D03*
%TD*%
D36*
%TO.C,U4*%
X13789244Y-58159031D03*
X15059244Y-58159031D03*
X16329244Y-58159031D03*
X17599244Y-58159031D03*
X18869244Y-58159031D03*
X20139244Y-58159031D03*
X21409244Y-58159031D03*
X22679244Y-58159031D03*
X23949244Y-58159031D03*
X25219244Y-58159031D03*
X26489244Y-58159031D03*
X27759244Y-58159031D03*
X29029244Y-58159031D03*
X30299244Y-58159031D03*
D37*
X31549244Y-56394031D03*
X31549244Y-55124031D03*
X31549244Y-53854031D03*
X31549244Y-52584031D03*
X31549244Y-51314031D03*
X31549244Y-50044031D03*
X31549244Y-48774031D03*
X31549244Y-47504031D03*
X31549244Y-46234031D03*
X31549244Y-44964031D03*
X31549244Y-43694031D03*
X31549244Y-42424031D03*
D36*
X30299244Y-40659031D03*
X29029244Y-40659031D03*
X27759244Y-40659031D03*
X26489244Y-40659031D03*
X25219244Y-40659031D03*
X23949244Y-40659031D03*
X22679244Y-40659031D03*
X21409244Y-40659031D03*
X20139244Y-40659031D03*
X18869244Y-40659031D03*
X17599244Y-40659031D03*
X16329244Y-40659031D03*
X15059244Y-40659031D03*
X13789244Y-40659031D03*
D38*
X20809244Y-52309031D03*
X22209244Y-52309031D03*
X20109244Y-51609031D03*
X21509244Y-51609031D03*
X22909244Y-51609031D03*
X20809244Y-50909031D03*
D39*
X21509244Y-50909031D03*
D38*
X22209244Y-50909031D03*
X20109244Y-50209031D03*
X21509244Y-50209031D03*
X22909244Y-50209031D03*
X20809244Y-49509031D03*
X22209244Y-49509031D03*
%TD*%
D40*
%TO.C,U1*%
X29269244Y-25869031D03*
X27999244Y-25869031D03*
X26729244Y-25869031D03*
X25459244Y-25869031D03*
X24189244Y-25869031D03*
X22919244Y-25869031D03*
X21649244Y-25869031D03*
X20379244Y-25869031D03*
X20379244Y-30819031D03*
X21649244Y-30819031D03*
X22919244Y-30819031D03*
X24189244Y-30819031D03*
X25459244Y-30819031D03*
X26729244Y-30819031D03*
X27999244Y-30819031D03*
X29269244Y-30819031D03*
%TD*%
D21*
%TO.C,R39*%
X142559244Y-34845331D03*
X140909244Y-34845331D03*
%TD*%
D33*
%TO.C,C19*%
X57684244Y-44706531D03*
X56724244Y-44706531D03*
%TD*%
D14*
%TO.C,Q16*%
X124049244Y-26919031D03*
X124049244Y-25019031D03*
X122174244Y-25969031D03*
%TD*%
D30*
%TO.C,J10*%
X62000000Y-89000000D03*
D19*
X67080000Y-89000000D03*
X72160000Y-89000000D03*
X77240000Y-89000000D03*
X82320000Y-89000000D03*
X87400000Y-89000000D03*
%TD*%
D32*
%TO.C,D11*%
X182449244Y-29773526D03*
X184949244Y-29773526D03*
%TD*%
D15*
%TO.C,R53*%
X182999244Y-27773526D03*
X184649244Y-27773526D03*
%TD*%
D41*
%TO.C,Q45*%
X184244244Y-36248526D03*
X181704244Y-36248526D03*
X181704244Y-44848526D03*
X184244244Y-44848526D03*
%TD*%
D33*
%TO.C,C7*%
X64294244Y-33919031D03*
X63334244Y-33919031D03*
%TD*%
D42*
%TO.C,R126*%
X64284244Y-50556531D03*
X63264244Y-50556531D03*
%TD*%
D12*
%TO.C,R63*%
X133909244Y-65319031D03*
X133909244Y-66969031D03*
%TD*%
D20*
%TO.C,J26*%
X185134244Y-66794031D03*
X185134244Y-78294031D03*
X185134244Y-85294031D03*
X189834244Y-66794031D03*
%TD*%
%TO.C,J25*%
X162534244Y-66769031D03*
X162534244Y-78269031D03*
X162534244Y-85269031D03*
X167234244Y-66769031D03*
%TD*%
D11*
%TO.C,Q2*%
X81206744Y-25023721D03*
X81206744Y-26923721D03*
X83081744Y-25973721D03*
%TD*%
D14*
%TO.C,Q39*%
X169049244Y-26919031D03*
X169049244Y-25019031D03*
X167174244Y-25969031D03*
%TD*%
D43*
%TO.C,Q54*%
X28174244Y-33020097D03*
X26274244Y-33020097D03*
X27224244Y-34895097D03*
%TD*%
D18*
%TO.C,J4*%
X128314244Y-20151026D03*
D19*
X123234244Y-20151026D03*
%TD*%
D44*
%TO.C,C18*%
X67534244Y-37406531D03*
X68494244Y-37406531D03*
%TD*%
D21*
%TO.C,R93*%
X24876814Y-34444031D03*
X23226814Y-34444031D03*
%TD*%
D45*
%TO.C,L3*%
X57384244Y-42506531D03*
X57384244Y-40931531D03*
%TD*%
D20*
%TO.C,J19*%
X19159244Y-66794031D03*
X19159244Y-78294031D03*
X19159244Y-85294031D03*
X23859244Y-66794031D03*
%TD*%
D14*
%TO.C,Q9*%
X113081744Y-33345331D03*
X113081744Y-31445331D03*
X111206744Y-32395331D03*
%TD*%
D21*
%TO.C,R30*%
X127559244Y-36345331D03*
X125909244Y-36345331D03*
%TD*%
D20*
%TO.C,J20*%
X61959244Y-66819031D03*
X61959244Y-78319031D03*
X61959244Y-85319031D03*
X66659244Y-66819031D03*
%TD*%
D22*
%TO.C,D3*%
X107409795Y-38469031D03*
X109284795Y-38469031D03*
%TD*%
D30*
%TO.C,J13*%
X139950000Y-89000000D03*
D19*
X145030000Y-89000000D03*
X150110000Y-89000000D03*
X155190000Y-89000000D03*
%TD*%
D21*
%TO.C,R47*%
X157559244Y-34845331D03*
X155909244Y-34845331D03*
%TD*%
D46*
%TO.C,U6*%
X45476744Y-30564031D03*
X45476744Y-31834031D03*
X45476744Y-33104031D03*
X45476744Y-34374031D03*
X51036744Y-34374031D03*
X51036744Y-33104031D03*
X51036744Y-31834031D03*
X51036744Y-30564031D03*
D47*
X47654244Y-31694031D03*
X47654244Y-33244031D03*
X48859244Y-31694031D03*
X48859244Y-33244031D03*
%TD*%
D48*
%TO.C,C27*%
X66384244Y-52326531D03*
X66384244Y-53286531D03*
%TD*%
D14*
%TO.C,Q1*%
X79049244Y-26919031D03*
X79049244Y-25019031D03*
X77174244Y-25969031D03*
%TD*%
%TO.C,Q23*%
X139041744Y-33348940D03*
X139041744Y-31448940D03*
X137166744Y-32398940D03*
%TD*%
D11*
%TO.C,Q40*%
X171206744Y-25023721D03*
X171206744Y-26923721D03*
X173081744Y-25973721D03*
%TD*%
D34*
%TO.C,SW1*%
X17634244Y-21349031D03*
X17634244Y-16989031D03*
%TD*%
D21*
%TO.C,R60*%
X112989251Y-63719031D03*
X111339251Y-63719031D03*
%TD*%
D44*
%TO.C,C16*%
X65254244Y-33919031D03*
X66214244Y-33919031D03*
%TD*%
D21*
%TO.C,R20*%
X97899244Y-29969031D03*
X96249244Y-29969031D03*
%TD*%
D12*
%TO.C,R50*%
X55909244Y-65344031D03*
X55909244Y-66994031D03*
%TD*%
D15*
%TO.C,R94*%
X23226814Y-32944031D03*
X24876814Y-32944031D03*
%TD*%
D21*
%TO.C,R35*%
X138999244Y-29969031D03*
X137349244Y-29969031D03*
%TD*%
%TO.C,R62*%
X135609244Y-63719031D03*
X133959244Y-63719031D03*
%TD*%
%TO.C,R44*%
X157899244Y-28469031D03*
X156249244Y-28469031D03*
%TD*%
%TO.C,R7*%
X82559244Y-34845331D03*
X80909244Y-34845331D03*
%TD*%
D14*
%TO.C,Q18*%
X124041744Y-33348940D03*
X124041744Y-31448940D03*
X122166744Y-32398940D03*
%TD*%
D15*
%TO.C,R75*%
X170909244Y-37845331D03*
X172559244Y-37845331D03*
%TD*%
D33*
%TO.C,C25*%
X57684244Y-43756531D03*
X56724244Y-43756531D03*
%TD*%
D21*
%TO.C,R37*%
X142899244Y-29969031D03*
X141249244Y-29969031D03*
%TD*%
D13*
%TO.C,D20*%
X137534244Y-70569031D03*
X137534244Y-68469031D03*
%TD*%
D22*
%TO.C,D6*%
X152409795Y-38469031D03*
X154284795Y-38469031D03*
%TD*%
D14*
%TO.C,Q28*%
X154041744Y-33348940D03*
X154041744Y-31448940D03*
X152166744Y-32398940D03*
%TD*%
D49*
%TO.C,J18*%
X28034244Y-22554031D03*
X27234244Y-22554031D03*
D50*
X26084244Y-22554031D03*
X25084244Y-22554031D03*
X24584244Y-22554031D03*
X23584244Y-22554031D03*
D49*
X22434244Y-22554031D03*
X21634244Y-22554031D03*
X21634244Y-22554031D03*
X22434244Y-22554031D03*
D50*
X23084244Y-22554031D03*
X24084244Y-22554031D03*
X25584244Y-22554031D03*
X26584244Y-22554031D03*
D49*
X27234244Y-22554031D03*
X28034244Y-22554031D03*
D51*
X29154244Y-21974031D03*
D52*
X29154244Y-17804031D03*
D51*
X20514244Y-21974031D03*
D52*
X20514244Y-17804031D03*
%TD*%
D14*
%TO.C,Q41*%
X169041744Y-33348940D03*
X169041744Y-31448940D03*
X167166744Y-32398940D03*
%TD*%
D11*
%TO.C,Q34*%
X90459244Y-65194031D03*
X90459244Y-67094031D03*
X92334244Y-66144031D03*
%TD*%
D53*
%TO.C,D15*%
X186874244Y-23773526D03*
X188974244Y-23773526D03*
%TD*%
D21*
%TO.C,R6*%
X82559244Y-36345331D03*
X80909244Y-36345331D03*
%TD*%
D14*
%TO.C,Q32*%
X184716744Y-33473526D03*
X184716744Y-31573526D03*
X182841744Y-32523526D03*
%TD*%
D16*
%TO.C,D10*%
X184574244Y-23773526D03*
X182474244Y-23773526D03*
%TD*%
D53*
%TO.C,D16*%
X182474244Y-25773526D03*
X184574244Y-25773526D03*
%TD*%
D21*
%TO.C,R72*%
X172899244Y-29969031D03*
X171249244Y-29969031D03*
%TD*%
D54*
%TO.C,R125*%
X61768992Y-37606531D03*
X62788992Y-37606531D03*
%TD*%
D21*
%TO.C,R54*%
X188586744Y-33773526D03*
X186936744Y-33773526D03*
%TD*%
D55*
%TO.C,PS1*%
X208976744Y-71226531D03*
D56*
X217976744Y-71226531D03*
X199976744Y-20226531D03*
X226976744Y-20226531D03*
%TD*%
D13*
%TO.C,D21*%
X160109244Y-70544031D03*
X160109244Y-68444031D03*
%TD*%
D21*
%TO.C,R70*%
X168999244Y-29969031D03*
X167349244Y-29969031D03*
%TD*%
%TO.C,R11*%
X108999244Y-29969031D03*
X107349244Y-29969031D03*
%TD*%
D57*
%TO.C,C13*%
X44234244Y-39319031D03*
X41284244Y-39319031D03*
%TD*%
D58*
%TO.C,U2*%
X127654244Y-59994031D03*
X128924244Y-59994031D03*
X130194244Y-59994031D03*
X131464244Y-59994031D03*
X132734244Y-59994031D03*
X134004244Y-59994031D03*
X135274244Y-59994031D03*
X136544244Y-59994031D03*
X137814244Y-59994031D03*
X139084244Y-59994031D03*
X140354244Y-59994031D03*
X141624244Y-59994031D03*
X142894244Y-59994031D03*
X144164244Y-59994031D03*
X144164244Y-50694031D03*
X142894244Y-50694031D03*
X141624244Y-50694031D03*
X140354244Y-50694031D03*
X139084244Y-50694031D03*
X137814244Y-50694031D03*
X136544244Y-50694031D03*
X135274244Y-50694031D03*
X134004244Y-50694031D03*
X132734244Y-50694031D03*
X131464244Y-50694031D03*
X130194244Y-50694031D03*
X128924244Y-50694031D03*
X127654244Y-50694031D03*
%TD*%
D21*
%TO.C,R18*%
X93999244Y-29969031D03*
X92349244Y-29969031D03*
%TD*%
%TO.C,R3*%
X78999244Y-29969031D03*
X77349244Y-29969031D03*
%TD*%
D12*
%TO.C,R65*%
X156484244Y-65294031D03*
X156484244Y-66944031D03*
%TD*%
D14*
%TO.C,Q25*%
X139041744Y-36748940D03*
X139041744Y-34848940D03*
X137166744Y-35798940D03*
%TD*%
D15*
%TO.C,R33*%
X138549244Y-23469031D03*
X140199244Y-23469031D03*
%TD*%
D21*
%TO.C,R49*%
X57609244Y-63744031D03*
X55959244Y-63744031D03*
%TD*%
D14*
%TO.C,Q42*%
X173081744Y-33345331D03*
X173081744Y-31445331D03*
X171206744Y-32395331D03*
%TD*%
%TO.C,Q24*%
X143081744Y-33345331D03*
X143081744Y-31445331D03*
X141206744Y-32395331D03*
%TD*%
D15*
%TO.C,R48*%
X155909244Y-37845331D03*
X157559244Y-37845331D03*
%TD*%
D18*
%TO.C,J3*%
X113314244Y-20151026D03*
D19*
X108234244Y-20151026D03*
%TD*%
D59*
%TO.C,C9*%
X53459244Y-34219031D03*
X53459244Y-31269031D03*
%TD*%
D12*
%TO.C,R91*%
X16159244Y-59844031D03*
X16159244Y-61494031D03*
%TD*%
D15*
%TO.C,R16*%
X93549244Y-23469031D03*
X95199244Y-23469031D03*
%TD*%
D42*
%TO.C,R86*%
X27144244Y-24169031D03*
X26124244Y-24169031D03*
%TD*%
D30*
%TO.C,J12*%
X117359244Y-89000000D03*
D19*
X122439244Y-89000000D03*
X127519244Y-89000000D03*
X132599244Y-89000000D03*
%TD*%
D15*
%TO.C,R52*%
X186936744Y-27773526D03*
X188586744Y-27773526D03*
%TD*%
%TO.C,R25*%
X123549244Y-23469031D03*
X125199244Y-23469031D03*
%TD*%
D18*
%TO.C,J24*%
X188174244Y-20146531D03*
D19*
X183094244Y-20146531D03*
%TD*%
D15*
%TO.C,R88*%
X45729244Y-38844031D03*
X47379244Y-38844031D03*
%TD*%
D26*
%TO.C,C22*%
X58384244Y-38786531D03*
X58384244Y-37826531D03*
%TD*%
D33*
%TO.C,C1*%
X14614244Y-59694031D03*
X13654244Y-59694031D03*
%TD*%
D21*
%TO.C,R56*%
X184679244Y-49273526D03*
X183029244Y-49273526D03*
%TD*%
D26*
%TO.C,C20*%
X57434244Y-38786531D03*
X57434244Y-37826531D03*
%TD*%
D21*
%TO.C,R90*%
X43247250Y-35898958D03*
X41597250Y-35898958D03*
%TD*%
D30*
%TO.C,J14*%
X162550000Y-89000000D03*
D19*
X167630000Y-89000000D03*
X172710000Y-89000000D03*
X177790000Y-89000000D03*
%TD*%
D14*
%TO.C,Q21*%
X139049244Y-26919031D03*
X139049244Y-25019031D03*
X137174244Y-25969031D03*
%TD*%
D15*
%TO.C,R34*%
X137349244Y-28469031D03*
X138999244Y-28469031D03*
%TD*%
%TO.C,R1*%
X78549244Y-23469031D03*
X80199244Y-23469031D03*
%TD*%
D24*
%TO.C,C11*%
X48593497Y-35891691D03*
X47043497Y-35891691D03*
%TD*%
D13*
%TO.C,D22*%
X182709244Y-70569031D03*
X182709244Y-68469031D03*
%TD*%
D15*
%TO.C,R8*%
X80909244Y-37845331D03*
X82559244Y-37845331D03*
%TD*%
D21*
%TO.C,R31*%
X127559244Y-34845331D03*
X125909244Y-34845331D03*
%TD*%
D15*
%TO.C,R17*%
X92349244Y-28469031D03*
X93999244Y-28469031D03*
%TD*%
D26*
%TO.C,C10*%
X44359244Y-36999031D03*
X44359244Y-36039031D03*
%TD*%
D18*
%TO.C,J6*%
X158314244Y-20151026D03*
D19*
X153234244Y-20151026D03*
%TD*%
D14*
%TO.C,Q29*%
X158081744Y-33345331D03*
X158081744Y-31445331D03*
X156206744Y-32395331D03*
%TD*%
%TO.C,Q10*%
X109041744Y-36748940D03*
X109041744Y-34848940D03*
X107166744Y-35798940D03*
%TD*%
D30*
%TO.C,J15*%
X185150000Y-89000000D03*
D19*
X190230000Y-89000000D03*
X195310000Y-89000000D03*
X200390000Y-89000000D03*
%TD*%
D41*
%TO.C,Q44*%
X187324244Y-44848526D03*
X189864244Y-44848526D03*
X189864244Y-36248526D03*
X187324244Y-36248526D03*
%TD*%
D21*
%TO.C,R45*%
X157899244Y-29969031D03*
X156249244Y-29969031D03*
%TD*%
D15*
%TO.C,R32*%
X125909244Y-37845331D03*
X127559244Y-37845331D03*
%TD*%
D14*
%TO.C,Q14*%
X98081744Y-33345331D03*
X98081744Y-31445331D03*
X96206744Y-32395331D03*
%TD*%
D11*
%TO.C,Q33*%
X14884244Y-65194031D03*
X14884244Y-67094031D03*
X16759244Y-66144031D03*
%TD*%
D22*
%TO.C,D2*%
X92409795Y-38469031D03*
X94284795Y-38469031D03*
%TD*%
D54*
%TO.C,R87*%
X22074244Y-24169031D03*
X23094244Y-24169031D03*
%TD*%
D15*
%TO.C,R26*%
X122349244Y-28469031D03*
X123999244Y-28469031D03*
%TD*%
D43*
%TO.C,Q53*%
X21829385Y-33020097D03*
X19929385Y-33020097D03*
X20879385Y-34895097D03*
%TD*%
D21*
%TO.C,R29*%
X127899244Y-29969031D03*
X126249244Y-29969031D03*
%TD*%
D28*
%TO.C,R119*%
X63384244Y-35359031D03*
X63384244Y-36379031D03*
%TD*%
%TO.C,R118*%
X64334244Y-35359031D03*
X64334244Y-36379031D03*
%TD*%
D11*
%TO.C,Q7*%
X111206744Y-25023721D03*
X111206744Y-26923721D03*
X113081744Y-25973721D03*
%TD*%
D22*
%TO.C,D7*%
X167409795Y-38469031D03*
X169284795Y-38469031D03*
%TD*%
D14*
%TO.C,Q11*%
X94049244Y-26919031D03*
X94049244Y-25019031D03*
X92174244Y-25969031D03*
%TD*%
D60*
%TO.C,D14*%
X188665629Y-49300000D03*
X186790629Y-49300000D03*
%TD*%
D21*
%TO.C,R27*%
X123999244Y-29969031D03*
X122349244Y-29969031D03*
%TD*%
D12*
%TO.C,R67*%
X179084244Y-65319031D03*
X179084244Y-66969031D03*
%TD*%
D15*
%TO.C,R69*%
X167349244Y-28469031D03*
X168999244Y-28469031D03*
%TD*%
%TO.C,R24*%
X110909244Y-37845331D03*
X112559244Y-37845331D03*
%TD*%
D11*
%TO.C,Q36*%
X135684244Y-65194031D03*
X135684244Y-67094031D03*
X137559244Y-66144031D03*
%TD*%
D12*
%TO.C,R83*%
X19109244Y-59844031D03*
X19109244Y-61494031D03*
%TD*%
D61*
%TO.C,J9*%
X68774244Y-28879031D03*
D62*
X67514244Y-31419031D03*
X66234244Y-28879031D03*
X64974244Y-31419031D03*
X63694244Y-28879031D03*
X62434244Y-31419031D03*
X61154244Y-28879031D03*
X59894244Y-31419031D03*
X70959244Y-17619031D03*
X68419244Y-17619031D03*
X60249244Y-17619031D03*
X57709244Y-17619031D03*
D63*
X72079244Y-25569031D03*
X56589244Y-25569031D03*
%TD*%
D30*
%TO.C,J7*%
X210020000Y-89000000D03*
D19*
X215100000Y-89000000D03*
X220180000Y-89000000D03*
%TD*%
D22*
%TO.C,D1*%
X77409795Y-38469031D03*
X79284795Y-38469031D03*
%TD*%
D15*
%TO.C,R42*%
X152349244Y-28469031D03*
X153999244Y-28469031D03*
%TD*%
D17*
%TO.C,R122*%
X65334244Y-36379031D03*
X65334244Y-35359031D03*
%TD*%
D14*
%TO.C,Q3*%
X79041744Y-33348940D03*
X79041744Y-31448940D03*
X77166744Y-32398940D03*
%TD*%
D26*
%TO.C,C8*%
X45459244Y-29299031D03*
X45459244Y-28339031D03*
%TD*%
D64*
%TO.C,D32*%
X39809244Y-24669031D03*
X39809244Y-17869031D03*
%TD*%
D65*
%TO.C,Y1*%
X64884244Y-51956531D03*
X62684244Y-51956531D03*
X62684244Y-53656531D03*
X64884244Y-53656531D03*
%TD*%
D18*
%TO.C,J1*%
X83314244Y-20151026D03*
D19*
X78234244Y-20151026D03*
%TD*%
D66*
%TO.C,L2*%
X40684244Y-27669031D03*
X40684244Y-33719031D03*
%TD*%
D21*
%TO.C,R66*%
X180784244Y-63719031D03*
X179134244Y-63719031D03*
%TD*%
D67*
%TO.C,C3*%
X53209244Y-22444031D03*
X45809244Y-22444031D03*
%TD*%
D21*
%TO.C,R51*%
X90384244Y-63719031D03*
X88734244Y-63719031D03*
%TD*%
%TO.C,R4*%
X82899244Y-28469031D03*
X81249244Y-28469031D03*
%TD*%
D17*
%TO.C,R121*%
X66284244Y-36379031D03*
X66284244Y-35359031D03*
%TD*%
D14*
%TO.C,Q5*%
X79041744Y-36748940D03*
X79041744Y-34848940D03*
X77166744Y-35798940D03*
%TD*%
D21*
%TO.C,R71*%
X172899244Y-28469031D03*
X171249244Y-28469031D03*
%TD*%
D11*
%TO.C,Q31*%
X57684244Y-65219031D03*
X57684244Y-67119031D03*
X59559244Y-66169031D03*
%TD*%
D14*
%TO.C,Q43*%
X169041744Y-36748940D03*
X169041744Y-34848940D03*
X167166744Y-35798940D03*
%TD*%
D68*
%TO.C,U3*%
X66534244Y-39244031D03*
X66034244Y-39244031D03*
X65534244Y-39244031D03*
X65034244Y-39244031D03*
X64534244Y-39244031D03*
X64034244Y-39244031D03*
X63534244Y-39244031D03*
X63034244Y-39244031D03*
X62534244Y-39244031D03*
X62034244Y-39244031D03*
X61534244Y-39244031D03*
X61034244Y-39244031D03*
D69*
X59621744Y-40656531D03*
X59621744Y-41156531D03*
X59621744Y-41656531D03*
X59621744Y-42156531D03*
X59621744Y-42656531D03*
X59621744Y-43156531D03*
X59621744Y-43656531D03*
X59621744Y-44156531D03*
X59621744Y-44656531D03*
X59621744Y-45156531D03*
X59621744Y-45656531D03*
X59621744Y-46156531D03*
D68*
X61034244Y-47569031D03*
X61534244Y-47569031D03*
X62034244Y-47569031D03*
X62534244Y-47569031D03*
X63034244Y-47569031D03*
X63534244Y-47569031D03*
X64034244Y-47569031D03*
X64534244Y-47569031D03*
X65034244Y-47569031D03*
X65534244Y-47569031D03*
X66034244Y-47569031D03*
X66534244Y-47569031D03*
D69*
X67946744Y-46156531D03*
X67946744Y-45656531D03*
X67946744Y-45156531D03*
X67946744Y-44656531D03*
X67946744Y-44156531D03*
X67946744Y-43656531D03*
X67946744Y-43156531D03*
X67946744Y-42656531D03*
X67946744Y-42156531D03*
X67946744Y-41656531D03*
X67946744Y-41156531D03*
X67946744Y-40656531D03*
%TD*%
D21*
%TO.C,R19*%
X97899244Y-28469031D03*
X96249244Y-28469031D03*
%TD*%
D11*
%TO.C,Q17*%
X126206744Y-25023721D03*
X126206744Y-26923721D03*
X128081744Y-25973721D03*
%TD*%
D15*
%TO.C,R10*%
X107349244Y-28469031D03*
X108999244Y-28469031D03*
%TD*%
D30*
%TO.C,J16*%
X19100000Y-89000000D03*
D19*
X24180000Y-89000000D03*
X29260000Y-89000000D03*
X34340000Y-89000000D03*
X39420000Y-89000000D03*
X44500000Y-89000000D03*
X49580000Y-89000000D03*
X54660000Y-89000000D03*
%TD*%
D14*
%TO.C,Q6*%
X109049244Y-26919031D03*
X109049244Y-25019031D03*
X107174244Y-25969031D03*
%TD*%
D15*
%TO.C,R9*%
X108549244Y-23469031D03*
X110199244Y-23469031D03*
%TD*%
D14*
%TO.C,Q19*%
X128081744Y-33345331D03*
X128081744Y-31445331D03*
X126206744Y-32395331D03*
%TD*%
M02*
