M48
; DRILL file KiCad 10.0.3 date 2026-06-09T23:17:27
; FORMAT={-:-/ absolute / inch / decimal}
; #@! TF.CreationDate,2026-06-09T23:17:27+02:00
; #@! TF.GenerationSoftware,Kicad,Pcbnew,10.0.3
; #@! TF.FileFunction,Plated,1,4,PTH
FMAT,2
INCH
; #@! TA.AperFunction,Plated,PTH,ComponentDrill
T1C0.0079
; #@! TA.AperFunction,Plated,PTH,ViaDrill
T2C0.0118
; #@! TA.AperFunction,Plated,PTH,ViaDrill
T3C0.0157
; #@! TA.AperFunction,Plated,PTH,ComponentDrill
T4C0.0236
; #@! TA.AperFunction,Plated,PTH,ComponentDrill
T5C0.0350
; #@! TA.AperFunction,Plated,PTH,ComponentDrill
T6C0.0402
; #@! TA.AperFunction,Plated,PTH,ComponentDrill
T7C0.0512
; #@! TA.AperFunction,Plated,PTH,ComponentDrill
T8C0.0512
; #@! TA.AperFunction,Plated,PTH,ComponentDrill
T9C0.0551
; #@! TA.AperFunction,Plated,PTH,ComponentDrill
T10C0.0642
%
G90
G05
T1
X0.7917Y-1.9767
X0.7917Y-2.0319
X0.8193Y-1.9492
X0.8193Y-2.0043
X0.8193Y-2.0594
X0.8468Y-1.9767
X0.8468Y-2.0319
X0.8744Y-1.9492
X0.8744Y-2.0043
X0.8744Y-2.0594
X0.9019Y-1.9767
X0.9019Y-2.0319
T2
X0.5063Y-2.4633
X0.5073Y-2.4387
X0.5141Y-1.5441
X0.5151Y-1.3974
X0.5299Y-2.6799
X0.5348Y-2.4378
X0.5348Y-2.4633
X0.5565Y-2.6799
X0.5702Y-1.5244
X0.588Y-2.4446
X0.6185Y-2.4604
X0.6204Y-1.5509
X0.6431Y-2.2399
X0.6519Y-2.4604
X0.6578Y-1.6582
X0.6864Y-2.4594
X0.6943Y-0.7143
X0.7228Y-2.4604
X0.8202Y-1.6779
X0.8506Y-1.4024
X0.8508Y-1.6543
X0.8818Y-2.4816
X0.883Y-2.4494
X0.8931Y-1.6946
X0.8988Y-2.3499
X0.9211Y-2.3736
X0.9398Y-0.9314
X0.9423Y-1.6937
X0.9876Y-0.9574
X0.9959Y-1.4048
X1.0013Y-1.0755
X1.1241Y-0.9518
X1.1663Y-1.3836
X1.1874Y-1.2527
X1.1972Y-1.8698
X1.2573Y-0.7173
X1.2897Y-1.921
X1.3084Y-2.0195
X1.3149Y-1.7708
X1.3159Y-1.8053
X1.3405Y-2.1853
X1.3714Y-1.9722
X1.3763Y-2.1878
X1.4108Y-2.1887
X1.4462Y-2.1868
X1.5338Y-1.4023
X1.5338Y-1.4358
X1.5338Y-1.4732
X1.5338Y-1.5086
X1.5338Y-1.5421
X1.5673Y-1.4023
X1.5673Y-1.4358
X1.5673Y-1.4732
X1.5673Y-1.5086
X1.5673Y-1.5421
X1.5673Y-1.5736
X1.585Y-0.7852
X1.586Y-0.8147
X1.6008Y-1.4023
X1.6008Y-1.4358
X1.6008Y-1.4732
X1.6145Y-0.7842
X1.6155Y-0.8137
X1.646Y-0.7842
X1.646Y-0.8147
X1.646Y-0.8452
X1.646Y-0.8748
X1.6756Y-0.7832
X1.6756Y-0.8137
X1.6756Y-0.8443
X1.6756Y-0.8738
X1.7425Y-1.6011
X1.774Y-1.6011
X1.7996Y-1.5795
X1.8744Y-1.1996
X1.8744Y-1.357
X1.8941Y-1.5303
X1.9275Y-1.1996
X1.9275Y-1.357
X1.9452Y-1.4122
X1.9452Y-1.4712
X2.0752Y-1.3885
X2.0988Y-1.3885
X2.1224Y-1.3885
X2.1903Y-1.7232
X2.1903Y-1.7606
X2.1903Y-1.798
X2.1903Y-1.8354
X2.212Y-1.6563
X2.212Y-1.6878
X2.2149Y-2.6809
X2.2415Y-2.6809
X2.2612Y-1.4584
X2.2784Y-1.327
X2.2986Y-1.86
X2.2996Y-1.4584
X2.3015Y-1.2901
X2.3301Y-1.86
X2.336Y-1.4584
X2.3675Y-2.0588
X2.399Y-1.6208
X2.399Y-1.6602
X2.399Y-1.7193
X2.4305Y-1.3821
X2.4484Y-1.8243
X2.4797Y-1.3675
X2.4906Y-1.4639
X2.4953Y-1.8243
X2.5171Y-1.4949
X2.5253Y-1.4638
X2.5328Y-1.3689
X2.5801Y-1.6002
X2.5909Y-1.4939
X2.6076Y-1.3019
X2.6098Y-1.3689
X2.6136Y-2.1326
X2.6254Y-1.6602
X2.6254Y-1.6976
X2.6293Y-1.4929
X2.6527Y-1.3686
X2.6594Y-1.3112
X2.7277Y-1.6002
X2.7317Y-1.4722
X2.9817Y-1.4082
X3.0013Y-1.5145
X3.2887Y-1.4309
X3.2917Y-1.4899
X3.2937Y-1.3718
X3.3045Y-1.1799
X3.3242Y-1.3128
X3.5053Y-2.6799
X3.5319Y-2.6799
X3.5722Y-1.4082
X3.5919Y-1.5145
X3.8763Y-1.4899
X3.8783Y-1.3718
X3.8793Y-1.4309
X3.895Y-1.1799
X3.9147Y-1.3128
X4.1628Y-1.4082
X4.1825Y-1.5145
X4.3952Y-2.6799
X4.4218Y-2.6799
X4.4699Y-1.4309
X4.4699Y-1.4899
X4.4738Y-1.3718
X4.4856Y-1.1799
X4.5053Y-1.3128
X4.7533Y-1.4082
X4.773Y-1.5145
X5.0604Y-1.4309
X5.0634Y-1.4899
X5.0762Y-1.1799
X5.086Y-1.3718
X5.0958Y-1.3128
X5.2858Y-2.6799
X5.3124Y-2.6799
X5.3439Y-1.4082
X5.3636Y-1.5145
X5.396Y-2.2959
X5.4216Y-2.296
X5.4649Y-2.296
X5.4915Y-2.296
X5.5752Y-2.0578
X5.5752Y-2.425
X5.6106Y-2.0588
X5.6258Y-2.4259
X5.6431Y-2.0588
X5.651Y-1.4309
X5.6667Y-1.1799
X5.6765Y-2.0588
X5.6864Y-1.3128
X5.9344Y-1.4082
X5.9541Y-1.5145
X6.1746Y-2.6789
X6.2012Y-2.6789
X6.2415Y-1.4309
X6.2573Y-1.1799
X6.2769Y-1.3128
X6.525Y-1.4082
X6.5447Y-1.5145
X6.8321Y-1.4309
X6.8478Y-1.1799
X6.8675Y-1.3128
X7.0643Y-2.6799
X7.0909Y-2.6799
X7.2061Y-1.9761
X7.2537Y-1.7015
X7.3124Y-1.8381
X7.4252Y-1.767
X7.4649Y-1.8617
X7.4748Y-1.9161
T3
X7.1545Y-1.3622
X7.2167Y-1.2431
X7.312Y-0.936
X7.3143Y-1.0147
X7.3159Y-1.2076
X7.4104Y-1.2076
T5
X2.358Y-1.237
X2.4076Y-1.137
X2.458Y-1.237
X2.5076Y-1.137
X2.558Y-1.237
X2.6076Y-1.137
X2.658Y-1.237
X2.7076Y-1.137
T6
X2.272Y-0.6937
X2.372Y-0.6937
X2.6937Y-0.6937
X2.7937Y-0.6937
T7
X7.8731Y-0.7963
X8.2274Y-2.8042
X8.2677Y-3.189
X8.5818Y-2.8042
X8.9361Y-0.7963
X9.1535Y-3.189
X9.3399Y-1.4122
X9.3399Y-1.609
X9.3399Y-1.8059
X9.3399Y-2.0027
T8
X0.7543Y-2.6297
X0.7543Y-3.0824
X0.7543Y-3.358
X0.9393Y-2.6297
X2.4393Y-2.6307
X2.4393Y-3.0834
X2.4393Y-3.359
X2.6244Y-2.6307
X3.7297Y-2.6297
X3.7297Y-3.0824
X3.7297Y-3.358
X3.9147Y-2.6297
X4.6197Y-2.6297
X4.6197Y-3.0824
X4.6197Y-3.358
X4.8047Y-2.6297
X5.5102Y-2.6297
X5.5102Y-3.0824
X5.5102Y-3.358
X5.6952Y-2.6297
X6.399Y-2.6287
X6.399Y-3.0815
X6.399Y-3.357
X6.584Y-2.6287
X7.2887Y-2.6297
X7.2887Y-3.0824
X7.2887Y-3.358
X7.4738Y-2.6297
T9
X0.752Y-3.5039
X0.952Y-3.5039
X1.152Y-3.5039
X1.352Y-3.5039
X1.552Y-3.5039
X1.752Y-3.5039
X1.952Y-3.5039
X2.152Y-3.5039
X2.4409Y-3.5039
X2.6409Y-3.5039
X2.8409Y-3.5039
X3.0409Y-3.5039
X3.0801Y-0.7933
X3.2409Y-3.5039
X3.2801Y-0.7933
X3.4409Y-3.5039
X3.6706Y-0.7933
X3.7302Y-3.5039
X3.8706Y-0.7933
X3.9302Y-3.5039
X4.1302Y-3.5039
X4.2612Y-0.7933
X4.3302Y-3.5039
X4.4612Y-0.7933
X4.6204Y-3.5039
X4.8204Y-3.5039
X4.8517Y-0.7933
X5.0204Y-3.5039
X5.0517Y-0.7933
X5.2204Y-3.5039
X5.4423Y-0.7933
X5.5098Y-3.5039
X5.6423Y-0.7933
X5.7098Y-3.5039
X5.9098Y-3.5039
X6.0328Y-0.7933
X6.1098Y-3.5039
X6.2328Y-0.7933
X6.3996Y-3.5039
X6.5996Y-3.5039
X6.6234Y-0.7933
X6.7996Y-3.5039
X6.8234Y-0.7933
X6.9996Y-3.5039
X7.2084Y-0.7932
X7.2894Y-3.5039
X7.4084Y-0.7932
X7.4894Y-3.5039
X7.6894Y-3.5039
X7.8894Y-3.5039
X8.2685Y-3.5039
X8.4685Y-3.5039
X8.6685Y-3.5039
T10
X2.2279Y-1.0067
X2.8378Y-1.0067
T4
G00X0.8076Y-0.6852
M15
G01X0.8076Y-0.7167
M16
G05
G00X0.8076Y-0.8435
M15
G01X0.8076Y-0.8868
M16
G05
G00X1.1478Y-0.6852
M15
G01X1.1478Y-0.7167
M16
G05
G00X1.1478Y-0.8435
M15
G01X1.1478Y-0.8868
M16
G05
M30
