%TF.GenerationSoftware,KiCad,Pcbnew,10.0.3*%
%TF.CreationDate,2026-06-09T23:17:27+02:00*%
%TF.ProjectId,OpenTherm,4f70656e-5468-4657-926d-2e6b69636164,rev?*%
%TF.SameCoordinates,Original*%
%TF.FileFunction,Copper,L4,Bot*%
%TF.FilePolarity,Positive*%
%FSLAX46Y46*%
G04 Gerber Fmt 4.6, Leading zero omitted, Abs format (unit mm)*
G04 Created by KiCad (PCBNEW 10.0.3) date 2026-06-09 23:17:27*
%MOMM*%
%LPD*%
G01*
G04 APERTURE LIST*
G04 Aperture macros list*
%AMRoundRect*
0 Rectangle with rounded corners*
0 $1 Rounding radius*
0 $2 $3 $4 $5 $6 $7 $8 $9 X,Y pos of 4 corners*
0 Add a 4 corners polygon primitive as box body*
4,1,4,$2,$3,$4,$5,$6,$7,$8,$9,$2,$3,0*
0 Add four circle primitives for the rounded corners*
1,1,$1+$1,$2,$3*
1,1,$1+$1,$4,$5*
1,1,$1+$1,$6,$7*
1,1,$1+$1,$8,$9*
0 Add four rect primitives between the rounded corners*
20,1,$1+$1,$2,$3,$4,$5,0*
20,1,$1+$1,$4,$5,$6,$7,0*
20,1,$1+$1,$6,$7,$8,$9,0*
20,1,$1+$1,$8,$9,$2,$3,0*%
G04 Aperture macros list end*
%TA.AperFunction,ComponentPad*%
%ADD10RoundRect,0.249999X0.790001X1.550001X-0.790001X1.550001X-0.790001X-1.550001X0.790001X-1.550001X0*%
%TD*%
%TA.AperFunction,ComponentPad*%
%ADD11O,2.080000X3.600000*%
%TD*%
%TA.AperFunction,ComponentPad*%
%ADD12C,2.100000*%
%TD*%
%TA.AperFunction,ComponentPad*%
%ADD13C,3.000000*%
%TD*%
%TA.AperFunction,ComponentPad*%
%ADD14R,3.000000X3.000000*%
%TD*%
%TA.AperFunction,ComponentPad*%
%ADD15RoundRect,0.249999X-0.790001X-1.550001X0.790001X-1.550001X0.790001X1.550001X-0.790001X1.550001X0*%
%TD*%
%TA.AperFunction,HeatsinkPad*%
%ADD16C,0.600000*%
%TD*%
%TA.AperFunction,HeatsinkPad*%
%ADD17O,0.900000X2.000000*%
%TD*%
%TA.AperFunction,HeatsinkPad*%
%ADD18O,0.900000X1.700000*%
%TD*%
%TA.AperFunction,ComponentPad*%
%ADD19R,2.300000X2.000000*%
%TD*%
%TA.AperFunction,ComponentPad*%
%ADD20O,2.300000X2.000000*%
%TD*%
%TA.AperFunction,ComponentPad*%
%ADD21RoundRect,0.250500X0.499500X0.499500X-0.499500X0.499500X-0.499500X-0.499500X0.499500X-0.499500X0*%
%TD*%
%TA.AperFunction,ComponentPad*%
%ADD22C,1.500000*%
%TD*%
%TA.AperFunction,ComponentPad*%
%ADD23C,2.500000*%
%TD*%
%TA.AperFunction,ViaPad*%
%ADD24C,0.600000*%
%TD*%
%TA.AperFunction,ViaPad*%
%ADD25C,0.800000*%
%TD*%
%TA.AperFunction,Conductor*%
%ADD26C,1.000000*%
%TD*%
%TA.AperFunction,Conductor*%
%ADD27C,1.500000*%
%TD*%
%TA.AperFunction,Conductor*%
%ADD28C,2.000000*%
%TD*%
%TA.AperFunction,Conductor*%
%ADD29C,0.250000*%
%TD*%
%TA.AperFunction,Conductor*%
%ADD30C,0.200000*%
%TD*%
G04 APERTURE END LIST*
D10*
%TO.P,J5,1,Pin_1_1*%
%TO.N,Net-(J5-Pin_1)*%
X143314244Y-20151026D03*
D11*
%TO.P,J5,2,Pin_2_2*%
%TO.N,GND*%
X138234244Y-20151026D03*
%TD*%
D12*
%TO.P,J22,1,1_1*%
%TO.N,+24V*%
X117339251Y-66794031D03*
%TO.P,J22,2,2_2*%
%TO.N,HOT*%
X117339251Y-78294031D03*
%TO.P,J22,3,3_3*%
%TO.N,/thermische motor 4/RelayHot*%
X117339251Y-85294031D03*
%TO.P,J22,4,4_4*%
%TO.N,Net-(D19-A)*%
X122039251Y-66794031D03*
%TD*%
%TO.P,J23,1,1_1*%
%TO.N,+24V*%
X139959244Y-66794031D03*
%TO.P,J23,2,2_2*%
%TO.N,HOT*%
X139959244Y-78294031D03*
%TO.P,J23,3,3_3*%
%TO.N,/thermische motor 5/RelayHot*%
X139959244Y-85294031D03*
%TO.P,J23,4,4_4*%
%TO.N,Net-(D20-A)*%
X144659244Y-66794031D03*
%TD*%
%TO.P,J21,1,1_1*%
%TO.N,+24V*%
X94734244Y-66794031D03*
%TO.P,J21,2,2_2*%
%TO.N,HOT*%
X94734244Y-78294031D03*
%TO.P,J21,3,3_3*%
%TO.N,/thermische motor 3/RelayHot*%
X94734244Y-85294031D03*
%TO.P,J21,4,4_4*%
%TO.N,Net-(D18-A)*%
X99434244Y-66794031D03*
%TD*%
D10*
%TO.P,J2,1,Pin_1_1*%
%TO.N,Net-(J2-Pin_1)*%
X98314244Y-20151026D03*
D11*
%TO.P,J2,2,Pin_2_2*%
%TO.N,GND*%
X93234244Y-20151026D03*
%TD*%
D13*
%TO.P,F1,1*%
%TO.N,Net-(J7-Pin_1)*%
X210000000Y-81000000D03*
%TO.P,F1,2*%
%TO.N,HOT*%
X232500000Y-81000000D03*
%TD*%
D10*
%TO.P,J8,1,Pin_1_1*%
%TO.N,Net-(J8-Pin_1)*%
X173314244Y-20151026D03*
D11*
%TO.P,J8,2,Pin_2_2*%
%TO.N,GND*%
X168234244Y-20151026D03*
%TD*%
D14*
%TO.P,J17,1,Pin_1_1*%
%TO.N,+3.3V*%
X237234244Y-50869031D03*
D13*
%TO.P,J17,2,Pin_2_2*%
%TO.N,GND*%
X237234244Y-45869031D03*
%TO.P,J17,3,Pin_3_3*%
X237234244Y-40869031D03*
%TO.P,J17,4,Pin_4_4*%
%TO.N,+24V*%
X237234244Y-35869031D03*
%TD*%
D15*
%TO.P,J11,1,Pin_1_1*%
%TO.N,/thermische motor 3/RelayHot*%
X94747359Y-89000000D03*
D11*
%TO.P,J11,2,Pin_2_2*%
%TO.N,NEUTRAL*%
X99827359Y-89000000D03*
%TO.P,J11,3,Pin_3_3*%
%TO.N,/thermische motor 3/RelayHot*%
X104907359Y-89000000D03*
%TO.P,J11,4,Pin_4_4*%
%TO.N,NEUTRAL*%
X109987359Y-89000000D03*
%TD*%
D16*
%TO.P,U4,41,GND_41*%
%TO.N,GND*%
X20809244Y-52309031D03*
X22209244Y-52309031D03*
X20109244Y-51609031D03*
X21509244Y-51609031D03*
X22909244Y-51609031D03*
X20809244Y-50909031D03*
X22209244Y-50909031D03*
X20109244Y-50209031D03*
X21509244Y-50209031D03*
X22909244Y-50209031D03*
X20809244Y-49509031D03*
X22209244Y-49509031D03*
%TD*%
D15*
%TO.P,J10,1,Pin_1_1*%
%TO.N,/thermische motor 2/RelayHot*%
X62000000Y-89000000D03*
D11*
%TO.P,J10,2,Pin_2_2*%
%TO.N,NEUTRAL*%
X67080000Y-89000000D03*
%TO.P,J10,3,Pin_3_3*%
%TO.N,/thermische motor 2/RelayHot*%
X72160000Y-89000000D03*
%TO.P,J10,4,Pin_4_4*%
%TO.N,NEUTRAL*%
X77240000Y-89000000D03*
%TO.P,J10,5,Pin_5_5*%
%TO.N,/thermische motor 2/RelayHot*%
X82320000Y-89000000D03*
%TO.P,J10,6,Pin_6_6*%
%TO.N,NEUTRAL*%
X87400000Y-89000000D03*
%TD*%
D12*
%TO.P,J26,1,1_1*%
%TO.N,+24V*%
X185134244Y-66794031D03*
%TO.P,J26,2,2_2*%
%TO.N,HOT*%
X185134244Y-78294031D03*
%TO.P,J26,3,3_3*%
%TO.N,/thermische motor 7/RelayHot*%
X185134244Y-85294031D03*
%TO.P,J26,4,4_4*%
%TO.N,Net-(D22-A)*%
X189834244Y-66794031D03*
%TD*%
%TO.P,J25,1,1_1*%
%TO.N,+24V*%
X162534244Y-66769031D03*
%TO.P,J25,2,2_2*%
%TO.N,HOT*%
X162534244Y-78269031D03*
%TO.P,J25,3,3_3*%
%TO.N,/thermische motor 6/RelayHot*%
X162534244Y-85269031D03*
%TO.P,J25,4,4_4*%
%TO.N,Net-(D21-A)*%
X167234244Y-66769031D03*
%TD*%
D10*
%TO.P,J4,1,Pin_1_1*%
%TO.N,Net-(J4-Pin_1)*%
X128314244Y-20151026D03*
D11*
%TO.P,J4,2,Pin_2_2*%
%TO.N,GND*%
X123234244Y-20151026D03*
%TD*%
D12*
%TO.P,J19,1,1_1*%
%TO.N,+24V*%
X19159244Y-66794031D03*
%TO.P,J19,2,2_2*%
%TO.N,HOT*%
X19159244Y-78294031D03*
%TO.P,J19,3,3_3*%
%TO.N,/thermische motor 1/RelayHot*%
X19159244Y-85294031D03*
%TO.P,J19,4,4_4*%
%TO.N,Net-(D8-A)*%
X23859244Y-66794031D03*
%TD*%
%TO.P,J20,1,1_1*%
%TO.N,+24V*%
X61959244Y-66819031D03*
%TO.P,J20,2,2_2*%
%TO.N,HOT*%
X61959244Y-78319031D03*
%TO.P,J20,3,3_3*%
%TO.N,/thermische motor 2/RelayHot*%
X61959244Y-85319031D03*
%TO.P,J20,4,4_4*%
%TO.N,Net-(D9-A)*%
X66659244Y-66819031D03*
%TD*%
D15*
%TO.P,J13,1,Pin_1_1*%
%TO.N,/thermische motor 5/RelayHot*%
X139950000Y-89000000D03*
D11*
%TO.P,J13,2,Pin_2_2*%
%TO.N,NEUTRAL*%
X145030000Y-89000000D03*
%TO.P,J13,3,Pin_3_3*%
%TO.N,/thermische motor 5/RelayHot*%
X150110000Y-89000000D03*
%TO.P,J13,4,Pin_4_4*%
%TO.N,NEUTRAL*%
X155190000Y-89000000D03*
%TD*%
D17*
%TO.P,J18,S1,SHIELD_S1*%
%TO.N,GND*%
X29154244Y-21974031D03*
D18*
X29154244Y-17804031D03*
D17*
X20514244Y-21974031D03*
D18*
X20514244Y-17804031D03*
%TD*%
D19*
%TO.P,PS1,1,AC/L_1*%
%TO.N,HOT*%
X208976744Y-71226531D03*
D20*
%TO.P,PS1,2,AC/N_2*%
%TO.N,NEUTRAL*%
X217976744Y-71226531D03*
%TO.P,PS1,3,-Vout_3*%
%TO.N,GND*%
X199976744Y-20226531D03*
%TO.P,PS1,4,+Vout_4*%
%TO.N,+24V*%
X226976744Y-20226531D03*
%TD*%
D10*
%TO.P,J3,1,Pin_1_1*%
%TO.N,Net-(J3-Pin_1)*%
X113314244Y-20151026D03*
D11*
%TO.P,J3,2,Pin_2_2*%
%TO.N,GND*%
X108234244Y-20151026D03*
%TD*%
D15*
%TO.P,J12,1,Pin_1_1*%
%TO.N,/thermische motor 4/RelayHot*%
X117359244Y-89000000D03*
D11*
%TO.P,J12,2,Pin_2_2*%
%TO.N,NEUTRAL*%
X122439244Y-89000000D03*
%TO.P,J12,3,Pin_3_3*%
%TO.N,/thermische motor 4/RelayHot*%
X127519244Y-89000000D03*
%TO.P,J12,4,Pin_4_4*%
%TO.N,NEUTRAL*%
X132599244Y-89000000D03*
%TD*%
D10*
%TO.P,J24,1,Pin_1_1*%
%TO.N,Net-(D15-A)*%
X188174244Y-20146531D03*
D11*
%TO.P,J24,2,Pin_2_2*%
%TO.N,Net-(D10-A)*%
X183094244Y-20146531D03*
%TD*%
D15*
%TO.P,J14,1,Pin_1_1*%
%TO.N,/thermische motor 6/RelayHot*%
X162550000Y-89000000D03*
D11*
%TO.P,J14,2,Pin_2_2*%
%TO.N,NEUTRAL*%
X167630000Y-89000000D03*
%TO.P,J14,3,Pin_3_3*%
%TO.N,/thermische motor 6/RelayHot*%
X172710000Y-89000000D03*
%TO.P,J14,4,Pin_4_4*%
%TO.N,NEUTRAL*%
X177790000Y-89000000D03*
%TD*%
D10*
%TO.P,J6,1,Pin_1_1*%
%TO.N,Net-(J6-Pin_1)*%
X158314244Y-20151026D03*
D11*
%TO.P,J6,2,Pin_2_2*%
%TO.N,GND*%
X153234244Y-20151026D03*
%TD*%
D15*
%TO.P,J15,1,Pin_1_1*%
%TO.N,/thermische motor 7/RelayHot*%
X185150000Y-89000000D03*
D11*
%TO.P,J15,2,Pin_2_2*%
%TO.N,NEUTRAL*%
X190230000Y-89000000D03*
%TO.P,J15,3,Pin_3_3*%
%TO.N,/thermische motor 7/RelayHot*%
X195310000Y-89000000D03*
%TO.P,J15,4,Pin_4_4*%
%TO.N,NEUTRAL*%
X200390000Y-89000000D03*
%TD*%
D21*
%TO.P,J9,1,TD+_1*%
%TO.N,Net-(J9-TD+)*%
X68774244Y-28879031D03*
D22*
%TO.P,J9,2,TD-_2*%
%TO.N,Net-(J9-TD-)*%
X67514244Y-31419031D03*
%TO.P,J9,3,RD+_3*%
%TO.N,Net-(J9-RD+)*%
X66234244Y-28879031D03*
%TO.P,J9,4,TCT_4*%
%TO.N,Net-(J9-TCT)*%
X64974244Y-31419031D03*
%TO.P,J9,5,RCT_5*%
%TO.N,Net-(J9-RCT)*%
X63694244Y-28879031D03*
%TO.P,J9,6,RD-_6*%
%TO.N,Net-(J9-RD-)*%
X62434244Y-31419031D03*
%TO.P,J9,7,NC_7*%
%TO.N,unconnected-(J9-NC-Pad7)*%
X61154244Y-28879031D03*
%TO.P,J9,8*%
%TO.N,GND*%
X59894244Y-31419031D03*
%TO.P,J9,9*%
%TO.N,+3.3V*%
X70959244Y-17619031D03*
%TO.P,J9,10*%
%TO.N,ACTLED*%
X68419244Y-17619031D03*
%TO.P,J9,11*%
%TO.N,LINKLED*%
X60249244Y-17619031D03*
%TO.P,J9,12*%
%TO.N,+3.3V*%
X57709244Y-17619031D03*
D23*
%TO.P,J9,SH*%
%TO.N,GND*%
X72079244Y-25569031D03*
X56589244Y-25569031D03*
%TD*%
D15*
%TO.P,J7,1,Pin_1_1*%
%TO.N,Net-(J7-Pin_1)*%
X210020000Y-89000000D03*
D11*
%TO.P,J7,2,Pin_2_2*%
%TO.N,NEUTRAL*%
X215100000Y-89000000D03*
%TO.P,J7,3,Pin_3_3*%
%TO.N,unconnected-(J7-Pin_3-Pad3)*%
X220180000Y-89000000D03*
%TD*%
D10*
%TO.P,J1,1,Pin_1_1*%
%TO.N,Net-(J1-Pin_1)*%
X83314244Y-20151026D03*
D11*
%TO.P,J1,2,Pin_2_2*%
%TO.N,GND*%
X78234244Y-20151026D03*
%TD*%
D15*
%TO.P,J16,1,Pin_1_1*%
%TO.N,/thermische motor 1/RelayHot*%
X19100000Y-89000000D03*
D11*
%TO.P,J16,2,Pin_2_2*%
%TO.N,NEUTRAL*%
X24180000Y-89000000D03*
%TO.P,J16,3,Pin_3_3*%
%TO.N,/thermische motor 1/RelayHot*%
X29260000Y-89000000D03*
%TO.P,J16,4,Pin_4_4*%
%TO.N,NEUTRAL*%
X34340000Y-89000000D03*
%TO.P,J16,5,Pin_5_5*%
%TO.N,/thermische motor 1/RelayHot*%
X39420000Y-89000000D03*
%TO.P,J16,6,Pin_6_6*%
%TO.N,NEUTRAL*%
X44500000Y-89000000D03*
%TO.P,J16,7,Pin_7_7*%
%TO.N,/thermische motor 1/RelayHot*%
X49580000Y-89000000D03*
%TO.P,J16,8,Pin_8_8*%
%TO.N,NEUTRAL*%
X54660000Y-89000000D03*
%TD*%
D24*
%TO.N,GND*%
X42559244Y-21444031D03*
X166234244Y-38469031D03*
X12859244Y-62569031D03*
X58409244Y-37044031D03*
X189859244Y-48669031D03*
X112314251Y-68069031D03*
X113534244Y-36345331D03*
X144184244Y-52294031D03*
X61734244Y-35106531D03*
X111639251Y-68069031D03*
X98934244Y-29969031D03*
X179434244Y-68069031D03*
X41809244Y-19919031D03*
X63381885Y-46336452D03*
X157509244Y-68044031D03*
X60134244Y-52294031D03*
X47609244Y-34469031D03*
X91234244Y-38469031D03*
X128534244Y-36345331D03*
X69384244Y-37394031D03*
X49409244Y-37369031D03*
X89034244Y-68069031D03*
X134934244Y-68069031D03*
X55634244Y-45669031D03*
X41809244Y-20694031D03*
X29624244Y-35144031D03*
X57434244Y-37044031D03*
X48959244Y-30469031D03*
X143334244Y-52294031D03*
X143934244Y-29969031D03*
X60934244Y-43669031D03*
X48109244Y-38869031D03*
X98534244Y-36345331D03*
X134259244Y-68069031D03*
X49409244Y-35869031D03*
X139484244Y-58319031D03*
X141609244Y-52269031D03*
X60934244Y-42169031D03*
X28551743Y-24176532D03*
X40284244Y-20694031D03*
X12884244Y-61944031D03*
X41809244Y-21469031D03*
X55634244Y-43769031D03*
X59334244Y-37044031D03*
X142509244Y-52294031D03*
X136234244Y-38469031D03*
X185734244Y-46687367D03*
X173534244Y-36345331D03*
X60934244Y-41169031D03*
X83534244Y-36345331D03*
X48959244Y-34469031D03*
X40259244Y-19944031D03*
X41809244Y-22219031D03*
X65534244Y-40644031D03*
X52709244Y-35269031D03*
X69284244Y-40644031D03*
X151234244Y-38469031D03*
X128934244Y-29969031D03*
X42559244Y-19894031D03*
X42559244Y-22194031D03*
X89709244Y-68069031D03*
X138809244Y-58319031D03*
X14134244Y-68069031D03*
X13584244Y-61919031D03*
X55634244Y-46619031D03*
X113934244Y-29969031D03*
X66234244Y-33069031D03*
X188599246Y-44881172D03*
X45059244Y-40669031D03*
X45709244Y-40119031D03*
X156834244Y-68044031D03*
X180109244Y-68069031D03*
X76234244Y-38469031D03*
X106234244Y-38469031D03*
X143534244Y-36345331D03*
X173934244Y-29969031D03*
X44259244Y-40669031D03*
X158934244Y-29969031D03*
X53909244Y-35269031D03*
X83934244Y-29969031D03*
X13084244Y-35494031D03*
X14484244Y-38719031D03*
X158534244Y-36345331D03*
X47609244Y-30469031D03*
X56934244Y-68094031D03*
X13459244Y-68069031D03*
X66384244Y-54169031D03*
X42559244Y-20669031D03*
X56259244Y-68094031D03*
X13584244Y-62569031D03*
X41009244Y-19919031D03*
X121234244Y-38469031D03*
X53309244Y-35269031D03*
X63261801Y-37182617D03*
X55634244Y-44719031D03*
X41034244Y-20669031D03*
%TO.N,+3.3V*%
X58384244Y-47244031D03*
X129434244Y-33345331D03*
X39809244Y-36469031D03*
X39809244Y-39969031D03*
X159434244Y-33345331D03*
X38959244Y-39169031D03*
X56184244Y-42069031D03*
X114434244Y-33345331D03*
X39809244Y-39169031D03*
X135734244Y-35769031D03*
X38959244Y-37419031D03*
X165734244Y-35769031D03*
X99434244Y-33345331D03*
X90734244Y-35769031D03*
X39809244Y-35619031D03*
X25434244Y-27318031D03*
X15709244Y-62494031D03*
X40659244Y-37419031D03*
X17434244Y-62469031D03*
X39809244Y-38319031D03*
X66684244Y-42169031D03*
X16559244Y-62494031D03*
X62188958Y-46336790D03*
X184244244Y-43219031D03*
X84434244Y-33345331D03*
X105734244Y-35769031D03*
X144434244Y-33345331D03*
X59184244Y-47244031D03*
X39809244Y-37419031D03*
X38959244Y-35619031D03*
X30159244Y-31819031D03*
X38959244Y-38319031D03*
X120734244Y-35769031D03*
X56184244Y-42869031D03*
X18359244Y-62494031D03*
X137058737Y-58315478D03*
X66684244Y-43119031D03*
X174434244Y-33345331D03*
X40659244Y-35619031D03*
X137709244Y-58319031D03*
X150734244Y-35769031D03*
X38959244Y-36469031D03*
X75734244Y-35769031D03*
X14934244Y-62094031D03*
X40659244Y-36469031D03*
D25*
%TO.N,Net-(D11-A)*%
X185784244Y-25773526D03*
X188224244Y-30673526D03*
X181724244Y-34600000D03*
X185824244Y-30673526D03*
D24*
%TO.N,Net-(J9-TD-)*%
X66784244Y-37919031D03*
X67548509Y-33303296D03*
X67377994Y-34762781D03*
%TO.N,Thermos_In_3*%
X113534244Y-37844031D03*
X22684244Y-43044031D03*
%TO.N,SDA*%
X142894244Y-61619031D03*
X22396744Y-63031531D03*
%TO.N,LINKLED*%
X57871744Y-33706531D03*
%TO.N,Thermos_In_2*%
X20834244Y-42619031D03*
X98459244Y-37844031D03*
%TO.N,Thermos_In_4*%
X33398951Y-44979324D03*
X128609244Y-37844031D03*
%TO.N,Net-(U3-RXN)*%
X64142678Y-37179328D03*
X62985626Y-34734152D03*
%TO.N,ESP_EN*%
X13059244Y-39219031D03*
X16334244Y-56894031D03*
X25296744Y-35681531D03*
X31934244Y-18219031D03*
%TO.N,ACTLED*%
X58459244Y-32769031D03*
%TO.N,Thermos_Out_3*%
X23934244Y-43019031D03*
X113634244Y-34844031D03*
%TO.N,Thermos_Out_2*%
X98509244Y-34844031D03*
X21609244Y-42019031D03*
%TO.N,SCL*%
X22428624Y-62214882D03*
X141609244Y-61594031D03*
%TO.N,MOSI*%
X33234244Y-51294031D03*
X34959244Y-55569031D03*
%TO.N,SCLK*%
X34834244Y-50094031D03*
X36734244Y-55544031D03*
%TO.N,MISO*%
X35834244Y-55594031D03*
X32759244Y-48794031D03*
%TO.N,~{INT}*%
X30409244Y-47494031D03*
X34047479Y-55505796D03*
%TO.N,Thermos_Out_4*%
X33424686Y-45853589D03*
X129184244Y-34844031D03*
%TO.N,ESP_IO0*%
X21606281Y-35621994D03*
X17634244Y-18144031D03*
%TO.N,Thermos_In_1*%
X16709244Y-42119031D03*
X83609244Y-37844031D03*
%TO.N,Thermos_Out_1*%
X15759244Y-39394031D03*
X83659244Y-34844031D03*
%TO.N,USB_D+*%
X23871744Y-23656531D03*
X25084244Y-24319031D03*
%TO.N,Net-(U3-RXP)*%
X63934244Y-37970896D03*
X64334244Y-34769031D03*
D25*
%TO.N,Net-(D10-K)*%
X183303129Y-31573526D03*
X185724244Y-23773526D03*
D24*
%TO.N,Net-(J9-TD+)*%
X65809244Y-37944031D03*
X66289091Y-34769031D03*
%TO.N,Boiler_Out*%
X23395667Y-60288297D03*
X183034244Y-50194031D03*
%TO.N,Boiler_In*%
X22829980Y-59688297D03*
X189609244Y-47287367D03*
%TD*%
%TO.N,+24V*%
D26*
X94734244Y-66794031D02*
X97866744Y-69926531D01*
X61959244Y-66819031D02*
X65091744Y-69951531D01*
D27*
X97866744Y-69926531D02*
X98134244Y-70194031D01*
X22291744Y-69926531D02*
X22559244Y-70194031D01*
X188266744Y-69926531D02*
X188534244Y-70194031D01*
X196434244Y-70194031D02*
X196701744Y-69926531D01*
X65091744Y-69951531D02*
X65359244Y-70219031D01*
D26*
X19159244Y-66794031D02*
X22291744Y-69926531D01*
X185134244Y-66794031D02*
X188266744Y-69926531D01*
X139959244Y-66794031D02*
X143091744Y-69926531D01*
D27*
X22559244Y-70194031D02*
X196434244Y-70194031D01*
D28*
X196701744Y-69926531D02*
X226976744Y-39651531D01*
D27*
X143091744Y-69926531D02*
X143359244Y-70194031D01*
D26*
X117339251Y-66794031D02*
X120471751Y-69926531D01*
X162534244Y-66769031D02*
X165666744Y-69901531D01*
D27*
X120471751Y-69926531D02*
X120739251Y-70194031D01*
X165666744Y-69901531D02*
X165934244Y-70169031D01*
D28*
X226976744Y-39651531D02*
X226976744Y-20226531D01*
%TO.N,Net-(D11-A)*%
D29*
X183397770Y-34600000D02*
X185834244Y-32163526D01*
X185824244Y-32173526D02*
X183397770Y-34600000D01*
X185824244Y-30673526D02*
X188224244Y-30673526D01*
X185824244Y-30673526D02*
X185834244Y-30663526D01*
X185834244Y-25823526D02*
X185784244Y-25773526D01*
X181724244Y-34600000D02*
X183397770Y-34600000D01*
X185834244Y-30663526D02*
X185834244Y-25823526D01*
X185834244Y-30683526D02*
X185824244Y-30673526D01*
X185834244Y-32163526D02*
X185834244Y-30683526D01*
%TO.N,Net-(J9-TD-)*%
D30*
X66784244Y-35356531D02*
X67377994Y-34762781D01*
X66784244Y-37919031D02*
X66784244Y-35356531D01*
X67548509Y-33303296D02*
X67514244Y-33269031D01*
X67514244Y-33269031D02*
X67514244Y-31419031D01*
%TO.N,HOT*%
D28*
X205546744Y-77456531D02*
X204709244Y-78294031D01*
X227909244Y-76419031D02*
X228984244Y-77494031D01*
X212159244Y-76419031D02*
X206584244Y-76419031D01*
X208959244Y-73219031D02*
X208959244Y-71244031D01*
X214169244Y-76419031D02*
X212159244Y-76419031D01*
X214169244Y-76419031D02*
X227909244Y-76419031D01*
X204709244Y-78294031D02*
X19159244Y-78294031D01*
X208959244Y-71244031D02*
X208976744Y-71226531D01*
X212159244Y-76419031D02*
X208959244Y-73219031D01*
X228984244Y-77494031D02*
X228994031Y-77494031D01*
X206584244Y-76419031D02*
X205546744Y-77456531D01*
X228994031Y-77494031D02*
X232500000Y-81000000D01*
%TO.N,/thermische motor 4/RelayHot*%
X117339251Y-88980007D02*
X117359244Y-89000000D01*
X117359244Y-92169031D02*
X120059244Y-94869031D01*
X127519244Y-92084031D02*
X127519244Y-89000000D01*
X117280007Y-85353275D02*
X117339251Y-85294031D01*
X117359244Y-89000000D02*
X117359244Y-92169031D01*
X124734244Y-94869031D02*
X127519244Y-92084031D01*
X120059244Y-94869031D02*
X124734244Y-94869031D01*
X117339251Y-85294031D02*
X117339251Y-88980007D01*
%TO.N,/thermische motor 5/RelayHot*%
X142684244Y-94869031D02*
X147409244Y-94869031D01*
X139900000Y-85353275D02*
X139959244Y-85294031D01*
X139950000Y-92134787D02*
X142684244Y-94869031D01*
X139959244Y-88990756D02*
X139950000Y-89000000D01*
X150110000Y-92168275D02*
X150110000Y-89000000D01*
X139959244Y-85294031D02*
X139959244Y-88990756D01*
X139950000Y-89000000D02*
X139950000Y-92134787D01*
X147409244Y-94869031D02*
X150110000Y-92168275D01*
%TO.N,/thermische motor 3/RelayHot*%
X94675000Y-85353275D02*
X94734244Y-85294031D01*
X94747359Y-92107146D02*
X97509244Y-94869031D01*
X102134244Y-94869031D02*
X104907359Y-92095916D01*
X97509244Y-94869031D02*
X102134244Y-94869031D01*
X94734244Y-88986885D02*
X94747359Y-89000000D01*
X94734244Y-85294031D02*
X94734244Y-88986885D01*
X94747359Y-89000000D02*
X94747359Y-92107146D01*
X104907359Y-92095916D02*
X104907359Y-89000000D01*
%TO.N,Thermos_In_3*%
D30*
X32687186Y-43419031D02*
X39462189Y-50194031D01*
X24382773Y-43419031D02*
X32687186Y-43419031D01*
X24057773Y-43744031D02*
X24382773Y-43419031D01*
X42984244Y-50194031D02*
X43034244Y-50244031D01*
X101134244Y-50244031D02*
X113534244Y-37844031D01*
X23384244Y-43744031D02*
X24057773Y-43744031D01*
X39462189Y-50194031D02*
X42984244Y-50194031D01*
X43034244Y-50244031D02*
X101134244Y-50244031D01*
X22684244Y-43044031D02*
X23384244Y-43744031D01*
%TO.N,SDA*%
X22396744Y-63031531D02*
X141481744Y-63031531D01*
X141481744Y-63031531D02*
X142894244Y-61619031D01*
%TO.N,LINKLED*%
X57859244Y-33694031D02*
X57859244Y-27444031D01*
X57871744Y-33706531D02*
X57859244Y-33694031D01*
X60999244Y-24304031D02*
X60999244Y-18369031D01*
X60999244Y-18369031D02*
X60249244Y-17619031D01*
X57859244Y-27444031D02*
X60999244Y-24304031D01*
%TO.N,Thermos_In_2*%
X22057773Y-42419031D02*
X32818558Y-42419031D01*
X20834244Y-42619031D02*
X21857773Y-42619031D01*
X39793559Y-49394031D02*
X86909244Y-49394031D01*
X32818558Y-42419031D02*
X39793559Y-49394031D01*
X86909244Y-49394031D02*
X98459244Y-37844031D01*
X21857773Y-42619031D02*
X22057773Y-42419031D01*
%TO.N,Thermos_In_4*%
X33398951Y-44979324D02*
X39238658Y-50819031D01*
X115634244Y-50819031D02*
X128609244Y-37844031D01*
X39238658Y-50819031D02*
X115634244Y-50819031D01*
%TO.N,Net-(U3-RXN)*%
X63377591Y-36449878D02*
X64098926Y-37171213D01*
X64098926Y-37171213D02*
X64134563Y-37171213D01*
X64134563Y-37171213D02*
X64142678Y-37179328D01*
X63377591Y-35126117D02*
X63377591Y-36449878D01*
X62985626Y-34734152D02*
X63377591Y-35126117D01*
X63113247Y-34606531D02*
X62985626Y-34734152D01*
%TO.N,ESP_EN*%
X12884244Y-39394031D02*
X12884244Y-53444031D01*
X13059244Y-39219031D02*
X12884244Y-39394031D01*
X31934244Y-29044031D02*
X25296744Y-35681531D01*
X23684244Y-37294031D02*
X25296744Y-35681531D01*
X13059244Y-39219031D02*
X14984244Y-37294031D01*
X12884244Y-53444031D02*
X16334244Y-56894031D01*
X31934244Y-18219031D02*
X31934244Y-29044031D01*
X14984244Y-37294031D02*
X23684244Y-37294031D01*
X16334244Y-56894031D02*
X16334244Y-56994031D01*
%TO.N,ACTLED*%
X58584244Y-32769031D02*
X58434244Y-32619031D01*
X58459244Y-32769031D02*
X58584244Y-32769031D01*
X58434244Y-27604031D02*
X68419244Y-17619031D01*
X58434244Y-32619031D02*
X58434244Y-27604031D01*
%TO.N,Thermos_Out_3*%
X39627874Y-49794031D02*
X98684244Y-49794031D01*
X98684244Y-49794031D02*
X113634244Y-34844031D01*
X23934244Y-43019031D02*
X32852872Y-43019031D01*
X32852872Y-43019031D02*
X39627874Y-49794031D01*
%TO.N,Thermos_Out_2*%
X21609244Y-42019031D02*
X32984244Y-42019031D01*
X39959244Y-48994031D02*
X84359244Y-48994031D01*
X32984244Y-42019031D02*
X39959244Y-48994031D01*
X84359244Y-48994031D02*
X98509244Y-34844031D01*
%TO.N,SCL*%
X140988393Y-62214882D02*
X141609244Y-61594031D01*
X22428624Y-62214882D02*
X140988393Y-62214882D01*
%TO.N,MOSI*%
X33734244Y-54344031D02*
X34959244Y-55569031D01*
X33734244Y-51819031D02*
X33734244Y-54344031D01*
X33234244Y-51294031D02*
X33234244Y-51319031D01*
X33234244Y-51319031D02*
X33734244Y-51819031D01*
%TO.N,SCLK*%
X35334244Y-54144031D02*
X35334244Y-50594031D01*
X35334244Y-50594031D02*
X34834244Y-50094031D01*
X36734244Y-55544031D02*
X35334244Y-54144031D01*
%TO.N,MISO*%
X34234244Y-49994031D02*
X34234244Y-53994031D01*
X34234244Y-53994031D02*
X35834244Y-55594031D01*
X32759244Y-48794031D02*
X33034244Y-48794031D01*
X33034244Y-48794031D02*
X34234244Y-49994031D01*
%TO.N,~{INT}*%
X29934244Y-47969031D02*
X29934244Y-51392561D01*
X29934244Y-51392561D02*
X34047479Y-55505796D01*
X30409244Y-47494031D02*
X29934244Y-47969031D01*
%TO.N,Thermos_Out_4*%
X116032773Y-51269031D02*
X129209244Y-38092560D01*
X129209244Y-38092560D02*
X129209244Y-34869031D01*
X129209244Y-34869031D02*
X129184244Y-34844031D01*
X38840128Y-51269031D02*
X116032773Y-51269031D01*
X33424686Y-45853589D02*
X38840128Y-51269031D01*
%TO.N,ESP_IO0*%
X17634244Y-31649957D02*
X17634244Y-18144031D01*
X21606281Y-35621994D02*
X17634244Y-31649957D01*
%TO.N,Thermos_In_1*%
X21009244Y-41770502D02*
X21360715Y-41419031D01*
X21009244Y-42019031D02*
X21009244Y-41770502D01*
X71318558Y-39944031D02*
X71968559Y-40594031D01*
X20234244Y-42867560D02*
X20234244Y-42370502D01*
X71968559Y-40594031D02*
X80859244Y-40594031D01*
X55649930Y-39944031D02*
X71318558Y-39944031D01*
X16709244Y-42119031D02*
X17634244Y-43044031D01*
X52549930Y-43044031D02*
X55649930Y-39944031D01*
X80859244Y-40594031D02*
X83609244Y-37844031D01*
X17634244Y-43044031D02*
X20410715Y-43044031D01*
X21857773Y-41419031D02*
X22057774Y-41619031D01*
X34574931Y-43044031D02*
X52549930Y-43044031D01*
X33149930Y-41619031D02*
X34574931Y-43044031D01*
X21360715Y-41419031D02*
X21857773Y-41419031D01*
X20234244Y-42370502D02*
X20585715Y-42019031D01*
X20585715Y-42019031D02*
X21009244Y-42019031D01*
X20410715Y-43044031D02*
X20234244Y-42867560D01*
X22057774Y-41619031D02*
X33149930Y-41619031D01*
%TO.N,Thermos_Out_1*%
X71484244Y-39544031D02*
X72134244Y-40194031D01*
X22223459Y-41219031D02*
X33315616Y-41219031D01*
X34740616Y-42644031D02*
X52384244Y-42644031D01*
X16409244Y-39394031D02*
X17209244Y-40194031D01*
X33315616Y-41219031D02*
X34740616Y-42644031D01*
X19093558Y-41219031D02*
X20995029Y-41219031D01*
X15759244Y-39394031D02*
X16409244Y-39394031D01*
X20995029Y-41219031D02*
X21195030Y-41019031D01*
X22023458Y-41019031D02*
X22223459Y-41219031D01*
X17209244Y-40194031D02*
X18068558Y-40194031D01*
X21195030Y-41019031D02*
X22023458Y-41019031D01*
X55484244Y-39544031D02*
X71484244Y-39544031D01*
X72134244Y-40194031D02*
X78309244Y-40194031D01*
X52384244Y-42644031D02*
X55484244Y-39544031D01*
X18068558Y-40194031D02*
X19093558Y-41219031D01*
X78309244Y-40194031D02*
X83659244Y-34844031D01*
%TO.N,USB_D+*%
X23871744Y-23656531D02*
X23759244Y-23544031D01*
X25084244Y-24319031D02*
X24534244Y-24319031D01*
X24534244Y-24319031D02*
X23871744Y-23656531D01*
%TO.N,/thermische motor 2/RelayHot*%
D28*
X61959244Y-85319031D02*
X61959244Y-88959244D01*
X69509244Y-94869031D02*
X79959244Y-94869031D01*
X61900000Y-85378275D02*
X61959244Y-85319031D01*
X72160000Y-92218275D02*
X72160000Y-89000000D01*
X79959244Y-94869031D02*
X82320000Y-92508275D01*
X62000000Y-89000000D02*
X62000000Y-92159787D01*
X69509244Y-94869031D02*
X72160000Y-92218275D01*
X61959244Y-88959244D02*
X62000000Y-89000000D01*
X62000000Y-92159787D02*
X64709244Y-94869031D01*
X64709244Y-94869031D02*
X69509244Y-94869031D01*
X82320000Y-92508275D02*
X82320000Y-89000000D01*
%TO.N,Net-(U3-RXP)*%
D30*
X63934244Y-37970896D02*
X63987416Y-37917724D01*
X63987416Y-37917724D02*
X64252812Y-37917724D01*
X64252812Y-37917724D02*
X64750380Y-37420156D01*
X64750380Y-37420156D02*
X64750380Y-35185167D01*
X64750380Y-35185167D02*
X64334244Y-34769031D01*
%TO.N,Net-(J9-RD+)*%
X66544244Y-28879031D02*
X66234244Y-28879031D01*
%TO.N,/thermische motor 7/RelayHot*%
D28*
X185150000Y-89000000D02*
X185150000Y-92859787D01*
X187159244Y-94869031D02*
X192509244Y-94869031D01*
X185075000Y-85353275D02*
X185134244Y-85294031D01*
X185150000Y-92859787D02*
X187159244Y-94869031D01*
X192509244Y-94869031D02*
X195310000Y-92068275D01*
X185134244Y-88984244D02*
X185150000Y-89000000D01*
X185134244Y-85294031D02*
X185134244Y-88984244D01*
X195310000Y-92068275D02*
X195310000Y-89000000D01*
%TO.N,/thermische motor 6/RelayHot*%
X162534244Y-85269031D02*
X162534244Y-88984244D01*
X165134244Y-94869031D02*
X169884244Y-94869031D01*
X169884244Y-94869031D02*
X172710000Y-92043275D01*
X172710000Y-92043275D02*
X172710000Y-89000000D01*
X162534244Y-88984244D02*
X162550000Y-89000000D01*
X162550000Y-92284787D02*
X165134244Y-94869031D01*
X162475000Y-85328275D02*
X162534244Y-85269031D01*
X162550000Y-89000000D02*
X162550000Y-92284787D01*
%TO.N,/thermische motor 1/RelayHot*%
X39413759Y-91719031D02*
X42563759Y-94869031D01*
X19100000Y-85353275D02*
X19159244Y-85294031D01*
X46509244Y-94869031D02*
X49580000Y-91798275D01*
X39413759Y-89009244D02*
X39413759Y-91719031D01*
X19109244Y-89009244D02*
X19109244Y-91719031D01*
X29234244Y-88984244D02*
X29234244Y-91694031D01*
X19100000Y-89000000D02*
X19109244Y-89009244D01*
X19100000Y-89000000D02*
X19100000Y-85353275D01*
X22259244Y-94869031D02*
X46509244Y-94869031D01*
X19109244Y-91719031D02*
X22259244Y-94869031D01*
X29234244Y-91694031D02*
X32384244Y-94844031D01*
X49580000Y-91798275D02*
X49580000Y-89000000D01*
%TO.N,Net-(D10-K)*%
D29*
X184524244Y-30352411D02*
X183303129Y-31573526D01*
X185724244Y-23773526D02*
X185724244Y-24629031D01*
X185724244Y-24629031D02*
X184484244Y-25869031D01*
X184484244Y-25869031D02*
X184484244Y-30392411D01*
X184484244Y-30392411D02*
X183303129Y-31573526D01*
%TO.N,Net-(J9-TD+)*%
D30*
X65809244Y-37944031D02*
X65809244Y-35248878D01*
X65809244Y-35248878D02*
X66289091Y-34769031D01*
%TO.N,Boiler_Out*%
X23595667Y-60088297D02*
X97964978Y-60088297D01*
X97964978Y-60088297D02*
X102409244Y-55644031D01*
X102409244Y-55644031D02*
X177584244Y-55644031D01*
X23395667Y-60288297D02*
X23595667Y-60088297D01*
X177584244Y-55644031D02*
X183034244Y-50194031D01*
%TO.N,Boiler_In*%
X184658932Y-47287367D02*
X189609244Y-47287367D01*
X97799292Y-59688297D02*
X102243558Y-55244031D01*
X22829980Y-59688297D02*
X97799292Y-59688297D01*
X102243558Y-55244031D02*
X176702268Y-55244031D01*
X176702268Y-55244031D02*
X184658932Y-47287367D01*
%TD*%
M02*
