%TF.GenerationSoftware,KiCad,Pcbnew,10.0.3*%
%TF.CreationDate,2026-06-09T23:17:27+02:00*%
%TF.ProjectId,OpenTherm,4f70656e-5468-4657-926d-2e6b69636164,rev?*%
%TF.SameCoordinates,Original*%
%TF.FileFunction,Legend,Bot*%
%TF.FilePolarity,Positive*%
%FSLAX46Y46*%
G04 Gerber Fmt 4.6, Leading zero omitted, Abs format (unit mm)*
G04 Created by KiCad (PCBNEW 10.0.3) date 2026-06-09 23:17:27*
%MOMM*%
%LPD*%
G01*
G04 APERTURE LIST*
G04 Aperture macros list*
%AMRoundRect*
0 Rectangle with rounded corners*
0 $1 Rounding radius*
0 $2 $3 $4 $5 $6 $7 $8 $9 X,Y pos of 4 corners*
0 Add a 4 corners polygon primitive as box body*
4,1,4,$2,$3,$4,$5,$6,$7,$8,$9,$2,$3,0*
0 Add four circle primitives for the rounded corners*
1,1,$1+$1,$2,$3*
1,1,$1+$1,$4,$5*
1,1,$1+$1,$6,$7*
1,1,$1+$1,$8,$9*
0 Add four rect primitives between the rounded corners*
20,1,$1+$1,$2,$3,$4,$5,0*
20,1,$1+$1,$4,$5,$6,$7,0*
20,1,$1+$1,$6,$7,$8,$9,0*
20,1,$1+$1,$8,$9,$2,$3,0*%
G04 Aperture macros list end*
%ADD10C,1.300000*%
%ADD11RoundRect,0.249999X0.790001X1.550001X-0.790001X1.550001X-0.790001X-1.550001X0.790001X-1.550001X0*%
%ADD12O,2.080000X3.600000*%
%ADD13C,2.100000*%
%ADD14C,2.700000*%
%ADD15C,3.000000*%
%ADD16R,3.000000X3.000000*%
%ADD17RoundRect,0.249999X-0.790001X-1.550001X0.790001X-1.550001X0.790001X1.550001X-0.790001X1.550001X0*%
%ADD18C,3.200000*%
%ADD19C,0.600000*%
%ADD20O,0.900000X2.000000*%
%ADD21O,0.900000X1.700000*%
%ADD22R,2.300000X2.000000*%
%ADD23O,2.300000X2.000000*%
%ADD24C,3.250000*%
%ADD25RoundRect,0.250500X0.499500X0.499500X-0.499500X0.499500X-0.499500X-0.499500X0.499500X-0.499500X0*%
%ADD26C,1.500000*%
%ADD27C,2.500000*%
G04 APERTURE END LIST*
%LPC*%
D10*
%TO.C,REF\u002A\u002A*%
X229709244Y-24069031D03*
%TD*%
%TO.C,REF\u002A\u002A*%
X17209244Y-93269031D03*
%TD*%
%TO.C,REF\u002A\u002A*%
X14434244Y-24069031D03*
%TD*%
D11*
%TO.C,J5*%
X143314244Y-20151026D03*
D12*
X138234244Y-20151026D03*
%TD*%
D13*
%TO.C,J22*%
X117339251Y-66794031D03*
X117339251Y-78294031D03*
X117339251Y-85294031D03*
X122039251Y-66794031D03*
%TD*%
%TO.C,J23*%
X139959244Y-66794031D03*
X139959244Y-78294031D03*
X139959244Y-85294031D03*
X144659244Y-66794031D03*
%TD*%
%TO.C,J21*%
X94734244Y-66794031D03*
X94734244Y-78294031D03*
X94734244Y-85294031D03*
X99434244Y-66794031D03*
%TD*%
D11*
%TO.C,J2*%
X98314244Y-20151026D03*
D12*
X93234244Y-20151026D03*
%TD*%
D14*
%TO.C,F1*%
X221250000Y-81000000D03*
D15*
X210000000Y-81000000D03*
X232500000Y-81000000D03*
%TD*%
D11*
%TO.C,J8*%
X173314244Y-20151026D03*
D12*
X168234244Y-20151026D03*
%TD*%
D16*
%TO.C,J17*%
X237234244Y-50869031D03*
D15*
X237234244Y-45869031D03*
X237234244Y-40869031D03*
X237234244Y-35869031D03*
%TD*%
D17*
%TO.C,J11*%
X94747359Y-89000000D03*
D12*
X99827359Y-89000000D03*
X104907359Y-89000000D03*
X109987359Y-89000000D03*
%TD*%
D17*
%TO.C,J10*%
X62000000Y-89000000D03*
D12*
X67080000Y-89000000D03*
X72160000Y-89000000D03*
X77240000Y-89000000D03*
X82320000Y-89000000D03*
X87400000Y-89000000D03*
%TD*%
D13*
%TO.C,J26*%
X185134244Y-66794031D03*
X185134244Y-78294031D03*
X185134244Y-85294031D03*
X189834244Y-66794031D03*
%TD*%
%TO.C,J25*%
X162534244Y-66769031D03*
X162534244Y-78269031D03*
X162534244Y-85269031D03*
X167234244Y-66769031D03*
%TD*%
D11*
%TO.C,J4*%
X128314244Y-20151026D03*
D12*
X123234244Y-20151026D03*
%TD*%
D13*
%TO.C,J19*%
X19159244Y-66794031D03*
X19159244Y-78294031D03*
X19159244Y-85294031D03*
X23859244Y-66794031D03*
%TD*%
%TO.C,J20*%
X61959244Y-66819031D03*
X61959244Y-78319031D03*
X61959244Y-85319031D03*
X66659244Y-66819031D03*
%TD*%
D17*
%TO.C,J13*%
X139950000Y-89000000D03*
D12*
X145030000Y-89000000D03*
X150110000Y-89000000D03*
X155190000Y-89000000D03*
%TD*%
D18*
%TO.C,H4*%
X235000000Y-91000000D03*
%TD*%
D19*
%TO.C,J18*%
X27724244Y-21494031D03*
X21944244Y-21494031D03*
D20*
X29154244Y-21974031D03*
D21*
X29154244Y-17804031D03*
D20*
X20514244Y-21974031D03*
D21*
X20514244Y-17804031D03*
%TD*%
D22*
%TO.C,PS1*%
X208976744Y-71226531D03*
D23*
X217976744Y-71226531D03*
X199976744Y-20226531D03*
X226976744Y-20226531D03*
%TD*%
D11*
%TO.C,J3*%
X113314244Y-20151026D03*
D12*
X108234244Y-20151026D03*
%TD*%
D17*
%TO.C,J12*%
X117359244Y-89000000D03*
D12*
X122439244Y-89000000D03*
X127519244Y-89000000D03*
X132599244Y-89000000D03*
%TD*%
D11*
%TO.C,J24*%
X188174244Y-20146531D03*
D12*
X183094244Y-20146531D03*
%TD*%
D18*
%TO.C,H1*%
X11500000Y-21000000D03*
%TD*%
D17*
%TO.C,J14*%
X162550000Y-89000000D03*
D12*
X167630000Y-89000000D03*
X172710000Y-89000000D03*
X177790000Y-89000000D03*
%TD*%
D11*
%TO.C,J6*%
X158314244Y-20151026D03*
D12*
X153234244Y-20151026D03*
%TD*%
D17*
%TO.C,J15*%
X185150000Y-89000000D03*
D12*
X190230000Y-89000000D03*
X195310000Y-89000000D03*
X200390000Y-89000000D03*
%TD*%
D18*
%TO.C,H2*%
X235000000Y-21000000D03*
%TD*%
D24*
%TO.C,J9*%
X70049244Y-22519031D03*
X58619244Y-22519031D03*
D25*
X68774244Y-28879031D03*
D26*
X67514244Y-31419031D03*
X66234244Y-28879031D03*
X64974244Y-31419031D03*
X63694244Y-28879031D03*
X62434244Y-31419031D03*
X61154244Y-28879031D03*
X59894244Y-31419031D03*
X70959244Y-17619031D03*
X68419244Y-17619031D03*
X60249244Y-17619031D03*
X57709244Y-17619031D03*
D27*
X72079244Y-25569031D03*
X56589244Y-25569031D03*
%TD*%
D17*
%TO.C,J7*%
X210020000Y-89000000D03*
D12*
X215100000Y-89000000D03*
X220180000Y-89000000D03*
%TD*%
D18*
%TO.C,H3*%
X11500000Y-91000000D03*
%TD*%
D11*
%TO.C,J1*%
X83314244Y-20151026D03*
D12*
X78234244Y-20151026D03*
%TD*%
D17*
%TO.C,J16*%
X19100000Y-89000000D03*
D12*
X24180000Y-89000000D03*
X29260000Y-89000000D03*
X34340000Y-89000000D03*
X39420000Y-89000000D03*
X44500000Y-89000000D03*
X49580000Y-89000000D03*
X54660000Y-89000000D03*
%TD*%
%LPD*%
M02*
