%TF.GenerationSoftware,KiCad,Pcbnew,9.0.0*%
%TF.CreationDate,2025-03-30T22:45:24+02:00*%
%TF.ProjectId,OpenTherm,4f70656e-5468-4657-926d-2e6b69636164,rev?*%
%TF.SameCoordinates,Original*%
%TF.FileFunction,Paste,Top*%
%TF.FilePolarity,Positive*%
%FSLAX46Y46*%
G04 Gerber Fmt 4.6, Leading zero omitted, Abs format (unit mm)*
G04 Created by KiCad (PCBNEW 9.0.0) date 2025-03-30 22:45:24*
%MOMM*%
%LPD*%
G01*
G04 APERTURE LIST*
G04 Aperture macros list*
%AMRoundRect*
0 Rectangle with rounded corners*
0 $1 Rounding radius*
0 $2 $3 $4 $5 $6 $7 $8 $9 X,Y pos of 4 corners*
0 Add a 4 corners polygon primitive as box body*
4,1,4,$2,$3,$4,$5,$6,$7,$8,$9,$2,$3,0*
0 Add four circle primitives for the rounded corners*
1,1,$1+$1,$2,$3*
1,1,$1+$1,$4,$5*
1,1,$1+$1,$6,$7*
1,1,$1+$1,$8,$9*
0 Add four rect primitives between the rounded corners*
20,1,$1+$1,$2,$3,$4,$5,0*
20,1,$1+$1,$4,$5,$6,$7,0*
20,1,$1+$1,$6,$7,$8,$9,0*
20,1,$1+$1,$8,$9,$2,$3,0*%
G04 Aperture macros list end*
%ADD10RoundRect,0.250000X-1.950000X-1.000000X1.950000X-1.000000X1.950000X1.000000X-1.950000X1.000000X0*%
%ADD11RoundRect,0.150000X0.150000X-0.587500X0.150000X0.587500X-0.150000X0.587500X-0.150000X-0.587500X0*%
%ADD12RoundRect,0.150000X0.587500X0.150000X-0.587500X0.150000X-0.587500X-0.150000X0.587500X-0.150000X0*%
%ADD13RoundRect,0.250000X-0.350000X-0.450000X0.350000X-0.450000X0.350000X0.450000X-0.350000X0.450000X0*%
%ADD14RoundRect,0.150000X-0.587500X-0.150000X0.587500X-0.150000X0.587500X0.150000X-0.587500X0.150000X0*%
%ADD15RoundRect,0.250000X0.350000X0.450000X-0.350000X0.450000X-0.350000X-0.450000X0.350000X-0.450000X0*%
%ADD16RoundRect,0.250000X0.337500X0.475000X-0.337500X0.475000X-0.337500X-0.475000X0.337500X-0.475000X0*%
%ADD17RoundRect,0.250000X0.325000X0.450000X-0.325000X0.450000X-0.325000X-0.450000X0.325000X-0.450000X0*%
%ADD18RoundRect,0.250000X-0.325000X-0.450000X0.325000X-0.450000X0.325000X0.450000X-0.325000X0.450000X0*%
%ADD19RoundRect,0.250000X-1.250000X-0.550000X1.250000X-0.550000X1.250000X0.550000X-1.250000X0.550000X0*%
%ADD20R,1.150000X1.650000*%
%ADD21RoundRect,0.250000X0.250000X0.250000X-0.250000X0.250000X-0.250000X-0.250000X0.250000X-0.250000X0*%
%ADD22RoundRect,0.250000X-0.250000X-0.250000X0.250000X-0.250000X0.250000X0.250000X-0.250000X0.250000X0*%
%ADD23RoundRect,0.250000X1.250000X0.550000X-1.250000X0.550000X-1.250000X-0.550000X1.250000X-0.550000X0*%
%ADD24RoundRect,0.250000X-0.337500X-0.475000X0.337500X-0.475000X0.337500X0.475000X-0.337500X0.475000X0*%
%ADD25R,1.550000X2.100000*%
%ADD26R,3.493999X0.964400*%
%ADD27R,10.363200X10.718800*%
G04 APERTURE END LIST*
D10*
%TO.C,C3*%
X185700000Y-20800000D03*
X178300000Y-20800000D03*
%TD*%
D11*
%TO.C,Q35*%
X89770340Y-67709302D03*
X91670340Y-67709302D03*
X90720340Y-65834302D03*
%TD*%
D12*
%TO.C,Q30*%
X110088615Y-44473526D03*
X110088615Y-42573526D03*
X108213615Y-43523526D03*
%TD*%
%TO.C,Q8*%
X65088615Y-40973526D03*
X65088615Y-39073526D03*
X63213615Y-40023526D03*
%TD*%
D13*
%TO.C,R41*%
X109421115Y-29473526D03*
X111421115Y-29473526D03*
%TD*%
D12*
%TO.C,Q4*%
X39128615Y-40973526D03*
X39128615Y-39073526D03*
X37253615Y-40023526D03*
%TD*%
D11*
%TO.C,Q33*%
X24929834Y-67446191D03*
X26829834Y-67446191D03*
X25879834Y-65571191D03*
%TD*%
D14*
%TO.C,Q12*%
X52253615Y-31523526D03*
X52253615Y-33423526D03*
X54128615Y-32473526D03*
%TD*%
D15*
%TO.C,R57*%
X26729834Y-71471191D03*
X24729834Y-71471191D03*
%TD*%
D16*
%TO.C,R55*%
X20558615Y-56173526D03*
X18483615Y-56173526D03*
%TD*%
D17*
%TO.C,D29*%
X182095340Y-61834302D03*
X180045340Y-61834302D03*
%TD*%
D13*
%TO.C,R65*%
X157350000Y-69720000D03*
X159350000Y-69720000D03*
%TD*%
D18*
%TO.C,D4*%
X78196115Y-46873526D03*
X80246115Y-46873526D03*
%TD*%
D19*
%TO.C,C2*%
X189200000Y-54400000D03*
X193600000Y-54400000D03*
%TD*%
D17*
%TO.C,D26*%
X91595340Y-61834302D03*
X89545340Y-61834302D03*
%TD*%
D18*
%TO.C,D5*%
X93196115Y-46873526D03*
X95246115Y-46873526D03*
%TD*%
D13*
%TO.C,R68*%
X124421115Y-29473526D03*
X126421115Y-29473526D03*
%TD*%
D15*
%TO.C,R14*%
X69121115Y-44773526D03*
X67121115Y-44773526D03*
%TD*%
%TO.C,R12*%
X69121115Y-35273526D03*
X67121115Y-35273526D03*
%TD*%
D13*
%TO.C,R67*%
X180070340Y-69734302D03*
X182070340Y-69734302D03*
%TD*%
D15*
%TO.C,R73*%
X129121115Y-44773526D03*
X127121115Y-44773526D03*
%TD*%
D12*
%TO.C,Q26*%
X110096115Y-33423526D03*
X110096115Y-31523526D03*
X108221115Y-32473526D03*
%TD*%
D15*
%TO.C,R51*%
X114350000Y-71774302D03*
X112350000Y-71774302D03*
%TD*%
%TO.C,R28*%
X84121115Y-35273526D03*
X82121115Y-35273526D03*
%TD*%
D12*
%TO.C,Q13*%
X50088615Y-40973526D03*
X50088615Y-39073526D03*
X48213615Y-40023526D03*
%TD*%
D15*
%TO.C,R74*%
X129121115Y-42773526D03*
X127121115Y-42773526D03*
%TD*%
D11*
%TO.C,Q31*%
X57050000Y-67695000D03*
X58950000Y-67695000D03*
X58000000Y-65820000D03*
%TD*%
D13*
%TO.C,R40*%
X97121115Y-46873526D03*
X99121115Y-46873526D03*
%TD*%
%TO.C,R50*%
X56850000Y-69720000D03*
X58850000Y-69720000D03*
%TD*%
D20*
%TO.C,D9*%
X23146115Y-29773526D03*
X26446115Y-29773526D03*
%TD*%
D21*
%TO.C,D12*%
X24828615Y-38673526D03*
X22328615Y-38673526D03*
%TD*%
D14*
%TO.C,Q22*%
X97253615Y-31523526D03*
X97253615Y-33423526D03*
X99128615Y-32473526D03*
%TD*%
D13*
%TO.C,R23*%
X52121115Y-46873526D03*
X54121115Y-46873526D03*
%TD*%
D12*
%TO.C,Q20*%
X80088615Y-44473526D03*
X80088615Y-42573526D03*
X78213615Y-43523526D03*
%TD*%
D15*
%TO.C,R43*%
X110221115Y-37273526D03*
X108221115Y-37273526D03*
%TD*%
D13*
%TO.C,R59*%
X112350000Y-69774302D03*
X114350000Y-69774302D03*
%TD*%
D18*
%TO.C,D22*%
X123196115Y-46873526D03*
X125246115Y-46873526D03*
%TD*%
D22*
%TO.C,D13*%
X22328615Y-40673526D03*
X24828615Y-40673526D03*
%TD*%
D14*
%TO.C,Q27*%
X112253615Y-31523526D03*
X112253615Y-33423526D03*
X114128615Y-32473526D03*
%TD*%
D15*
%TO.C,R46*%
X114121115Y-44773526D03*
X112121115Y-44773526D03*
%TD*%
%TO.C,R38*%
X99121115Y-44773526D03*
X97121115Y-44773526D03*
%TD*%
%TO.C,R15*%
X69121115Y-42773526D03*
X67121115Y-42773526D03*
%TD*%
D12*
%TO.C,Q15*%
X50088615Y-44473526D03*
X50088615Y-42573526D03*
X48213615Y-43523526D03*
%TD*%
D15*
%TO.C,R22*%
X54121115Y-42773526D03*
X52121115Y-42773526D03*
%TD*%
%TO.C,R36*%
X99121115Y-35273526D03*
X97121115Y-35273526D03*
%TD*%
D23*
%TO.C,C1*%
X193600000Y-29000000D03*
X189200000Y-29000000D03*
%TD*%
D18*
%TO.C,D23*%
X24704834Y-61571191D03*
X26754834Y-61571191D03*
%TD*%
D15*
%TO.C,R13*%
X69121115Y-37273526D03*
X67121115Y-37273526D03*
%TD*%
%TO.C,R21*%
X54121115Y-44773526D03*
X52121115Y-44773526D03*
%TD*%
%TO.C,R5*%
X39121115Y-37273526D03*
X37121115Y-37273526D03*
%TD*%
D13*
%TO.C,R2*%
X33221115Y-35273526D03*
X35221115Y-35273526D03*
%TD*%
D15*
%TO.C,R39*%
X99121115Y-42773526D03*
X97121115Y-42773526D03*
%TD*%
D12*
%TO.C,Q16*%
X80096115Y-33423526D03*
X80096115Y-31523526D03*
X78221115Y-32473526D03*
%TD*%
D17*
%TO.C,D25*%
X114375000Y-61874302D03*
X112325000Y-61874302D03*
%TD*%
D22*
%TO.C,D11*%
X18146115Y-38673526D03*
X20646115Y-38673526D03*
%TD*%
D24*
%TO.C,R53*%
X18483615Y-36673526D03*
X20558615Y-36673526D03*
%TD*%
D25*
%TO.C,Q45*%
X19941115Y-45148526D03*
X17401115Y-45148526D03*
X17401115Y-53748526D03*
X19941115Y-53748526D03*
%TD*%
D13*
%TO.C,R79*%
X89570340Y-63834302D03*
X91570340Y-63834302D03*
%TD*%
D14*
%TO.C,Q2*%
X37253615Y-31523526D03*
X37253615Y-33423526D03*
X39128615Y-32473526D03*
%TD*%
D12*
%TO.C,Q39*%
X125096115Y-33423526D03*
X125096115Y-31523526D03*
X123221115Y-32473526D03*
%TD*%
D17*
%TO.C,D24*%
X58875000Y-61820000D03*
X56825000Y-61820000D03*
%TD*%
D11*
%TO.C,Q36*%
X135050000Y-67709302D03*
X136950000Y-67709302D03*
X136000000Y-65834302D03*
%TD*%
D12*
%TO.C,Q9*%
X69128615Y-40973526D03*
X69128615Y-39073526D03*
X67253615Y-40023526D03*
%TD*%
D15*
%TO.C,R30*%
X84121115Y-44773526D03*
X82121115Y-44773526D03*
%TD*%
D18*
%TO.C,D3*%
X63196115Y-46873526D03*
X65246115Y-46873526D03*
%TD*%
D13*
%TO.C,R78*%
X112350000Y-63874302D03*
X114350000Y-63874302D03*
%TD*%
D17*
%TO.C,D27*%
X136875000Y-61834302D03*
X134825000Y-61834302D03*
%TD*%
D15*
%TO.C,R47*%
X114121115Y-42773526D03*
X112121115Y-42773526D03*
%TD*%
%TO.C,R66*%
X182070340Y-71734302D03*
X180070340Y-71734302D03*
%TD*%
D12*
%TO.C,Q1*%
X35096115Y-33423526D03*
X35096115Y-31523526D03*
X33221115Y-32473526D03*
%TD*%
%TO.C,Q23*%
X95088615Y-40973526D03*
X95088615Y-39073526D03*
X93213615Y-40023526D03*
%TD*%
D14*
%TO.C,Q40*%
X127253615Y-31523526D03*
X127253615Y-33423526D03*
X129128615Y-32473526D03*
%TD*%
D15*
%TO.C,R62*%
X136850000Y-71734302D03*
X134850000Y-71734302D03*
%TD*%
%TO.C,R60*%
X91570340Y-71734302D03*
X89570340Y-71734302D03*
%TD*%
%TO.C,R20*%
X54121115Y-37273526D03*
X52121115Y-37273526D03*
%TD*%
%TO.C,R35*%
X95221115Y-37273526D03*
X93221115Y-37273526D03*
%TD*%
%TO.C,R44*%
X114121115Y-35273526D03*
X112121115Y-35273526D03*
%TD*%
%TO.C,R7*%
X39121115Y-42773526D03*
X37121115Y-42773526D03*
%TD*%
D12*
%TO.C,Q18*%
X80088615Y-40973526D03*
X80088615Y-39073526D03*
X78213615Y-40023526D03*
%TD*%
D13*
%TO.C,R75*%
X127121115Y-46873526D03*
X129121115Y-46873526D03*
%TD*%
%TO.C,R58*%
X24729834Y-69471191D03*
X26729834Y-69471191D03*
%TD*%
D15*
%TO.C,R37*%
X99121115Y-37273526D03*
X97121115Y-37273526D03*
%TD*%
D18*
%TO.C,D6*%
X108196115Y-46873526D03*
X110246115Y-46873526D03*
%TD*%
D12*
%TO.C,Q28*%
X110088615Y-40973526D03*
X110088615Y-39073526D03*
X108213615Y-40023526D03*
%TD*%
D13*
%TO.C,R77*%
X56850000Y-63820000D03*
X58850000Y-63820000D03*
%TD*%
D12*
%TO.C,Q41*%
X125088615Y-40973526D03*
X125088615Y-39073526D03*
X123213615Y-40023526D03*
%TD*%
D20*
%TO.C,D15*%
X26446115Y-33573526D03*
X23146115Y-33573526D03*
%TD*%
D15*
%TO.C,R6*%
X39121115Y-44773526D03*
X37121115Y-44773526D03*
%TD*%
D12*
%TO.C,Q32*%
X20413615Y-42373526D03*
X20413615Y-40473526D03*
X18538615Y-41423526D03*
%TD*%
D15*
%TO.C,R72*%
X129121115Y-37273526D03*
X127121115Y-37273526D03*
%TD*%
D16*
%TO.C,R54*%
X24496115Y-42673526D03*
X22421115Y-42673526D03*
%TD*%
D17*
%TO.C,D28*%
X159375000Y-61820000D03*
X157325000Y-61820000D03*
%TD*%
D15*
%TO.C,R70*%
X125221115Y-37273526D03*
X123221115Y-37273526D03*
%TD*%
%TO.C,R11*%
X65221115Y-37273526D03*
X63221115Y-37273526D03*
%TD*%
D13*
%TO.C,R82*%
X180070340Y-63834302D03*
X182070340Y-63834302D03*
%TD*%
D15*
%TO.C,R18*%
X50221115Y-37273526D03*
X48221115Y-37273526D03*
%TD*%
%TO.C,R3*%
X35221115Y-37273526D03*
X33221115Y-37273526D03*
%TD*%
D11*
%TO.C,Q34*%
X112550000Y-67749302D03*
X114450000Y-67749302D03*
X113500000Y-65874302D03*
%TD*%
D12*
%TO.C,Q25*%
X95088615Y-44473526D03*
X95088615Y-42573526D03*
X93213615Y-43523526D03*
%TD*%
D13*
%TO.C,R33*%
X94421115Y-29473526D03*
X96421115Y-29473526D03*
%TD*%
D12*
%TO.C,Q42*%
X129128615Y-40973526D03*
X129128615Y-39073526D03*
X127253615Y-40023526D03*
%TD*%
D13*
%TO.C,R80*%
X134850000Y-63834302D03*
X136850000Y-63834302D03*
%TD*%
D12*
%TO.C,Q24*%
X99128615Y-40973526D03*
X99128615Y-39073526D03*
X97253615Y-40023526D03*
%TD*%
D13*
%TO.C,R48*%
X112121115Y-46873526D03*
X114121115Y-46873526D03*
%TD*%
%TO.C,R16*%
X49421115Y-29473526D03*
X51421115Y-29473526D03*
%TD*%
D24*
%TO.C,R52*%
X22421115Y-36673526D03*
X24496115Y-36673526D03*
%TD*%
D13*
%TO.C,R25*%
X79421115Y-29473526D03*
X81421115Y-29473526D03*
%TD*%
D15*
%TO.C,R56*%
X20551115Y-58173526D03*
X18551115Y-58173526D03*
%TD*%
D20*
%TO.C,D8*%
X19846115Y-29773526D03*
X16546115Y-29773526D03*
%TD*%
D12*
%TO.C,Q21*%
X95096115Y-33423526D03*
X95096115Y-31523526D03*
X93221115Y-32473526D03*
%TD*%
D13*
%TO.C,R81*%
X157350000Y-63820000D03*
X159350000Y-63820000D03*
%TD*%
%TO.C,R34*%
X93221115Y-35273526D03*
X95221115Y-35273526D03*
%TD*%
%TO.C,R1*%
X34421115Y-29473526D03*
X36421115Y-29473526D03*
%TD*%
%TO.C,R8*%
X37121115Y-46873526D03*
X39121115Y-46873526D03*
%TD*%
D11*
%TO.C,Q38*%
X180270340Y-67709302D03*
X182170340Y-67709302D03*
X181220340Y-65834302D03*
%TD*%
D15*
%TO.C,R31*%
X84121115Y-42773526D03*
X82121115Y-42773526D03*
%TD*%
D13*
%TO.C,R17*%
X48221115Y-35273526D03*
X50221115Y-35273526D03*
%TD*%
D15*
%TO.C,R49*%
X58850000Y-71720000D03*
X56850000Y-71720000D03*
%TD*%
D12*
%TO.C,Q29*%
X114128615Y-40973526D03*
X114128615Y-39073526D03*
X112253615Y-40023526D03*
%TD*%
%TO.C,Q10*%
X65088615Y-44473526D03*
X65088615Y-42573526D03*
X63213615Y-43523526D03*
%TD*%
D25*
%TO.C,Q44*%
X25561115Y-45148526D03*
X23021115Y-45148526D03*
X23021115Y-53748526D03*
X25561115Y-53748526D03*
%TD*%
D15*
%TO.C,R45*%
X114121115Y-37273526D03*
X112121115Y-37273526D03*
%TD*%
D13*
%TO.C,R63*%
X134850000Y-69734302D03*
X136850000Y-69734302D03*
%TD*%
D20*
%TO.C,D7*%
X16546115Y-33573526D03*
X19846115Y-33573526D03*
%TD*%
D13*
%TO.C,R32*%
X82121115Y-46873526D03*
X84121115Y-46873526D03*
%TD*%
D12*
%TO.C,Q14*%
X54128615Y-40973526D03*
X54128615Y-39073526D03*
X52253615Y-40023526D03*
%TD*%
D18*
%TO.C,D2*%
X48196115Y-46873526D03*
X50246115Y-46873526D03*
%TD*%
D13*
%TO.C,R26*%
X78221115Y-35273526D03*
X80221115Y-35273526D03*
%TD*%
D15*
%TO.C,R29*%
X84121115Y-37273526D03*
X82121115Y-37273526D03*
%TD*%
D14*
%TO.C,Q7*%
X67253615Y-31523526D03*
X67253615Y-33423526D03*
X69128615Y-32473526D03*
%TD*%
D12*
%TO.C,Q11*%
X50096115Y-33423526D03*
X50096115Y-31523526D03*
X48221115Y-32473526D03*
%TD*%
D18*
%TO.C,D14*%
X22448615Y-56173526D03*
X24498615Y-56173526D03*
%TD*%
D15*
%TO.C,R27*%
X80221115Y-37273526D03*
X78221115Y-37273526D03*
%TD*%
D13*
%TO.C,R69*%
X123221115Y-35273526D03*
X125221115Y-35273526D03*
%TD*%
%TO.C,R24*%
X67121115Y-46873526D03*
X69121115Y-46873526D03*
%TD*%
D15*
%TO.C,R76*%
X26729834Y-63571191D03*
X24729834Y-63571191D03*
%TD*%
D18*
%TO.C,D1*%
X33196115Y-46873526D03*
X35246115Y-46873526D03*
%TD*%
D13*
%TO.C,R42*%
X108221115Y-35273526D03*
X110221115Y-35273526D03*
%TD*%
%TO.C,R61*%
X89570340Y-69734302D03*
X91570340Y-69734302D03*
%TD*%
D12*
%TO.C,Q3*%
X35088615Y-40973526D03*
X35088615Y-39073526D03*
X33213615Y-40023526D03*
%TD*%
D26*
%TO.C,U1*%
X193356000Y-44740000D03*
D27*
X183678600Y-42200000D03*
D26*
X193356000Y-42200000D03*
X193356000Y-39660000D03*
%TD*%
D11*
%TO.C,Q37*%
X157550000Y-67695000D03*
X159450000Y-67695000D03*
X158500000Y-65820000D03*
%TD*%
D15*
%TO.C,R4*%
X39121115Y-35273526D03*
X37121115Y-35273526D03*
%TD*%
%TO.C,R64*%
X159350000Y-71720000D03*
X157350000Y-71720000D03*
%TD*%
D12*
%TO.C,Q5*%
X35088615Y-44473526D03*
X35088615Y-42573526D03*
X33213615Y-43523526D03*
%TD*%
D15*
%TO.C,R71*%
X129121115Y-35273526D03*
X127121115Y-35273526D03*
%TD*%
D12*
%TO.C,Q43*%
X125088615Y-44473526D03*
X125088615Y-42573526D03*
X123213615Y-43523526D03*
%TD*%
D15*
%TO.C,R19*%
X54121115Y-35273526D03*
X52121115Y-35273526D03*
%TD*%
D14*
%TO.C,Q17*%
X82253615Y-31523526D03*
X82253615Y-33423526D03*
X84128615Y-32473526D03*
%TD*%
D13*
%TO.C,R10*%
X63221115Y-35273526D03*
X65221115Y-35273526D03*
%TD*%
D12*
%TO.C,Q6*%
X65096115Y-33423526D03*
X65096115Y-31523526D03*
X63221115Y-32473526D03*
%TD*%
D13*
%TO.C,R9*%
X64421115Y-29473526D03*
X66421115Y-29473526D03*
%TD*%
D12*
%TO.C,Q19*%
X84128615Y-40973526D03*
X84128615Y-39073526D03*
X82253615Y-40023526D03*
%TD*%
M02*
