M48
; DRILL file {KiCad 9.0.0} date 2025-03-30T22:44:26+0200
; FORMAT={-:-/ absolute / inch / decimal}
; #@! TF.CreationDate,2025-03-30T22:44:26+02:00
; #@! TF.GenerationSoftware,Kicad,Pcbnew,9.0.0
; #@! TF.FileFunction,Plated,1,2,PTH
FMAT,2
INCH
; #@! TA.AperFunction,Plated,PTH,ViaDrill
T1C0.0118
; #@! TA.AperFunction,Plated,PTH,ViaDrill
T2C0.0157
; #@! TA.AperFunction,Plated,PTH,ViaDrill
T3C0.0197
; #@! TA.AperFunction,Plated,PTH,ComponentDrill
T4C0.0354
; #@! TA.AperFunction,Plated,PTH,ComponentDrill
T5C0.0390
; #@! TA.AperFunction,Plated,PTH,ComponentDrill
T6C0.0512
; #@! TA.AperFunction,Plated,PTH,ComponentDrill
T7C0.0551
%
G90
G05
T1
X0.955Y-2.0881
X0.9561Y-2.1174
X0.9561Y-2.1456
X1.1024Y-2.6604
X1.1024Y-2.7362
X1.1024Y-2.8051
X1.2402Y-1.1516
X1.8307Y-1.1516
X2.3622Y-2.6703
X2.3622Y-2.7461
X2.3622Y-2.815
X2.4213Y-1.1516
X2.9921Y-2.372
X3.0118Y-1.1516
X3.0217Y-2.372
X3.6024Y-1.1516
X3.6516Y-2.6673
X3.6516Y-2.815
X3.9173Y-2.5984
X4.1929Y-1.1552
X4.5472Y-2.815
X4.7835Y-1.1516
X4.8228Y-2.5984
X5.4331Y-2.815
X5.502Y-2.7165
X6.3189Y-2.6624
X6.3189Y-2.7362
X6.3189Y-2.815
X6.795Y-0.7667
X6.795Y-0.8179
X6.795Y-0.8691
X6.8462Y-0.7667
X6.8462Y-0.8179
X6.8462Y-0.8691
X6.8543Y-2.2244
X6.8543Y-2.2559
X6.8973Y-0.7667
X6.8973Y-0.8179
X6.8973Y-0.8691
X6.8976Y-2.2244
X6.8976Y-2.2559
X7.2146Y-2.6673
X7.2146Y-2.7461
X7.2146Y-2.815
X7.563Y-1.8189
X7.563Y-1.8661
X7.563Y-1.9173
X7.563Y-1.9685
X7.563Y-2.0197
X7.563Y-2.0709
X7.6142Y-1.8189
X7.6142Y-1.8661
X7.6142Y-1.9173
X7.6142Y-1.9685
X7.6142Y-2.0197
X7.6142Y-2.0709
X7.6654Y-1.8189
X7.6654Y-1.8661
X7.6654Y-1.9173
X7.6654Y-1.9685
X7.6654Y-2.0197
X7.6654Y-2.0709
T2
X0.6859Y-1.7126
X0.748Y-1.5934
X0.8473Y-1.2391
X0.8473Y-1.3769
X0.8473Y-1.558
X0.9063Y-1.8504
X0.9418Y-1.558
X1.0236Y-1.5256
X1.3434Y-1.7942
X1.3801Y-1.7152
X1.4477Y-1.5285
X1.594Y-1.7722
X1.5945Y-1.4675
X1.9339Y-1.7942
X1.9678Y-1.7123
X2.0382Y-1.5285
X2.1801Y-1.7677
X2.185Y-1.4675
X2.5245Y-1.7942
X2.553Y-1.7126
X2.6288Y-1.5285
X2.7706Y-1.7677
X2.7756Y-1.4675
X3.115Y-1.7942
X3.1489Y-1.7123
X3.2193Y-1.5285
X3.3612Y-1.7677
X3.3661Y-1.4675
X3.7056Y-1.7942
X3.74Y-1.7128
X3.8099Y-1.5285
X3.9517Y-1.7677
X3.9567Y-1.4675
X4.2961Y-1.7942
X4.3305Y-1.7128
X4.4004Y-1.5285
X4.5467Y-1.7722
X4.5472Y-1.4675
X4.8867Y-1.7942
X4.9211Y-1.7128
X4.991Y-1.5285
X5.1339Y-1.7627
X5.1378Y-1.4675
T3
X5.792Y-1.5118
T4
X5.423Y-1.1428
X5.423Y-2.1428
X5.523Y-1.1428
X5.523Y-2.1428
X5.623Y-1.1428
X5.623Y-2.1428
X5.723Y-1.1428
X5.723Y-2.1428
X5.823Y-1.1428
X5.823Y-2.1428
X5.923Y-1.1428
X5.923Y-2.1428
X6.023Y-1.1428
X6.023Y-2.1428
X6.123Y-1.1428
X6.123Y-2.1428
X6.223Y-1.1428
X6.223Y-2.1428
X6.323Y-1.1428
X6.323Y-2.1428
X6.423Y-1.1428
X6.423Y-2.1428
X6.523Y-1.1428
X6.523Y-2.1428
X6.623Y-1.1428
X6.623Y-2.1428
X6.723Y-1.1428
X6.723Y-2.1428
X6.823Y-1.1428
X6.823Y-2.1428
X6.923Y-1.1428
X6.923Y-2.1428
X7.023Y-1.1428
X7.023Y-2.1428
X7.123Y-1.1428
X7.123Y-2.1428
X7.223Y-1.1428
X7.223Y-2.1428
T5
X0.752Y-2.4874
X0.752Y-2.5874
X0.752Y-2.9874
X0.752Y-3.2874
X2.4409Y-2.4874
X2.4409Y-2.5874
X2.4409Y-2.9874
X2.4409Y-3.2874
X3.7291Y-2.488
X3.7291Y-2.588
X3.7291Y-2.988
X3.7291Y-3.288
X4.626Y-2.488
X4.626Y-2.588
X4.626Y-2.988
X4.626Y-3.288
X5.5118Y-2.488
X5.5118Y-2.588
X5.5118Y-2.988
X5.5118Y-3.288
X6.3976Y-2.4874
X6.3976Y-2.5874
X6.3976Y-2.9874
X6.3976Y-3.2874
X7.2921Y-2.488
X7.2921Y-2.588
X7.2921Y-2.988
X7.2921Y-3.288
T6
X7.874Y-0.7874
X8.2283Y-2.7953
X8.2677Y-3.189
X8.5827Y-2.7953
X8.937Y-0.7874
X9.1535Y-3.189
X9.315Y-1.1654
X9.315Y-1.3622
X9.315Y-1.5591
X9.315Y-1.7559
T7
X0.752Y-3.5039
X0.7552Y-1.002
X0.952Y-3.5039
X0.9552Y-1.002
X1.152Y-3.5039
X1.3497Y-1.0059
X1.352Y-3.5039
X1.5497Y-1.0059
X1.552Y-3.5039
X1.752Y-3.5039
X1.9402Y-1.0059
X1.952Y-3.5039
X2.1402Y-1.0059
X2.152Y-3.5039
X2.4409Y-3.5039
X2.5308Y-1.0059
X2.6409Y-3.5039
X2.7308Y-1.0059
X2.8409Y-3.5039
X3.0409Y-3.5039
X3.1213Y-1.0059
X3.2409Y-3.5039
X3.3213Y-1.0059
X3.4409Y-3.5039
X3.7119Y-1.0059
X3.7303Y-3.5039
X3.9119Y-1.0059
X3.9303Y-3.5039
X4.1303Y-3.5039
X4.3024Y-1.0059
X4.3303Y-3.5039
X4.5024Y-1.0059
X4.6201Y-3.5039
X4.8201Y-3.5039
X4.893Y-1.0059
X5.0201Y-3.5039
X5.093Y-1.0059
X5.2201Y-3.5039
X5.5098Y-3.5039
X5.7098Y-3.5039
X5.9098Y-3.5039
X6.1098Y-3.5039
X6.3996Y-3.5039
X6.5996Y-3.5039
X6.7996Y-3.5039
X6.9996Y-3.5039
X7.2894Y-3.5039
X7.4894Y-3.5039
X7.6894Y-3.5039
X7.8894Y-3.5039
X8.2685Y-3.5039
X8.4685Y-3.5039
X8.6685Y-3.5039
M30
