%TF.GenerationSoftware,KiCad,Pcbnew,8.0.2*%
%TF.CreationDate,2025-02-06T19:01:43+01:00*%
%TF.ProjectId,OpenTherm,4f70656e-5468-4657-926d-2e6b69636164,rev?*%
%TF.SameCoordinates,Original*%
%TF.FileFunction,Drillmap*%
%TF.FilePolarity,Positive*%
%FSLAX45Y45*%
G04 Gerber Fmt 4.5, Leading zero omitted, Abs format (unit mm)*
G04 Created by KiCad (PCBNEW 8.0.2) date 2025-02-06 19:01:43*
%MOMM*%
%LPD*%
G01*
G04 APERTURE LIST*
%ADD10C,0.050000*%
%ADD11C,0.200000*%
%ADD12C,0.100000*%
%ADD13C,0.130000*%
%ADD14C,0.140000*%
G04 APERTURE END LIST*
D10*
X1150000Y-9875000D02*
G75*
G02*
X600000Y-9325000I0J550000D01*
G01*
X23500000Y-1550000D02*
G75*
G02*
X24050000Y-2100000I0J-550000D01*
G01*
X600000Y-2100000D02*
X600000Y-9325000D01*
X24050000Y-9325000D02*
G75*
G02*
X23500000Y-9875000I-550000J0D01*
G01*
X600000Y-2100000D02*
G75*
G02*
X1150000Y-1550000I550000J0D01*
G01*
X24050000Y-9325000D02*
X24050000Y-2100000D01*
X23500000Y-9875000D02*
X1150000Y-9875000D01*
X23500000Y-1550000D02*
X1150000Y-1550000D01*
D11*
D12*
X2410604Y-5288685D02*
X2440604Y-5318685D01*
X2440604Y-5288685D02*
X2410604Y-5318685D01*
X2413396Y-5363117D02*
X2443396Y-5393117D01*
X2443396Y-5363117D02*
X2413396Y-5393117D01*
X2413396Y-5434758D02*
X2443396Y-5464758D01*
X2443396Y-5434758D02*
X2413396Y-5464758D01*
X2785000Y-6742500D02*
X2815000Y-6772500D01*
X2815000Y-6742500D02*
X2785000Y-6772500D01*
X2785000Y-6935000D02*
X2815000Y-6965000D01*
X2815000Y-6935000D02*
X2785000Y-6965000D01*
X2785000Y-7110000D02*
X2815000Y-7140000D01*
X2815000Y-7110000D02*
X2785000Y-7140000D01*
X3135000Y-2910000D02*
X3165000Y-2940000D01*
X3165000Y-2910000D02*
X3135000Y-2940000D01*
X4635000Y-2910000D02*
X4665000Y-2940000D01*
X4665000Y-2910000D02*
X4635000Y-2940000D01*
X5985000Y-6767500D02*
X6015000Y-6797500D01*
X6015000Y-6767500D02*
X5985000Y-6797500D01*
X5985000Y-6960000D02*
X6015000Y-6990000D01*
X6015000Y-6960000D02*
X5985000Y-6990000D01*
X5985000Y-7135000D02*
X6015000Y-7165000D01*
X6015000Y-7135000D02*
X5985000Y-7165000D01*
X6135000Y-2910000D02*
X6165000Y-2940000D01*
X6165000Y-2910000D02*
X6135000Y-2940000D01*
X7585000Y-6010000D02*
X7615000Y-6040000D01*
X7615000Y-6010000D02*
X7585000Y-6040000D01*
X7635000Y-2910000D02*
X7665000Y-2940000D01*
X7665000Y-2910000D02*
X7635000Y-2940000D01*
X7660000Y-6010000D02*
X7690000Y-6040000D01*
X7690000Y-6010000D02*
X7660000Y-6040000D01*
X9135000Y-2910000D02*
X9165000Y-2940000D01*
X9165000Y-2910000D02*
X9135000Y-2940000D01*
X9260000Y-6760000D02*
X9290000Y-6790000D01*
X9290000Y-6760000D02*
X9260000Y-6790000D01*
X9260000Y-7135000D02*
X9290000Y-7165000D01*
X9290000Y-7135000D02*
X9260000Y-7165000D01*
X9935000Y-6585000D02*
X9965000Y-6615000D01*
X9965000Y-6585000D02*
X9935000Y-6615000D01*
X10635000Y-2919138D02*
X10665000Y-2949138D01*
X10665000Y-2919138D02*
X10635000Y-2949138D01*
X11535000Y-7135000D02*
X11565000Y-7165000D01*
X11565000Y-7135000D02*
X11535000Y-7165000D01*
X12135000Y-2910000D02*
X12165000Y-2940000D01*
X12165000Y-2910000D02*
X12135000Y-2940000D01*
X12235000Y-6585000D02*
X12265000Y-6615000D01*
X12265000Y-6585000D02*
X12235000Y-6615000D01*
X13785000Y-7135000D02*
X13815000Y-7165000D01*
X13815000Y-7135000D02*
X13785000Y-7165000D01*
X13960000Y-6885000D02*
X13990000Y-6915000D01*
X13990000Y-6885000D02*
X13960000Y-6915000D01*
X16035000Y-6747500D02*
X16065000Y-6777500D01*
X16065000Y-6747500D02*
X16035000Y-6777500D01*
X16035000Y-6935000D02*
X16065000Y-6965000D01*
X16065000Y-6935000D02*
X16035000Y-6965000D01*
X16035000Y-7135000D02*
X16065000Y-7165000D01*
X16065000Y-7135000D02*
X16035000Y-7165000D01*
X17387719Y-5602917D02*
X17417719Y-5632917D01*
X17417719Y-5602917D02*
X17387719Y-5632917D01*
X17387719Y-5677917D02*
X17417719Y-5707917D01*
X17417719Y-5677917D02*
X17387719Y-5707917D01*
X17387719Y-5752917D02*
X17417719Y-5782917D01*
X17417719Y-5752917D02*
X17387719Y-5782917D01*
X17487719Y-5602917D02*
X17517719Y-5632917D01*
X17517719Y-5602917D02*
X17487719Y-5632917D01*
X17487719Y-5677917D02*
X17517719Y-5707917D01*
X17517719Y-5677917D02*
X17487719Y-5707917D01*
X17487719Y-5752917D02*
X17517719Y-5782917D01*
X17517719Y-5752917D02*
X17487719Y-5782917D01*
X18310000Y-6760000D02*
X18340000Y-6790000D01*
X18340000Y-6760000D02*
X18310000Y-6790000D01*
X18310000Y-6960000D02*
X18340000Y-6990000D01*
X18340000Y-6960000D02*
X18310000Y-6990000D01*
X18310000Y-7135000D02*
X18340000Y-7165000D01*
X18340000Y-7135000D02*
X18310000Y-7165000D01*
X20165000Y-3745000D02*
X20195000Y-3775000D01*
X20195000Y-3745000D02*
X20165000Y-3775000D01*
X20185000Y-2647140D02*
X20215000Y-2677140D01*
X20215000Y-2647140D02*
X20185000Y-2677140D01*
X20185000Y-2747140D02*
X20215000Y-2777140D01*
X20215000Y-2747140D02*
X20185000Y-2777140D01*
X20185000Y-2847140D02*
X20215000Y-2877140D01*
X20215000Y-2847140D02*
X20185000Y-2877140D01*
X20185000Y-2947140D02*
X20215000Y-2977140D01*
X20215000Y-2947140D02*
X20185000Y-2977140D01*
X20185000Y-3047140D02*
X20215000Y-3077140D01*
X20215000Y-3047140D02*
X20185000Y-3077140D01*
X20185000Y-3147140D02*
X20215000Y-3177140D01*
X20215000Y-3147140D02*
X20185000Y-3177140D01*
X20185000Y-3247140D02*
X20215000Y-3277140D01*
X20215000Y-3247140D02*
X20185000Y-3277140D01*
X20185000Y-3347140D02*
X20215000Y-3377140D01*
X20215000Y-3347140D02*
X20185000Y-3377140D01*
X20185000Y-3447140D02*
X20215000Y-3477140D01*
X20215000Y-3447140D02*
X20185000Y-3477140D01*
X20185000Y-3547140D02*
X20215000Y-3577140D01*
X20215000Y-3547140D02*
X20185000Y-3577140D01*
X20185000Y-3647140D02*
X20215000Y-3677140D01*
X20215000Y-3647140D02*
X20185000Y-3677140D01*
X20210000Y-2547140D02*
X20240000Y-2577140D01*
X20240000Y-2547140D02*
X20210000Y-2577140D01*
X20260000Y-3722140D02*
X20290000Y-3752140D01*
X20290000Y-3722140D02*
X20260000Y-3752140D01*
X20310000Y-2522140D02*
X20340000Y-2552140D01*
X20340000Y-2522140D02*
X20310000Y-2552140D01*
X20360000Y-3722140D02*
X20390000Y-3752140D01*
X20390000Y-3722140D02*
X20360000Y-3752140D01*
X20410000Y-2522140D02*
X20440000Y-2552140D01*
X20440000Y-2522140D02*
X20410000Y-2552140D01*
X20460000Y-3722140D02*
X20490000Y-3752140D01*
X20490000Y-3722140D02*
X20460000Y-3752140D01*
X20510000Y-2522140D02*
X20540000Y-2552140D01*
X20540000Y-2522140D02*
X20510000Y-2552140D01*
X20560000Y-3722140D02*
X20590000Y-3752140D01*
X20590000Y-3722140D02*
X20560000Y-3752140D01*
X20610000Y-2522140D02*
X20640000Y-2552140D01*
X20640000Y-2522140D02*
X20610000Y-2552140D01*
X20660000Y-3722140D02*
X20690000Y-3752140D01*
X20690000Y-3722140D02*
X20660000Y-3752140D01*
X20710000Y-2497140D02*
X20740000Y-2527140D01*
X20740000Y-2497140D02*
X20710000Y-2527140D01*
X20760000Y-1922140D02*
X20790000Y-1952140D01*
X20790000Y-1922140D02*
X20760000Y-1952140D01*
X20760000Y-3722140D02*
X20790000Y-3752140D01*
X20790000Y-3722140D02*
X20760000Y-3752140D01*
X20810000Y-2397140D02*
X20840000Y-2427140D01*
X20840000Y-2397140D02*
X20810000Y-2427140D01*
X20810000Y-2497140D02*
X20840000Y-2527140D01*
X20840000Y-2497140D02*
X20810000Y-2527140D01*
X20860000Y-1922140D02*
X20890000Y-1952140D01*
X20890000Y-1922140D02*
X20860000Y-1952140D01*
X20860000Y-3722140D02*
X20890000Y-3752140D01*
X20890000Y-3722140D02*
X20860000Y-3752140D01*
X20910000Y-2497140D02*
X20940000Y-2527140D01*
X20940000Y-2497140D02*
X20910000Y-2527140D01*
X20960000Y-3722140D02*
X20990000Y-3752140D01*
X20990000Y-3722140D02*
X20960000Y-3752140D01*
X21010000Y-2522140D02*
X21040000Y-2552140D01*
X21040000Y-2522140D02*
X21010000Y-2552140D01*
X21060000Y-3722140D02*
X21090000Y-3752140D01*
X21090000Y-3722140D02*
X21060000Y-3752140D01*
X21110000Y-2522140D02*
X21140000Y-2552140D01*
X21140000Y-2522140D02*
X21110000Y-2552140D01*
X21160000Y-3722140D02*
X21190000Y-3752140D01*
X21190000Y-3722140D02*
X21160000Y-3752140D01*
X21210000Y-2522140D02*
X21240000Y-2552140D01*
X21240000Y-2522140D02*
X21210000Y-2552140D01*
X21260000Y-3722140D02*
X21290000Y-3752140D01*
X21290000Y-3722140D02*
X21260000Y-3752140D01*
X21310000Y-2522140D02*
X21340000Y-2552140D01*
X21340000Y-2522140D02*
X21310000Y-2552140D01*
X21360000Y-3722140D02*
X21390000Y-3752140D01*
X21390000Y-3722140D02*
X21360000Y-3752140D01*
X21410000Y-2547140D02*
X21440000Y-2577140D01*
X21440000Y-2547140D02*
X21410000Y-2577140D01*
X21435000Y-2647140D02*
X21465000Y-2677140D01*
X21465000Y-2647140D02*
X21435000Y-2677140D01*
X21435000Y-2747140D02*
X21465000Y-2777140D01*
X21465000Y-2747140D02*
X21435000Y-2777140D01*
X21435000Y-2847140D02*
X21465000Y-2877140D01*
X21465000Y-2847140D02*
X21435000Y-2877140D01*
X21435000Y-2947140D02*
X21465000Y-2977140D01*
X21465000Y-2947140D02*
X21435000Y-2977140D01*
X21435000Y-3047140D02*
X21465000Y-3077140D01*
X21465000Y-3047140D02*
X21435000Y-3077140D01*
X21435000Y-3147140D02*
X21465000Y-3177140D01*
X21465000Y-3147140D02*
X21435000Y-3177140D01*
X21435000Y-3247140D02*
X21465000Y-3277140D01*
X21465000Y-3247140D02*
X21435000Y-3277140D01*
X21435000Y-3347140D02*
X21465000Y-3377140D01*
X21465000Y-3347140D02*
X21435000Y-3377140D01*
X21435000Y-3447140D02*
X21465000Y-3477140D01*
X21465000Y-3447140D02*
X21435000Y-3477140D01*
X21435000Y-3547140D02*
X21465000Y-3577140D01*
X21465000Y-3547140D02*
X21435000Y-3577140D01*
X21435000Y-3647140D02*
X21465000Y-3677140D01*
X21465000Y-3647140D02*
X21435000Y-3677140D01*
X21465000Y-3745000D02*
X21495000Y-3775000D01*
X21495000Y-3745000D02*
X21465000Y-3775000D01*
X46460000Y-17160000D02*
X46490000Y-17190000D01*
X46490000Y-17160000D02*
X46460000Y-17190000D01*
X1762111Y-4350000D02*
G75*
G02*
X1722111Y-4350000I-20000J0D01*
G01*
X1722111Y-4350000D02*
G75*
G02*
X1762111Y-4350000I20000J0D01*
G01*
X1920000Y-4047353D02*
G75*
G02*
X1880000Y-4047353I-20000J0D01*
G01*
X1880000Y-4047353D02*
G75*
G02*
X1920000Y-4047353I20000J0D01*
G01*
X2172112Y-3147353D02*
G75*
G02*
X2132112Y-3147353I-20000J0D01*
G01*
X2132112Y-3147353D02*
G75*
G02*
X2172112Y-3147353I20000J0D01*
G01*
X2172112Y-3497353D02*
G75*
G02*
X2132112Y-3497353I-20000J0D01*
G01*
X2132112Y-3497353D02*
G75*
G02*
X2172112Y-3497353I20000J0D01*
G01*
X2172112Y-3957353D02*
G75*
G02*
X2132112Y-3957353I-20000J0D01*
G01*
X2132112Y-3957353D02*
G75*
G02*
X2172112Y-3957353I20000J0D01*
G01*
X2195000Y-5817353D02*
G75*
G02*
X2155000Y-5817353I-20000J0D01*
G01*
X2155000Y-5817353D02*
G75*
G02*
X2195000Y-5817353I20000J0D01*
G01*
X2322112Y-4700000D02*
G75*
G02*
X2282112Y-4700000I-20000J0D01*
G01*
X2282112Y-4700000D02*
G75*
G02*
X2322112Y-4700000I20000J0D01*
G01*
X2412112Y-3957353D02*
G75*
G02*
X2372112Y-3957353I-20000J0D01*
G01*
X2372112Y-3957353D02*
G75*
G02*
X2412112Y-3957353I20000J0D01*
G01*
X2595000Y-5617353D02*
G75*
G02*
X2555000Y-5617353I-20000J0D01*
G01*
X2555000Y-5617353D02*
G75*
G02*
X2595000Y-5617353I20000J0D01*
G01*
X2620000Y-3875000D02*
G75*
G02*
X2580000Y-3875000I-20000J0D01*
G01*
X2580000Y-3875000D02*
G75*
G02*
X2620000Y-3875000I20000J0D01*
G01*
X3432111Y-4557353D02*
G75*
G02*
X3392111Y-4557353I-20000J0D01*
G01*
X3392111Y-4557353D02*
G75*
G02*
X3432111Y-4557353I20000J0D01*
G01*
X3525545Y-4356567D02*
G75*
G02*
X3485545Y-4356567I-20000J0D01*
G01*
X3485545Y-4356567D02*
G75*
G02*
X3525545Y-4356567I20000J0D01*
G01*
X3697111Y-3882353D02*
G75*
G02*
X3657111Y-3882353I-20000J0D01*
G01*
X3657111Y-3882353D02*
G75*
G02*
X3697111Y-3882353I20000J0D01*
G01*
X4068735Y-4501265D02*
G75*
G02*
X4028735Y-4501265I-20000J0D01*
G01*
X4028735Y-4501265D02*
G75*
G02*
X4068735Y-4501265I20000J0D01*
G01*
X4070000Y-3727353D02*
G75*
G02*
X4030000Y-3727353I-20000J0D01*
G01*
X4030000Y-3727353D02*
G75*
G02*
X4070000Y-3727353I20000J0D01*
G01*
X4932112Y-4557353D02*
G75*
G02*
X4892112Y-4557353I-20000J0D01*
G01*
X4892112Y-4557353D02*
G75*
G02*
X4932112Y-4557353I20000J0D01*
G01*
X5018166Y-4349187D02*
G75*
G02*
X4978166Y-4349187I-20000J0D01*
G01*
X4978166Y-4349187D02*
G75*
G02*
X5018166Y-4349187I20000J0D01*
G01*
X5197112Y-3882353D02*
G75*
G02*
X5157112Y-3882353I-20000J0D01*
G01*
X5157112Y-3882353D02*
G75*
G02*
X5197112Y-3882353I20000J0D01*
G01*
X5557411Y-4489942D02*
G75*
G02*
X5517411Y-4489942I-20000J0D01*
G01*
X5517411Y-4489942D02*
G75*
G02*
X5557411Y-4489942I20000J0D01*
G01*
X5570000Y-3727353D02*
G75*
G02*
X5530000Y-3727353I-20000J0D01*
G01*
X5530000Y-3727353D02*
G75*
G02*
X5570000Y-3727353I20000J0D01*
G01*
X6432111Y-4557353D02*
G75*
G02*
X6392111Y-4557353I-20000J0D01*
G01*
X6392111Y-4557353D02*
G75*
G02*
X6432111Y-4557353I20000J0D01*
G01*
X6504611Y-4350000D02*
G75*
G02*
X6464611Y-4350000I-20000J0D01*
G01*
X6464611Y-4350000D02*
G75*
G02*
X6504611Y-4350000I20000J0D01*
G01*
X6697111Y-3882353D02*
G75*
G02*
X6657111Y-3882353I-20000J0D01*
G01*
X6657111Y-3882353D02*
G75*
G02*
X6697111Y-3882353I20000J0D01*
G01*
X7057411Y-4489942D02*
G75*
G02*
X7017411Y-4489942I-20000J0D01*
G01*
X7017411Y-4489942D02*
G75*
G02*
X7057411Y-4489942I20000J0D01*
G01*
X7070000Y-3727353D02*
G75*
G02*
X7030000Y-3727353I-20000J0D01*
G01*
X7030000Y-3727353D02*
G75*
G02*
X7070000Y-3727353I20000J0D01*
G01*
X7932111Y-4557353D02*
G75*
G02*
X7892111Y-4557353I-20000J0D01*
G01*
X7892111Y-4557353D02*
G75*
G02*
X7932111Y-4557353I20000J0D01*
G01*
X8018165Y-4349187D02*
G75*
G02*
X7978165Y-4349187I-20000J0D01*
G01*
X7978165Y-4349187D02*
G75*
G02*
X8018165Y-4349187I20000J0D01*
G01*
X8197111Y-3882353D02*
G75*
G02*
X8157111Y-3882353I-20000J0D01*
G01*
X8157111Y-3882353D02*
G75*
G02*
X8197111Y-3882353I20000J0D01*
G01*
X8557411Y-4489942D02*
G75*
G02*
X8517411Y-4489942I-20000J0D01*
G01*
X8517411Y-4489942D02*
G75*
G02*
X8557411Y-4489942I20000J0D01*
G01*
X8570000Y-3727353D02*
G75*
G02*
X8530000Y-3727353I-20000J0D01*
G01*
X8530000Y-3727353D02*
G75*
G02*
X8570000Y-3727353I20000J0D01*
G01*
X9432112Y-4557353D02*
G75*
G02*
X9392112Y-4557353I-20000J0D01*
G01*
X9392112Y-4557353D02*
G75*
G02*
X9432112Y-4557353I20000J0D01*
G01*
X9519489Y-4350511D02*
G75*
G02*
X9479489Y-4350511I-20000J0D01*
G01*
X9479489Y-4350511D02*
G75*
G02*
X9519489Y-4350511I20000J0D01*
G01*
X9697112Y-3882353D02*
G75*
G02*
X9657112Y-3882353I-20000J0D01*
G01*
X9657112Y-3882353D02*
G75*
G02*
X9697112Y-3882353I20000J0D01*
G01*
X10057411Y-4489942D02*
G75*
G02*
X10017411Y-4489942I-20000J0D01*
G01*
X10017411Y-4489942D02*
G75*
G02*
X10057411Y-4489942I20000J0D01*
G01*
X10070000Y-3727353D02*
G75*
G02*
X10030000Y-3727353I-20000J0D01*
G01*
X10030000Y-3727353D02*
G75*
G02*
X10070000Y-3727353I20000J0D01*
G01*
X10932112Y-4557353D02*
G75*
G02*
X10892112Y-4557353I-20000J0D01*
G01*
X10892112Y-4557353D02*
G75*
G02*
X10932112Y-4557353I20000J0D01*
G01*
X11019489Y-4350511D02*
G75*
G02*
X10979489Y-4350511I-20000J0D01*
G01*
X10979489Y-4350511D02*
G75*
G02*
X11019489Y-4350511I20000J0D01*
G01*
X11197111Y-3882353D02*
G75*
G02*
X11157112Y-3882353I-20000J0D01*
G01*
X11157112Y-3882353D02*
G75*
G02*
X11197111Y-3882353I20000J0D01*
G01*
X11568735Y-4501265D02*
G75*
G02*
X11528735Y-4501265I-20000J0D01*
G01*
X11528735Y-4501265D02*
G75*
G02*
X11568735Y-4501265I20000J0D01*
G01*
X11570000Y-3727353D02*
G75*
G02*
X11530000Y-3727353I-20000J0D01*
G01*
X11530000Y-3727353D02*
G75*
G02*
X11570000Y-3727353I20000J0D01*
G01*
X12432111Y-4557353D02*
G75*
G02*
X12392111Y-4557353I-20000J0D01*
G01*
X12392111Y-4557353D02*
G75*
G02*
X12432111Y-4557353I20000J0D01*
G01*
X12519489Y-4350511D02*
G75*
G02*
X12479489Y-4350511I-20000J0D01*
G01*
X12479489Y-4350511D02*
G75*
G02*
X12519489Y-4350511I20000J0D01*
G01*
X12697111Y-3882353D02*
G75*
G02*
X12657111Y-3882353I-20000J0D01*
G01*
X12657111Y-3882353D02*
G75*
G02*
X12697111Y-3882353I20000J0D01*
G01*
X13060000Y-4477353D02*
G75*
G02*
X13020000Y-4477353I-20000J0D01*
G01*
X13020000Y-4477353D02*
G75*
G02*
X13060000Y-4477353I20000J0D01*
G01*
X13070000Y-3727353D02*
G75*
G02*
X13030000Y-3727353I-20000J0D01*
G01*
X13030000Y-3727353D02*
G75*
G02*
X13070000Y-3727353I20000J0D01*
G01*
X13774500Y-2857750D02*
X13774500Y-2947750D01*
X13729500Y-2902750D02*
X13819500Y-2902750D01*
X13774500Y-5397750D02*
X13774500Y-5487750D01*
X13729500Y-5442750D02*
X13819500Y-5442750D01*
X14028500Y-2857750D02*
X14028500Y-2947750D01*
X13983500Y-2902750D02*
X14073500Y-2902750D01*
X14028500Y-5397750D02*
X14028500Y-5487750D01*
X13983500Y-5442750D02*
X14073500Y-5442750D01*
X14282500Y-2857750D02*
X14282500Y-2947750D01*
X14237500Y-2902750D02*
X14327500Y-2902750D01*
X14282500Y-5397750D02*
X14282500Y-5487750D01*
X14237500Y-5442750D02*
X14327500Y-5442750D01*
X14536500Y-2857750D02*
X14536500Y-2947750D01*
X14491500Y-2902750D02*
X14581500Y-2902750D01*
X14536500Y-5397750D02*
X14536500Y-5487750D01*
X14491500Y-5442750D02*
X14581500Y-5442750D01*
X14790500Y-2857750D02*
X14790500Y-2947750D01*
X14745500Y-2902750D02*
X14835500Y-2902750D01*
X14790500Y-5397750D02*
X14790500Y-5487750D01*
X14745500Y-5442750D02*
X14835500Y-5442750D01*
X15044500Y-2857750D02*
X15044500Y-2947750D01*
X14999500Y-2902750D02*
X15089500Y-2902750D01*
X15044500Y-5397750D02*
X15044500Y-5487750D01*
X14999500Y-5442750D02*
X15089500Y-5442750D01*
X15298500Y-2857750D02*
X15298500Y-2947750D01*
X15253500Y-2902750D02*
X15343500Y-2902750D01*
X15298500Y-5397750D02*
X15298500Y-5487750D01*
X15253500Y-5442750D02*
X15343500Y-5442750D01*
X15552500Y-2857750D02*
X15552500Y-2947750D01*
X15507500Y-2902750D02*
X15597500Y-2902750D01*
X15552500Y-5397750D02*
X15552500Y-5487750D01*
X15507500Y-5442750D02*
X15597500Y-5442750D01*
X15806500Y-2857750D02*
X15806500Y-2947750D01*
X15761500Y-2902750D02*
X15851500Y-2902750D01*
X15806500Y-5397750D02*
X15806500Y-5487750D01*
X15761500Y-5442750D02*
X15851500Y-5442750D01*
X16060500Y-2857750D02*
X16060500Y-2947750D01*
X16015500Y-2902750D02*
X16105500Y-2902750D01*
X16060500Y-5397750D02*
X16060500Y-5487750D01*
X16015500Y-5442750D02*
X16105500Y-5442750D01*
X16314500Y-2857750D02*
X16314500Y-2947750D01*
X16269500Y-2902750D02*
X16359500Y-2902750D01*
X16314500Y-5397750D02*
X16314500Y-5487750D01*
X16269500Y-5442750D02*
X16359500Y-5442750D01*
X16568500Y-2857750D02*
X16568500Y-2947750D01*
X16523500Y-2902750D02*
X16613500Y-2902750D01*
X16568500Y-5397750D02*
X16568500Y-5487750D01*
X16523500Y-5442750D02*
X16613500Y-5442750D01*
X16822500Y-2857750D02*
X16822500Y-2947750D01*
X16777500Y-2902750D02*
X16867500Y-2902750D01*
X16822500Y-5397750D02*
X16822500Y-5487750D01*
X16777500Y-5442750D02*
X16867500Y-5442750D01*
X17076500Y-2857750D02*
X17076500Y-2947750D01*
X17031500Y-2902750D02*
X17121500Y-2902750D01*
X17076500Y-5397750D02*
X17076500Y-5487750D01*
X17031500Y-5442750D02*
X17121500Y-5442750D01*
X17330500Y-2857750D02*
X17330500Y-2947750D01*
X17285500Y-2902750D02*
X17375500Y-2902750D01*
X17330500Y-5397750D02*
X17330500Y-5487750D01*
X17285500Y-5442750D02*
X17375500Y-5442750D01*
X17584500Y-2857750D02*
X17584500Y-2947750D01*
X17539500Y-2902750D02*
X17629500Y-2902750D01*
X17584500Y-5397750D02*
X17584500Y-5487750D01*
X17539500Y-5442750D02*
X17629500Y-5442750D01*
X17838500Y-2857750D02*
X17838500Y-2947750D01*
X17793500Y-2902750D02*
X17883500Y-2902750D01*
X17838500Y-5397750D02*
X17838500Y-5487750D01*
X17793500Y-5442750D02*
X17883500Y-5442750D01*
X18092500Y-2857750D02*
X18092500Y-2947750D01*
X18047500Y-2902750D02*
X18137500Y-2902750D01*
X18092500Y-5397750D02*
X18092500Y-5487750D01*
X18047500Y-5442750D02*
X18137500Y-5442750D01*
X18346500Y-2857750D02*
X18346500Y-2947750D01*
X18301500Y-2902750D02*
X18391500Y-2902750D01*
X18346500Y-5397750D02*
X18346500Y-5487750D01*
X18301500Y-5442750D02*
X18391500Y-5442750D01*
X1945138Y-6353023D02*
X1945138Y-6282977D01*
X1875091Y-6282977D01*
X1875091Y-6353023D01*
X1945138Y-6353023D01*
X1945138Y-6607023D02*
X1945138Y-6536977D01*
X1875091Y-6536977D01*
X1875091Y-6607023D01*
X1945138Y-6607023D01*
X1945138Y-7623023D02*
X1945138Y-7552977D01*
X1875091Y-7552977D01*
X1875091Y-7623023D01*
X1945138Y-7623023D01*
X1945138Y-8385023D02*
X1945138Y-8314977D01*
X1875091Y-8314977D01*
X1875091Y-8385023D01*
X1945138Y-8385023D01*
X6235023Y-6353023D02*
X6235023Y-6282977D01*
X6164977Y-6282977D01*
X6164977Y-6353023D01*
X6235023Y-6353023D01*
X6235023Y-6607023D02*
X6235023Y-6536977D01*
X6164977Y-6536977D01*
X6164977Y-6607023D01*
X6235023Y-6607023D01*
X6235023Y-7623023D02*
X6235023Y-7552977D01*
X6164977Y-7552977D01*
X6164977Y-7623023D01*
X6235023Y-7623023D01*
X6235023Y-8385023D02*
X6235023Y-8314977D01*
X6164977Y-8314977D01*
X6164977Y-8385023D01*
X6235023Y-8385023D01*
X9507057Y-6354453D02*
X9507057Y-6284407D01*
X9437011Y-6284407D01*
X9437011Y-6354453D01*
X9507057Y-6354453D01*
X9507057Y-6608453D02*
X9507057Y-6538407D01*
X9437011Y-6538407D01*
X9437011Y-6608453D01*
X9507057Y-6608453D01*
X9507057Y-7624453D02*
X9507057Y-7554407D01*
X9437011Y-7554407D01*
X9437011Y-7624453D01*
X9507057Y-7624453D01*
X9507057Y-8386453D02*
X9507057Y-8316407D01*
X9437011Y-8316407D01*
X9437011Y-8386453D01*
X9507057Y-8386453D01*
X11785023Y-6354453D02*
X11785023Y-6284407D01*
X11714977Y-6284407D01*
X11714977Y-6354453D01*
X11785023Y-6354453D01*
X11785023Y-6608453D02*
X11785023Y-6538407D01*
X11714977Y-6538407D01*
X11714977Y-6608453D01*
X11785023Y-6608453D01*
X11785023Y-7624453D02*
X11785023Y-7554407D01*
X11714977Y-7554407D01*
X11714977Y-7624453D01*
X11785023Y-7624453D01*
X11785023Y-8386453D02*
X11785023Y-8316407D01*
X11714977Y-8316407D01*
X11714977Y-8386453D01*
X11785023Y-8386453D01*
X14035023Y-6354453D02*
X14035023Y-6284407D01*
X13964977Y-6284407D01*
X13964977Y-6354453D01*
X14035023Y-6354453D01*
X14035023Y-6608453D02*
X14035023Y-6538407D01*
X13964977Y-6538407D01*
X13964977Y-6608453D01*
X14035023Y-6608453D01*
X14035023Y-7624453D02*
X14035023Y-7554407D01*
X13964977Y-7554407D01*
X13964977Y-7624453D01*
X14035023Y-7624453D01*
X14035023Y-8386453D02*
X14035023Y-8316407D01*
X13964977Y-8316407D01*
X13964977Y-8386453D01*
X14035023Y-8386453D01*
X16285023Y-6353023D02*
X16285023Y-6282977D01*
X16214977Y-6282977D01*
X16214977Y-6353023D01*
X16285023Y-6353023D01*
X16285023Y-6607023D02*
X16285023Y-6536977D01*
X16214977Y-6536977D01*
X16214977Y-6607023D01*
X16285023Y-6607023D01*
X16285023Y-7623023D02*
X16285023Y-7552977D01*
X16214977Y-7552977D01*
X16214977Y-7623023D01*
X16285023Y-7623023D01*
X16285023Y-8385023D02*
X16285023Y-8314977D01*
X16214977Y-8314977D01*
X16214977Y-8385023D01*
X16285023Y-8385023D01*
X18557057Y-6354453D02*
X18557057Y-6284407D01*
X18487011Y-6284407D01*
X18487011Y-6354453D01*
X18557057Y-6354453D01*
X18557057Y-6608453D02*
X18557057Y-6538407D01*
X18487011Y-6538407D01*
X18487011Y-6608453D01*
X18557057Y-6608453D01*
X18557057Y-7624453D02*
X18557057Y-7554407D01*
X18487011Y-7554407D01*
X18487011Y-7624453D01*
X18557057Y-7624453D01*
X18557057Y-8386453D02*
X18557057Y-8316407D01*
X18487011Y-8316407D01*
X18487011Y-8386453D01*
X18557057Y-8386453D01*
D13*
X20000000Y-2065000D02*
X20065000Y-2000000D01*
X20000000Y-1935000D01*
X19935000Y-2000000D01*
X20000000Y-2065000D01*
X20900000Y-7165000D02*
X20965000Y-7100000D01*
X20900000Y-7035000D01*
X20835000Y-7100000D01*
X20900000Y-7165000D01*
X21000000Y-8165000D02*
X21065000Y-8100000D01*
X21000000Y-8035000D01*
X20935000Y-8100000D01*
X21000000Y-8165000D01*
X21800000Y-7165000D02*
X21865000Y-7100000D01*
X21800000Y-7035000D01*
X21735000Y-7100000D01*
X21800000Y-7165000D01*
X22700000Y-2065000D02*
X22765000Y-2000000D01*
X22700000Y-1935000D01*
X22635000Y-2000000D01*
X22700000Y-2065000D01*
X23250000Y-8165000D02*
X23315000Y-8100000D01*
X23250000Y-8035000D01*
X23185000Y-8100000D01*
X23250000Y-8165000D01*
D14*
X1840000Y-8830000D02*
X1980000Y-8970000D01*
X1980000Y-8830000D02*
X1840000Y-8970000D01*
X1980000Y-8900000D02*
G75*
G02*
X1840000Y-8900000I-70000J0D01*
G01*
X1840000Y-8900000D02*
G75*
G02*
X1980000Y-8900000I70000J0D01*
G01*
X1848111Y-2475103D02*
X1988111Y-2615103D01*
X1988111Y-2475103D02*
X1848111Y-2615103D01*
X1988111Y-2545103D02*
G75*
G02*
X1848111Y-2545103I-70000J0D01*
G01*
X1848111Y-2545103D02*
G75*
G02*
X1988111Y-2545103I70000J0D01*
G01*
X2348000Y-8830000D02*
X2488000Y-8970000D01*
X2488000Y-8830000D02*
X2348000Y-8970000D01*
X2488000Y-8900000D02*
G75*
G02*
X2348000Y-8900000I-70000J0D01*
G01*
X2348000Y-8900000D02*
G75*
G02*
X2488000Y-8900000I70000J0D01*
G01*
X2356112Y-2475103D02*
X2496112Y-2615103D01*
X2496112Y-2475103D02*
X2356112Y-2615103D01*
X2496112Y-2545103D02*
G75*
G02*
X2356112Y-2545103I-70000J0D01*
G01*
X2356112Y-2545103D02*
G75*
G02*
X2496112Y-2545103I70000J0D01*
G01*
X2856000Y-8830000D02*
X2996000Y-8970000D01*
X2996000Y-8830000D02*
X2856000Y-8970000D01*
X2996000Y-8900000D02*
G75*
G02*
X2856000Y-8900000I-70000J0D01*
G01*
X2856000Y-8900000D02*
G75*
G02*
X2996000Y-8900000I70000J0D01*
G01*
X3358111Y-2485103D02*
X3498111Y-2625103D01*
X3498111Y-2485103D02*
X3358111Y-2625103D01*
X3498111Y-2555103D02*
G75*
G02*
X3358111Y-2555103I-70000J0D01*
G01*
X3358111Y-2555103D02*
G75*
G02*
X3498111Y-2555103I70000J0D01*
G01*
X3364000Y-8830000D02*
X3504000Y-8970000D01*
X3504000Y-8830000D02*
X3364000Y-8970000D01*
X3504000Y-8900000D02*
G75*
G02*
X3364000Y-8900000I-70000J0D01*
G01*
X3364000Y-8900000D02*
G75*
G02*
X3504000Y-8900000I70000J0D01*
G01*
X3866111Y-2485103D02*
X4006111Y-2625103D01*
X4006111Y-2485103D02*
X3866111Y-2625103D01*
X4006111Y-2555103D02*
G75*
G02*
X3866111Y-2555103I-70000J0D01*
G01*
X3866111Y-2555103D02*
G75*
G02*
X4006111Y-2555103I70000J0D01*
G01*
X3872000Y-8830000D02*
X4012000Y-8970000D01*
X4012000Y-8830000D02*
X3872000Y-8970000D01*
X4012000Y-8900000D02*
G75*
G02*
X3872000Y-8900000I-70000J0D01*
G01*
X3872000Y-8900000D02*
G75*
G02*
X4012000Y-8900000I70000J0D01*
G01*
X4380000Y-8830000D02*
X4520000Y-8970000D01*
X4520000Y-8830000D02*
X4380000Y-8970000D01*
X4520000Y-8900000D02*
G75*
G02*
X4380000Y-8900000I-70000J0D01*
G01*
X4380000Y-8900000D02*
G75*
G02*
X4520000Y-8900000I70000J0D01*
G01*
X4858112Y-2485103D02*
X4998112Y-2625103D01*
X4998112Y-2485103D02*
X4858112Y-2625103D01*
X4998112Y-2555103D02*
G75*
G02*
X4858112Y-2555103I-70000J0D01*
G01*
X4858112Y-2555103D02*
G75*
G02*
X4998112Y-2555103I70000J0D01*
G01*
X4888000Y-8830000D02*
X5028000Y-8970000D01*
X5028000Y-8830000D02*
X4888000Y-8970000D01*
X5028000Y-8900000D02*
G75*
G02*
X4888000Y-8900000I-70000J0D01*
G01*
X4888000Y-8900000D02*
G75*
G02*
X5028000Y-8900000I70000J0D01*
G01*
X5366112Y-2485103D02*
X5506112Y-2625103D01*
X5506112Y-2485103D02*
X5366112Y-2625103D01*
X5506112Y-2555103D02*
G75*
G02*
X5366112Y-2555103I-70000J0D01*
G01*
X5366112Y-2555103D02*
G75*
G02*
X5506112Y-2555103I70000J0D01*
G01*
X5396000Y-8830000D02*
X5536000Y-8970000D01*
X5536000Y-8830000D02*
X5396000Y-8970000D01*
X5536000Y-8900000D02*
G75*
G02*
X5396000Y-8900000I-70000J0D01*
G01*
X5396000Y-8900000D02*
G75*
G02*
X5536000Y-8900000I70000J0D01*
G01*
X6130000Y-8830000D02*
X6270000Y-8970000D01*
X6270000Y-8830000D02*
X6130000Y-8970000D01*
X6270000Y-8900000D02*
G75*
G02*
X6130000Y-8900000I-70000J0D01*
G01*
X6130000Y-8900000D02*
G75*
G02*
X6270000Y-8900000I70000J0D01*
G01*
X6358111Y-2485103D02*
X6498111Y-2625103D01*
X6498111Y-2485103D02*
X6358111Y-2625103D01*
X6498111Y-2555103D02*
G75*
G02*
X6358111Y-2555103I-70000J0D01*
G01*
X6358111Y-2555103D02*
G75*
G02*
X6498111Y-2555103I70000J0D01*
G01*
X6638000Y-8830000D02*
X6778000Y-8970000D01*
X6778000Y-8830000D02*
X6638000Y-8970000D01*
X6778000Y-8900000D02*
G75*
G02*
X6638000Y-8900000I-70000J0D01*
G01*
X6638000Y-8900000D02*
G75*
G02*
X6778000Y-8900000I70000J0D01*
G01*
X6866111Y-2485103D02*
X7006111Y-2625103D01*
X7006111Y-2485103D02*
X6866111Y-2625103D01*
X7006111Y-2555103D02*
G75*
G02*
X6866111Y-2555103I-70000J0D01*
G01*
X6866111Y-2555103D02*
G75*
G02*
X7006111Y-2555103I70000J0D01*
G01*
X7146000Y-8830000D02*
X7286000Y-8970000D01*
X7286000Y-8830000D02*
X7146000Y-8970000D01*
X7286000Y-8900000D02*
G75*
G02*
X7146000Y-8900000I-70000J0D01*
G01*
X7146000Y-8900000D02*
G75*
G02*
X7286000Y-8900000I70000J0D01*
G01*
X7654000Y-8830000D02*
X7794000Y-8970000D01*
X7794000Y-8830000D02*
X7654000Y-8970000D01*
X7794000Y-8900000D02*
G75*
G02*
X7654000Y-8900000I-70000J0D01*
G01*
X7654000Y-8900000D02*
G75*
G02*
X7794000Y-8900000I70000J0D01*
G01*
X7858111Y-2485103D02*
X7998111Y-2625103D01*
X7998111Y-2485103D02*
X7858111Y-2625103D01*
X7998111Y-2555103D02*
G75*
G02*
X7858111Y-2555103I-70000J0D01*
G01*
X7858111Y-2555103D02*
G75*
G02*
X7998111Y-2555103I70000J0D01*
G01*
X8162000Y-8830000D02*
X8302000Y-8970000D01*
X8302000Y-8830000D02*
X8162000Y-8970000D01*
X8302000Y-8900000D02*
G75*
G02*
X8162000Y-8900000I-70000J0D01*
G01*
X8162000Y-8900000D02*
G75*
G02*
X8302000Y-8900000I70000J0D01*
G01*
X8366111Y-2485103D02*
X8506112Y-2625103D01*
X8506112Y-2485103D02*
X8366111Y-2625103D01*
X8506112Y-2555103D02*
G75*
G02*
X8366111Y-2555103I-70000J0D01*
G01*
X8366111Y-2555103D02*
G75*
G02*
X8506112Y-2555103I70000J0D01*
G01*
X8670000Y-8830000D02*
X8810000Y-8970000D01*
X8810000Y-8830000D02*
X8670000Y-8970000D01*
X8810000Y-8900000D02*
G75*
G02*
X8670000Y-8900000I-70000J0D01*
G01*
X8670000Y-8900000D02*
G75*
G02*
X8810000Y-8900000I70000J0D01*
G01*
X9358112Y-2485103D02*
X9498112Y-2625103D01*
X9498112Y-2485103D02*
X9358112Y-2625103D01*
X9498112Y-2555103D02*
G75*
G02*
X9358112Y-2555103I-70000J0D01*
G01*
X9358112Y-2555103D02*
G75*
G02*
X9498112Y-2555103I70000J0D01*
G01*
X9405000Y-8830000D02*
X9545000Y-8970000D01*
X9545000Y-8830000D02*
X9405000Y-8970000D01*
X9545000Y-8900000D02*
G75*
G02*
X9405000Y-8900000I-70000J0D01*
G01*
X9405000Y-8900000D02*
G75*
G02*
X9545000Y-8900000I70000J0D01*
G01*
X9866112Y-2485103D02*
X10006112Y-2625103D01*
X10006112Y-2485103D02*
X9866112Y-2625103D01*
X10006112Y-2555103D02*
G75*
G02*
X9866112Y-2555103I-70000J0D01*
G01*
X9866112Y-2555103D02*
G75*
G02*
X10006112Y-2555103I70000J0D01*
G01*
X9913000Y-8830000D02*
X10053000Y-8970000D01*
X10053000Y-8830000D02*
X9913000Y-8970000D01*
X10053000Y-8900000D02*
G75*
G02*
X9913000Y-8900000I-70000J0D01*
G01*
X9913000Y-8900000D02*
G75*
G02*
X10053000Y-8900000I70000J0D01*
G01*
X10421000Y-8830000D02*
X10561000Y-8970000D01*
X10561000Y-8830000D02*
X10421000Y-8970000D01*
X10561000Y-8900000D02*
G75*
G02*
X10421000Y-8900000I-70000J0D01*
G01*
X10421000Y-8900000D02*
G75*
G02*
X10561000Y-8900000I70000J0D01*
G01*
X10858112Y-2485103D02*
X10998112Y-2625103D01*
X10998112Y-2485103D02*
X10858112Y-2625103D01*
X10998112Y-2555103D02*
G75*
G02*
X10858112Y-2555103I-70000J0D01*
G01*
X10858112Y-2555103D02*
G75*
G02*
X10998112Y-2555103I70000J0D01*
G01*
X10929000Y-8830000D02*
X11069000Y-8970000D01*
X11069000Y-8830000D02*
X10929000Y-8970000D01*
X11069000Y-8900000D02*
G75*
G02*
X10929000Y-8900000I-70000J0D01*
G01*
X10929000Y-8900000D02*
G75*
G02*
X11069000Y-8900000I70000J0D01*
G01*
X11366111Y-2485103D02*
X11506111Y-2625103D01*
X11506111Y-2485103D02*
X11366111Y-2625103D01*
X11506111Y-2555103D02*
G75*
G02*
X11366111Y-2555103I-70000J0D01*
G01*
X11366111Y-2555103D02*
G75*
G02*
X11506111Y-2555103I70000J0D01*
G01*
X11665000Y-8830000D02*
X11805000Y-8970000D01*
X11805000Y-8830000D02*
X11665000Y-8970000D01*
X11805000Y-8900000D02*
G75*
G02*
X11665000Y-8900000I-70000J0D01*
G01*
X11665000Y-8900000D02*
G75*
G02*
X11805000Y-8900000I70000J0D01*
G01*
X12173000Y-8830000D02*
X12313000Y-8970000D01*
X12313000Y-8830000D02*
X12173000Y-8970000D01*
X12313000Y-8900000D02*
G75*
G02*
X12173000Y-8900000I-70000J0D01*
G01*
X12173000Y-8900000D02*
G75*
G02*
X12313000Y-8900000I70000J0D01*
G01*
X12358111Y-2485103D02*
X12498111Y-2625103D01*
X12498111Y-2485103D02*
X12358111Y-2625103D01*
X12498111Y-2555103D02*
G75*
G02*
X12358111Y-2555103I-70000J0D01*
G01*
X12358111Y-2555103D02*
G75*
G02*
X12498111Y-2555103I70000J0D01*
G01*
X12681000Y-8830000D02*
X12821000Y-8970000D01*
X12821000Y-8830000D02*
X12681000Y-8970000D01*
X12821000Y-8900000D02*
G75*
G02*
X12681000Y-8900000I-70000J0D01*
G01*
X12681000Y-8900000D02*
G75*
G02*
X12821000Y-8900000I70000J0D01*
G01*
X12866111Y-2485103D02*
X13006111Y-2625103D01*
X13006111Y-2485103D02*
X12866111Y-2625103D01*
X13006111Y-2555103D02*
G75*
G02*
X12866111Y-2555103I-70000J0D01*
G01*
X12866111Y-2555103D02*
G75*
G02*
X13006111Y-2555103I70000J0D01*
G01*
X13189000Y-8830000D02*
X13329000Y-8970000D01*
X13329000Y-8830000D02*
X13189000Y-8970000D01*
X13329000Y-8900000D02*
G75*
G02*
X13189000Y-8900000I-70000J0D01*
G01*
X13189000Y-8900000D02*
G75*
G02*
X13329000Y-8900000I70000J0D01*
G01*
X13925000Y-8830000D02*
X14065000Y-8970000D01*
X14065000Y-8830000D02*
X13925000Y-8970000D01*
X14065000Y-8900000D02*
G75*
G02*
X13925000Y-8900000I-70000J0D01*
G01*
X13925000Y-8900000D02*
G75*
G02*
X14065000Y-8900000I70000J0D01*
G01*
X14433000Y-8830000D02*
X14573000Y-8970000D01*
X14573000Y-8830000D02*
X14433000Y-8970000D01*
X14573000Y-8900000D02*
G75*
G02*
X14433000Y-8900000I-70000J0D01*
G01*
X14433000Y-8900000D02*
G75*
G02*
X14573000Y-8900000I70000J0D01*
G01*
X14941000Y-8830000D02*
X15081000Y-8970000D01*
X15081000Y-8830000D02*
X14941000Y-8970000D01*
X15081000Y-8900000D02*
G75*
G02*
X14941000Y-8900000I-70000J0D01*
G01*
X14941000Y-8900000D02*
G75*
G02*
X15081000Y-8900000I70000J0D01*
G01*
X15449000Y-8830000D02*
X15589000Y-8970000D01*
X15589000Y-8830000D02*
X15449000Y-8970000D01*
X15589000Y-8900000D02*
G75*
G02*
X15449000Y-8900000I-70000J0D01*
G01*
X15449000Y-8900000D02*
G75*
G02*
X15589000Y-8900000I70000J0D01*
G01*
X16185000Y-8830000D02*
X16325000Y-8970000D01*
X16325000Y-8830000D02*
X16185000Y-8970000D01*
X16325000Y-8900000D02*
G75*
G02*
X16185000Y-8900000I-70000J0D01*
G01*
X16185000Y-8900000D02*
G75*
G02*
X16325000Y-8900000I70000J0D01*
G01*
X16693000Y-8830000D02*
X16833000Y-8970000D01*
X16833000Y-8830000D02*
X16693000Y-8970000D01*
X16833000Y-8900000D02*
G75*
G02*
X16693000Y-8900000I-70000J0D01*
G01*
X16693000Y-8900000D02*
G75*
G02*
X16833000Y-8900000I70000J0D01*
G01*
X17201000Y-8830000D02*
X17341000Y-8970000D01*
X17341000Y-8830000D02*
X17201000Y-8970000D01*
X17341000Y-8900000D02*
G75*
G02*
X17201000Y-8900000I-70000J0D01*
G01*
X17201000Y-8900000D02*
G75*
G02*
X17341000Y-8900000I70000J0D01*
G01*
X17709000Y-8830000D02*
X17849000Y-8970000D01*
X17849000Y-8830000D02*
X17709000Y-8970000D01*
X17849000Y-8900000D02*
G75*
G02*
X17709000Y-8900000I-70000J0D01*
G01*
X17709000Y-8900000D02*
G75*
G02*
X17849000Y-8900000I70000J0D01*
G01*
X18445000Y-8830000D02*
X18585000Y-8970000D01*
X18585000Y-8830000D02*
X18445000Y-8970000D01*
X18585000Y-8900000D02*
G75*
G02*
X18445000Y-8900000I-70000J0D01*
G01*
X18445000Y-8900000D02*
G75*
G02*
X18585000Y-8900000I70000J0D01*
G01*
X18953000Y-8830000D02*
X19093000Y-8970000D01*
X19093000Y-8830000D02*
X18953000Y-8970000D01*
X19093000Y-8900000D02*
G75*
G02*
X18953000Y-8900000I-70000J0D01*
G01*
X18953000Y-8900000D02*
G75*
G02*
X19093000Y-8900000I70000J0D01*
G01*
X19461000Y-8830000D02*
X19601000Y-8970000D01*
X19601000Y-8830000D02*
X19461000Y-8970000D01*
X19601000Y-8900000D02*
G75*
G02*
X19461000Y-8900000I-70000J0D01*
G01*
X19461000Y-8900000D02*
G75*
G02*
X19601000Y-8900000I70000J0D01*
G01*
X19969000Y-8830000D02*
X20109000Y-8970000D01*
X20109000Y-8830000D02*
X19969000Y-8970000D01*
X20109000Y-8900000D02*
G75*
G02*
X19969000Y-8900000I-70000J0D01*
G01*
X19969000Y-8900000D02*
G75*
G02*
X20109000Y-8900000I70000J0D01*
G01*
X20932000Y-8830000D02*
X21072000Y-8970000D01*
X21072000Y-8830000D02*
X20932000Y-8970000D01*
X21072000Y-8900000D02*
G75*
G02*
X20932000Y-8900000I-70000J0D01*
G01*
X20932000Y-8900000D02*
G75*
G02*
X21072000Y-8900000I70000J0D01*
G01*
X21440000Y-8830000D02*
X21580000Y-8970000D01*
X21580000Y-8830000D02*
X21440000Y-8970000D01*
X21580000Y-8900000D02*
G75*
G02*
X21440000Y-8900000I-70000J0D01*
G01*
X21440000Y-8900000D02*
G75*
G02*
X21580000Y-8900000I70000J0D01*
G01*
X21948000Y-8830000D02*
X22088000Y-8970000D01*
X22088000Y-8830000D02*
X21948000Y-8970000D01*
X22088000Y-8900000D02*
G75*
G02*
X21948000Y-8900000I-70000J0D01*
G01*
X21948000Y-8900000D02*
G75*
G02*
X22088000Y-8900000I70000J0D01*
G01*
D11*
X858277Y-10188984D02*
X858277Y-9988984D01*
X858277Y-9988984D02*
X905896Y-9988984D01*
X905896Y-9988984D02*
X934467Y-9998508D01*
X934467Y-9998508D02*
X953515Y-10017555D01*
X953515Y-10017555D02*
X963039Y-10036603D01*
X963039Y-10036603D02*
X972562Y-10074698D01*
X972562Y-10074698D02*
X972562Y-10103270D01*
X972562Y-10103270D02*
X963039Y-10141365D01*
X963039Y-10141365D02*
X953515Y-10160412D01*
X953515Y-10160412D02*
X934467Y-10179460D01*
X934467Y-10179460D02*
X905896Y-10188984D01*
X905896Y-10188984D02*
X858277Y-10188984D01*
X1058277Y-10188984D02*
X1058277Y-10055650D01*
X1058277Y-10093746D02*
X1067801Y-10074698D01*
X1067801Y-10074698D02*
X1077324Y-10065174D01*
X1077324Y-10065174D02*
X1096372Y-10055650D01*
X1096372Y-10055650D02*
X1115420Y-10055650D01*
X1182086Y-10188984D02*
X1182086Y-10055650D01*
X1182086Y-9988984D02*
X1172563Y-9998508D01*
X1172563Y-9998508D02*
X1182086Y-10008031D01*
X1182086Y-10008031D02*
X1191610Y-9998508D01*
X1191610Y-9998508D02*
X1182086Y-9988984D01*
X1182086Y-9988984D02*
X1182086Y-10008031D01*
X1305896Y-10188984D02*
X1286848Y-10179460D01*
X1286848Y-10179460D02*
X1277324Y-10160412D01*
X1277324Y-10160412D02*
X1277324Y-9988984D01*
X1410658Y-10188984D02*
X1391610Y-10179460D01*
X1391610Y-10179460D02*
X1382086Y-10160412D01*
X1382086Y-10160412D02*
X1382086Y-9988984D01*
X1639229Y-10188984D02*
X1639229Y-9988984D01*
X1639229Y-9988984D02*
X1705896Y-10131841D01*
X1705896Y-10131841D02*
X1772562Y-9988984D01*
X1772562Y-9988984D02*
X1772562Y-10188984D01*
X1953515Y-10188984D02*
X1953515Y-10084222D01*
X1953515Y-10084222D02*
X1943991Y-10065174D01*
X1943991Y-10065174D02*
X1924943Y-10055650D01*
X1924943Y-10055650D02*
X1886848Y-10055650D01*
X1886848Y-10055650D02*
X1867801Y-10065174D01*
X1953515Y-10179460D02*
X1934467Y-10188984D01*
X1934467Y-10188984D02*
X1886848Y-10188984D01*
X1886848Y-10188984D02*
X1867801Y-10179460D01*
X1867801Y-10179460D02*
X1858277Y-10160412D01*
X1858277Y-10160412D02*
X1858277Y-10141365D01*
X1858277Y-10141365D02*
X1867801Y-10122317D01*
X1867801Y-10122317D02*
X1886848Y-10112793D01*
X1886848Y-10112793D02*
X1934467Y-10112793D01*
X1934467Y-10112793D02*
X1953515Y-10103270D01*
X2048753Y-10055650D02*
X2048753Y-10255650D01*
X2048753Y-10065174D02*
X2067801Y-10055650D01*
X2067801Y-10055650D02*
X2105896Y-10055650D01*
X2105896Y-10055650D02*
X2124944Y-10065174D01*
X2124944Y-10065174D02*
X2134467Y-10074698D01*
X2134467Y-10074698D02*
X2143991Y-10093746D01*
X2143991Y-10093746D02*
X2143991Y-10150889D01*
X2143991Y-10150889D02*
X2134467Y-10169936D01*
X2134467Y-10169936D02*
X2124944Y-10179460D01*
X2124944Y-10179460D02*
X2105896Y-10188984D01*
X2105896Y-10188984D02*
X2067801Y-10188984D01*
X2067801Y-10188984D02*
X2048753Y-10179460D01*
X2229705Y-10169936D02*
X2239229Y-10179460D01*
X2239229Y-10179460D02*
X2229705Y-10188984D01*
X2229705Y-10188984D02*
X2220182Y-10179460D01*
X2220182Y-10179460D02*
X2229705Y-10169936D01*
X2229705Y-10169936D02*
X2229705Y-10188984D01*
X2229705Y-10065174D02*
X2239229Y-10074698D01*
X2239229Y-10074698D02*
X2229705Y-10084222D01*
X2229705Y-10084222D02*
X2220182Y-10074698D01*
X2220182Y-10074698D02*
X2229705Y-10065174D01*
X2229705Y-10065174D02*
X2229705Y-10084222D01*
D12*
X567500Y-10502500D02*
X597500Y-10532500D01*
X597500Y-10502500D02*
X567500Y-10532500D01*
D11*
X896372Y-10408984D02*
X915420Y-10408984D01*
X915420Y-10408984D02*
X934467Y-10418508D01*
X934467Y-10418508D02*
X943991Y-10428031D01*
X943991Y-10428031D02*
X953515Y-10447079D01*
X953515Y-10447079D02*
X963039Y-10485174D01*
X963039Y-10485174D02*
X963039Y-10532793D01*
X963039Y-10532793D02*
X953515Y-10570889D01*
X953515Y-10570889D02*
X943991Y-10589936D01*
X943991Y-10589936D02*
X934467Y-10599460D01*
X934467Y-10599460D02*
X915420Y-10608984D01*
X915420Y-10608984D02*
X896372Y-10608984D01*
X896372Y-10608984D02*
X877324Y-10599460D01*
X877324Y-10599460D02*
X867801Y-10589936D01*
X867801Y-10589936D02*
X858277Y-10570889D01*
X858277Y-10570889D02*
X848753Y-10532793D01*
X848753Y-10532793D02*
X848753Y-10485174D01*
X848753Y-10485174D02*
X858277Y-10447079D01*
X858277Y-10447079D02*
X867801Y-10428031D01*
X867801Y-10428031D02*
X877324Y-10418508D01*
X877324Y-10418508D02*
X896372Y-10408984D01*
X1048753Y-10589936D02*
X1058277Y-10599460D01*
X1058277Y-10599460D02*
X1048753Y-10608984D01*
X1048753Y-10608984D02*
X1039229Y-10599460D01*
X1039229Y-10599460D02*
X1048753Y-10589936D01*
X1048753Y-10589936D02*
X1048753Y-10608984D01*
X1124944Y-10408984D02*
X1248753Y-10408984D01*
X1248753Y-10408984D02*
X1182086Y-10485174D01*
X1182086Y-10485174D02*
X1210658Y-10485174D01*
X1210658Y-10485174D02*
X1229705Y-10494698D01*
X1229705Y-10494698D02*
X1239229Y-10504222D01*
X1239229Y-10504222D02*
X1248753Y-10523270D01*
X1248753Y-10523270D02*
X1248753Y-10570889D01*
X1248753Y-10570889D02*
X1239229Y-10589936D01*
X1239229Y-10589936D02*
X1229705Y-10599460D01*
X1229705Y-10599460D02*
X1210658Y-10608984D01*
X1210658Y-10608984D02*
X1153515Y-10608984D01*
X1153515Y-10608984D02*
X1134467Y-10599460D01*
X1134467Y-10599460D02*
X1124944Y-10589936D01*
X1372563Y-10408984D02*
X1391610Y-10408984D01*
X1391610Y-10408984D02*
X1410658Y-10418508D01*
X1410658Y-10418508D02*
X1420182Y-10428031D01*
X1420182Y-10428031D02*
X1429705Y-10447079D01*
X1429705Y-10447079D02*
X1439229Y-10485174D01*
X1439229Y-10485174D02*
X1439229Y-10532793D01*
X1439229Y-10532793D02*
X1429705Y-10570889D01*
X1429705Y-10570889D02*
X1420182Y-10589936D01*
X1420182Y-10589936D02*
X1410658Y-10599460D01*
X1410658Y-10599460D02*
X1391610Y-10608984D01*
X1391610Y-10608984D02*
X1372563Y-10608984D01*
X1372563Y-10608984D02*
X1353515Y-10599460D01*
X1353515Y-10599460D02*
X1343991Y-10589936D01*
X1343991Y-10589936D02*
X1334467Y-10570889D01*
X1334467Y-10570889D02*
X1324944Y-10532793D01*
X1324944Y-10532793D02*
X1324944Y-10485174D01*
X1324944Y-10485174D02*
X1334467Y-10447079D01*
X1334467Y-10447079D02*
X1343991Y-10428031D01*
X1343991Y-10428031D02*
X1353515Y-10418508D01*
X1353515Y-10418508D02*
X1372563Y-10408984D01*
X1563039Y-10408984D02*
X1582086Y-10408984D01*
X1582086Y-10408984D02*
X1601134Y-10418508D01*
X1601134Y-10418508D02*
X1610658Y-10428031D01*
X1610658Y-10428031D02*
X1620182Y-10447079D01*
X1620182Y-10447079D02*
X1629705Y-10485174D01*
X1629705Y-10485174D02*
X1629705Y-10532793D01*
X1629705Y-10532793D02*
X1620182Y-10570889D01*
X1620182Y-10570889D02*
X1610658Y-10589936D01*
X1610658Y-10589936D02*
X1601134Y-10599460D01*
X1601134Y-10599460D02*
X1582086Y-10608984D01*
X1582086Y-10608984D02*
X1563039Y-10608984D01*
X1563039Y-10608984D02*
X1543991Y-10599460D01*
X1543991Y-10599460D02*
X1534467Y-10589936D01*
X1534467Y-10589936D02*
X1524943Y-10570889D01*
X1524943Y-10570889D02*
X1515420Y-10532793D01*
X1515420Y-10532793D02*
X1515420Y-10485174D01*
X1515420Y-10485174D02*
X1524943Y-10447079D01*
X1524943Y-10447079D02*
X1534467Y-10428031D01*
X1534467Y-10428031D02*
X1543991Y-10418508D01*
X1543991Y-10418508D02*
X1563039Y-10408984D01*
X1715420Y-10608984D02*
X1715420Y-10475650D01*
X1715420Y-10494698D02*
X1724943Y-10485174D01*
X1724943Y-10485174D02*
X1743991Y-10475650D01*
X1743991Y-10475650D02*
X1772563Y-10475650D01*
X1772563Y-10475650D02*
X1791610Y-10485174D01*
X1791610Y-10485174D02*
X1801134Y-10504222D01*
X1801134Y-10504222D02*
X1801134Y-10608984D01*
X1801134Y-10504222D02*
X1810658Y-10485174D01*
X1810658Y-10485174D02*
X1829705Y-10475650D01*
X1829705Y-10475650D02*
X1858277Y-10475650D01*
X1858277Y-10475650D02*
X1877324Y-10485174D01*
X1877324Y-10485174D02*
X1886848Y-10504222D01*
X1886848Y-10504222D02*
X1886848Y-10608984D01*
X1982086Y-10608984D02*
X1982086Y-10475650D01*
X1982086Y-10494698D02*
X1991610Y-10485174D01*
X1991610Y-10485174D02*
X2010658Y-10475650D01*
X2010658Y-10475650D02*
X2039229Y-10475650D01*
X2039229Y-10475650D02*
X2058277Y-10485174D01*
X2058277Y-10485174D02*
X2067801Y-10504222D01*
X2067801Y-10504222D02*
X2067801Y-10608984D01*
X2067801Y-10504222D02*
X2077324Y-10485174D01*
X2077324Y-10485174D02*
X2096372Y-10475650D01*
X2096372Y-10475650D02*
X2124944Y-10475650D01*
X2124944Y-10475650D02*
X2143991Y-10485174D01*
X2143991Y-10485174D02*
X2153515Y-10504222D01*
X2153515Y-10504222D02*
X2153515Y-10608984D01*
X2543991Y-10399460D02*
X2372563Y-10656603D01*
X2801134Y-10408984D02*
X2820182Y-10408984D01*
X2820182Y-10408984D02*
X2839229Y-10418508D01*
X2839229Y-10418508D02*
X2848753Y-10428031D01*
X2848753Y-10428031D02*
X2858277Y-10447079D01*
X2858277Y-10447079D02*
X2867801Y-10485174D01*
X2867801Y-10485174D02*
X2867801Y-10532793D01*
X2867801Y-10532793D02*
X2858277Y-10570889D01*
X2858277Y-10570889D02*
X2848753Y-10589936D01*
X2848753Y-10589936D02*
X2839229Y-10599460D01*
X2839229Y-10599460D02*
X2820182Y-10608984D01*
X2820182Y-10608984D02*
X2801134Y-10608984D01*
X2801134Y-10608984D02*
X2782087Y-10599460D01*
X2782087Y-10599460D02*
X2772563Y-10589936D01*
X2772563Y-10589936D02*
X2763039Y-10570889D01*
X2763039Y-10570889D02*
X2753515Y-10532793D01*
X2753515Y-10532793D02*
X2753515Y-10485174D01*
X2753515Y-10485174D02*
X2763039Y-10447079D01*
X2763039Y-10447079D02*
X2772563Y-10428031D01*
X2772563Y-10428031D02*
X2782087Y-10418508D01*
X2782087Y-10418508D02*
X2801134Y-10408984D01*
X2953515Y-10589936D02*
X2963039Y-10599460D01*
X2963039Y-10599460D02*
X2953515Y-10608984D01*
X2953515Y-10608984D02*
X2943991Y-10599460D01*
X2943991Y-10599460D02*
X2953515Y-10589936D01*
X2953515Y-10589936D02*
X2953515Y-10608984D01*
X3086848Y-10408984D02*
X3105896Y-10408984D01*
X3105896Y-10408984D02*
X3124944Y-10418508D01*
X3124944Y-10418508D02*
X3134467Y-10428031D01*
X3134467Y-10428031D02*
X3143991Y-10447079D01*
X3143991Y-10447079D02*
X3153515Y-10485174D01*
X3153515Y-10485174D02*
X3153515Y-10532793D01*
X3153515Y-10532793D02*
X3143991Y-10570889D01*
X3143991Y-10570889D02*
X3134467Y-10589936D01*
X3134467Y-10589936D02*
X3124944Y-10599460D01*
X3124944Y-10599460D02*
X3105896Y-10608984D01*
X3105896Y-10608984D02*
X3086848Y-10608984D01*
X3086848Y-10608984D02*
X3067801Y-10599460D01*
X3067801Y-10599460D02*
X3058277Y-10589936D01*
X3058277Y-10589936D02*
X3048753Y-10570889D01*
X3048753Y-10570889D02*
X3039229Y-10532793D01*
X3039229Y-10532793D02*
X3039229Y-10485174D01*
X3039229Y-10485174D02*
X3048753Y-10447079D01*
X3048753Y-10447079D02*
X3058277Y-10428031D01*
X3058277Y-10428031D02*
X3067801Y-10418508D01*
X3067801Y-10418508D02*
X3086848Y-10408984D01*
X3343991Y-10608984D02*
X3229706Y-10608984D01*
X3286848Y-10608984D02*
X3286848Y-10408984D01*
X3286848Y-10408984D02*
X3267801Y-10437555D01*
X3267801Y-10437555D02*
X3248753Y-10456603D01*
X3248753Y-10456603D02*
X3229706Y-10466127D01*
X3534467Y-10608984D02*
X3420182Y-10608984D01*
X3477325Y-10608984D02*
X3477325Y-10408984D01*
X3477325Y-10408984D02*
X3458277Y-10437555D01*
X3458277Y-10437555D02*
X3439229Y-10456603D01*
X3439229Y-10456603D02*
X3420182Y-10466127D01*
X3648753Y-10494698D02*
X3629706Y-10485174D01*
X3629706Y-10485174D02*
X3620182Y-10475650D01*
X3620182Y-10475650D02*
X3610658Y-10456603D01*
X3610658Y-10456603D02*
X3610658Y-10447079D01*
X3610658Y-10447079D02*
X3620182Y-10428031D01*
X3620182Y-10428031D02*
X3629706Y-10418508D01*
X3629706Y-10418508D02*
X3648753Y-10408984D01*
X3648753Y-10408984D02*
X3686848Y-10408984D01*
X3686848Y-10408984D02*
X3705896Y-10418508D01*
X3705896Y-10418508D02*
X3715420Y-10428031D01*
X3715420Y-10428031D02*
X3724944Y-10447079D01*
X3724944Y-10447079D02*
X3724944Y-10456603D01*
X3724944Y-10456603D02*
X3715420Y-10475650D01*
X3715420Y-10475650D02*
X3705896Y-10485174D01*
X3705896Y-10485174D02*
X3686848Y-10494698D01*
X3686848Y-10494698D02*
X3648753Y-10494698D01*
X3648753Y-10494698D02*
X3629706Y-10504222D01*
X3629706Y-10504222D02*
X3620182Y-10513746D01*
X3620182Y-10513746D02*
X3610658Y-10532793D01*
X3610658Y-10532793D02*
X3610658Y-10570889D01*
X3610658Y-10570889D02*
X3620182Y-10589936D01*
X3620182Y-10589936D02*
X3629706Y-10599460D01*
X3629706Y-10599460D02*
X3648753Y-10608984D01*
X3648753Y-10608984D02*
X3686848Y-10608984D01*
X3686848Y-10608984D02*
X3705896Y-10599460D01*
X3705896Y-10599460D02*
X3715420Y-10589936D01*
X3715420Y-10589936D02*
X3724944Y-10570889D01*
X3724944Y-10570889D02*
X3724944Y-10532793D01*
X3724944Y-10532793D02*
X3715420Y-10513746D01*
X3715420Y-10513746D02*
X3705896Y-10504222D01*
X3705896Y-10504222D02*
X3686848Y-10494698D01*
X3801134Y-10408984D02*
X3801134Y-10447079D01*
X3877325Y-10408984D02*
X3877325Y-10447079D01*
X4172563Y-10685174D02*
X4163039Y-10675650D01*
X4163039Y-10675650D02*
X4143991Y-10647079D01*
X4143991Y-10647079D02*
X4134468Y-10628031D01*
X4134468Y-10628031D02*
X4124944Y-10599460D01*
X4124944Y-10599460D02*
X4115420Y-10551841D01*
X4115420Y-10551841D02*
X4115420Y-10513746D01*
X4115420Y-10513746D02*
X4124944Y-10466127D01*
X4124944Y-10466127D02*
X4134468Y-10437555D01*
X4134468Y-10437555D02*
X4143991Y-10418508D01*
X4143991Y-10418508D02*
X4163039Y-10389936D01*
X4163039Y-10389936D02*
X4172563Y-10380412D01*
X4258277Y-10608984D02*
X4296372Y-10608984D01*
X4296372Y-10608984D02*
X4315420Y-10599460D01*
X4315420Y-10599460D02*
X4324944Y-10589936D01*
X4324944Y-10589936D02*
X4343991Y-10561365D01*
X4343991Y-10561365D02*
X4353515Y-10523270D01*
X4353515Y-10523270D02*
X4353515Y-10447079D01*
X4353515Y-10447079D02*
X4343991Y-10428031D01*
X4343991Y-10428031D02*
X4334468Y-10418508D01*
X4334468Y-10418508D02*
X4315420Y-10408984D01*
X4315420Y-10408984D02*
X4277325Y-10408984D01*
X4277325Y-10408984D02*
X4258277Y-10418508D01*
X4258277Y-10418508D02*
X4248753Y-10428031D01*
X4248753Y-10428031D02*
X4239230Y-10447079D01*
X4239230Y-10447079D02*
X4239230Y-10494698D01*
X4239230Y-10494698D02*
X4248753Y-10513746D01*
X4248753Y-10513746D02*
X4258277Y-10523270D01*
X4258277Y-10523270D02*
X4277325Y-10532793D01*
X4277325Y-10532793D02*
X4315420Y-10532793D01*
X4315420Y-10532793D02*
X4334468Y-10523270D01*
X4334468Y-10523270D02*
X4343991Y-10513746D01*
X4343991Y-10513746D02*
X4353515Y-10494698D01*
X4477325Y-10408984D02*
X4496372Y-10408984D01*
X4496372Y-10408984D02*
X4515420Y-10418508D01*
X4515420Y-10418508D02*
X4524944Y-10428031D01*
X4524944Y-10428031D02*
X4534468Y-10447079D01*
X4534468Y-10447079D02*
X4543991Y-10485174D01*
X4543991Y-10485174D02*
X4543991Y-10532793D01*
X4543991Y-10532793D02*
X4534468Y-10570889D01*
X4534468Y-10570889D02*
X4524944Y-10589936D01*
X4524944Y-10589936D02*
X4515420Y-10599460D01*
X4515420Y-10599460D02*
X4496372Y-10608984D01*
X4496372Y-10608984D02*
X4477325Y-10608984D01*
X4477325Y-10608984D02*
X4458277Y-10599460D01*
X4458277Y-10599460D02*
X4448753Y-10589936D01*
X4448753Y-10589936D02*
X4439230Y-10570889D01*
X4439230Y-10570889D02*
X4429706Y-10532793D01*
X4429706Y-10532793D02*
X4429706Y-10485174D01*
X4429706Y-10485174D02*
X4439230Y-10447079D01*
X4439230Y-10447079D02*
X4448753Y-10428031D01*
X4448753Y-10428031D02*
X4458277Y-10418508D01*
X4458277Y-10418508D02*
X4477325Y-10408984D01*
X4782087Y-10608984D02*
X4782087Y-10408984D01*
X4867801Y-10608984D02*
X4867801Y-10504222D01*
X4867801Y-10504222D02*
X4858277Y-10485174D01*
X4858277Y-10485174D02*
X4839230Y-10475650D01*
X4839230Y-10475650D02*
X4810658Y-10475650D01*
X4810658Y-10475650D02*
X4791611Y-10485174D01*
X4791611Y-10485174D02*
X4782087Y-10494698D01*
X4991611Y-10608984D02*
X4972563Y-10599460D01*
X4972563Y-10599460D02*
X4963039Y-10589936D01*
X4963039Y-10589936D02*
X4953515Y-10570889D01*
X4953515Y-10570889D02*
X4953515Y-10513746D01*
X4953515Y-10513746D02*
X4963039Y-10494698D01*
X4963039Y-10494698D02*
X4972563Y-10485174D01*
X4972563Y-10485174D02*
X4991611Y-10475650D01*
X4991611Y-10475650D02*
X5020182Y-10475650D01*
X5020182Y-10475650D02*
X5039230Y-10485174D01*
X5039230Y-10485174D02*
X5048753Y-10494698D01*
X5048753Y-10494698D02*
X5058277Y-10513746D01*
X5058277Y-10513746D02*
X5058277Y-10570889D01*
X5058277Y-10570889D02*
X5048753Y-10589936D01*
X5048753Y-10589936D02*
X5039230Y-10599460D01*
X5039230Y-10599460D02*
X5020182Y-10608984D01*
X5020182Y-10608984D02*
X4991611Y-10608984D01*
X5172563Y-10608984D02*
X5153515Y-10599460D01*
X5153515Y-10599460D02*
X5143992Y-10580412D01*
X5143992Y-10580412D02*
X5143992Y-10408984D01*
X5324944Y-10599460D02*
X5305896Y-10608984D01*
X5305896Y-10608984D02*
X5267801Y-10608984D01*
X5267801Y-10608984D02*
X5248753Y-10599460D01*
X5248753Y-10599460D02*
X5239230Y-10580412D01*
X5239230Y-10580412D02*
X5239230Y-10504222D01*
X5239230Y-10504222D02*
X5248753Y-10485174D01*
X5248753Y-10485174D02*
X5267801Y-10475650D01*
X5267801Y-10475650D02*
X5305896Y-10475650D01*
X5305896Y-10475650D02*
X5324944Y-10485174D01*
X5324944Y-10485174D02*
X5334468Y-10504222D01*
X5334468Y-10504222D02*
X5334468Y-10523270D01*
X5334468Y-10523270D02*
X5239230Y-10542317D01*
X5410658Y-10599460D02*
X5429706Y-10608984D01*
X5429706Y-10608984D02*
X5467801Y-10608984D01*
X5467801Y-10608984D02*
X5486849Y-10599460D01*
X5486849Y-10599460D02*
X5496373Y-10580412D01*
X5496373Y-10580412D02*
X5496373Y-10570889D01*
X5496373Y-10570889D02*
X5486849Y-10551841D01*
X5486849Y-10551841D02*
X5467801Y-10542317D01*
X5467801Y-10542317D02*
X5439230Y-10542317D01*
X5439230Y-10542317D02*
X5420182Y-10532793D01*
X5420182Y-10532793D02*
X5410658Y-10513746D01*
X5410658Y-10513746D02*
X5410658Y-10504222D01*
X5410658Y-10504222D02*
X5420182Y-10485174D01*
X5420182Y-10485174D02*
X5439230Y-10475650D01*
X5439230Y-10475650D02*
X5467801Y-10475650D01*
X5467801Y-10475650D02*
X5486849Y-10485174D01*
X5563039Y-10685174D02*
X5572563Y-10675650D01*
X5572563Y-10675650D02*
X5591611Y-10647079D01*
X5591611Y-10647079D02*
X5601134Y-10628031D01*
X5601134Y-10628031D02*
X5610658Y-10599460D01*
X5610658Y-10599460D02*
X5620182Y-10551841D01*
X5620182Y-10551841D02*
X5620182Y-10513746D01*
X5620182Y-10513746D02*
X5610658Y-10466127D01*
X5610658Y-10466127D02*
X5601134Y-10437555D01*
X5601134Y-10437555D02*
X5591611Y-10418508D01*
X5591611Y-10418508D02*
X5572563Y-10389936D01*
X5572563Y-10389936D02*
X5563039Y-10380412D01*
D12*
X597500Y-10781500D02*
G75*
G02*
X557500Y-10781500I-20000J0D01*
G01*
X557500Y-10781500D02*
G75*
G02*
X597500Y-10781500I20000J0D01*
G01*
D11*
X896372Y-10672984D02*
X915420Y-10672984D01*
X915420Y-10672984D02*
X934467Y-10682508D01*
X934467Y-10682508D02*
X943991Y-10692031D01*
X943991Y-10692031D02*
X953515Y-10711079D01*
X953515Y-10711079D02*
X963039Y-10749174D01*
X963039Y-10749174D02*
X963039Y-10796793D01*
X963039Y-10796793D02*
X953515Y-10834889D01*
X953515Y-10834889D02*
X943991Y-10853936D01*
X943991Y-10853936D02*
X934467Y-10863460D01*
X934467Y-10863460D02*
X915420Y-10872984D01*
X915420Y-10872984D02*
X896372Y-10872984D01*
X896372Y-10872984D02*
X877324Y-10863460D01*
X877324Y-10863460D02*
X867801Y-10853936D01*
X867801Y-10853936D02*
X858277Y-10834889D01*
X858277Y-10834889D02*
X848753Y-10796793D01*
X848753Y-10796793D02*
X848753Y-10749174D01*
X848753Y-10749174D02*
X858277Y-10711079D01*
X858277Y-10711079D02*
X867801Y-10692031D01*
X867801Y-10692031D02*
X877324Y-10682508D01*
X877324Y-10682508D02*
X896372Y-10672984D01*
X1048753Y-10853936D02*
X1058277Y-10863460D01*
X1058277Y-10863460D02*
X1048753Y-10872984D01*
X1048753Y-10872984D02*
X1039229Y-10863460D01*
X1039229Y-10863460D02*
X1048753Y-10853936D01*
X1048753Y-10853936D02*
X1048753Y-10872984D01*
X1229705Y-10739650D02*
X1229705Y-10872984D01*
X1182086Y-10663460D02*
X1134467Y-10806317D01*
X1134467Y-10806317D02*
X1258277Y-10806317D01*
X1372563Y-10672984D02*
X1391610Y-10672984D01*
X1391610Y-10672984D02*
X1410658Y-10682508D01*
X1410658Y-10682508D02*
X1420182Y-10692031D01*
X1420182Y-10692031D02*
X1429705Y-10711079D01*
X1429705Y-10711079D02*
X1439229Y-10749174D01*
X1439229Y-10749174D02*
X1439229Y-10796793D01*
X1439229Y-10796793D02*
X1429705Y-10834889D01*
X1429705Y-10834889D02*
X1420182Y-10853936D01*
X1420182Y-10853936D02*
X1410658Y-10863460D01*
X1410658Y-10863460D02*
X1391610Y-10872984D01*
X1391610Y-10872984D02*
X1372563Y-10872984D01*
X1372563Y-10872984D02*
X1353515Y-10863460D01*
X1353515Y-10863460D02*
X1343991Y-10853936D01*
X1343991Y-10853936D02*
X1334467Y-10834889D01*
X1334467Y-10834889D02*
X1324944Y-10796793D01*
X1324944Y-10796793D02*
X1324944Y-10749174D01*
X1324944Y-10749174D02*
X1334467Y-10711079D01*
X1334467Y-10711079D02*
X1343991Y-10692031D01*
X1343991Y-10692031D02*
X1353515Y-10682508D01*
X1353515Y-10682508D02*
X1372563Y-10672984D01*
X1563039Y-10672984D02*
X1582086Y-10672984D01*
X1582086Y-10672984D02*
X1601134Y-10682508D01*
X1601134Y-10682508D02*
X1610658Y-10692031D01*
X1610658Y-10692031D02*
X1620182Y-10711079D01*
X1620182Y-10711079D02*
X1629705Y-10749174D01*
X1629705Y-10749174D02*
X1629705Y-10796793D01*
X1629705Y-10796793D02*
X1620182Y-10834889D01*
X1620182Y-10834889D02*
X1610658Y-10853936D01*
X1610658Y-10853936D02*
X1601134Y-10863460D01*
X1601134Y-10863460D02*
X1582086Y-10872984D01*
X1582086Y-10872984D02*
X1563039Y-10872984D01*
X1563039Y-10872984D02*
X1543991Y-10863460D01*
X1543991Y-10863460D02*
X1534467Y-10853936D01*
X1534467Y-10853936D02*
X1524943Y-10834889D01*
X1524943Y-10834889D02*
X1515420Y-10796793D01*
X1515420Y-10796793D02*
X1515420Y-10749174D01*
X1515420Y-10749174D02*
X1524943Y-10711079D01*
X1524943Y-10711079D02*
X1534467Y-10692031D01*
X1534467Y-10692031D02*
X1543991Y-10682508D01*
X1543991Y-10682508D02*
X1563039Y-10672984D01*
X1715420Y-10872984D02*
X1715420Y-10739650D01*
X1715420Y-10758698D02*
X1724943Y-10749174D01*
X1724943Y-10749174D02*
X1743991Y-10739650D01*
X1743991Y-10739650D02*
X1772563Y-10739650D01*
X1772563Y-10739650D02*
X1791610Y-10749174D01*
X1791610Y-10749174D02*
X1801134Y-10768222D01*
X1801134Y-10768222D02*
X1801134Y-10872984D01*
X1801134Y-10768222D02*
X1810658Y-10749174D01*
X1810658Y-10749174D02*
X1829705Y-10739650D01*
X1829705Y-10739650D02*
X1858277Y-10739650D01*
X1858277Y-10739650D02*
X1877324Y-10749174D01*
X1877324Y-10749174D02*
X1886848Y-10768222D01*
X1886848Y-10768222D02*
X1886848Y-10872984D01*
X1982086Y-10872984D02*
X1982086Y-10739650D01*
X1982086Y-10758698D02*
X1991610Y-10749174D01*
X1991610Y-10749174D02*
X2010658Y-10739650D01*
X2010658Y-10739650D02*
X2039229Y-10739650D01*
X2039229Y-10739650D02*
X2058277Y-10749174D01*
X2058277Y-10749174D02*
X2067801Y-10768222D01*
X2067801Y-10768222D02*
X2067801Y-10872984D01*
X2067801Y-10768222D02*
X2077324Y-10749174D01*
X2077324Y-10749174D02*
X2096372Y-10739650D01*
X2096372Y-10739650D02*
X2124944Y-10739650D01*
X2124944Y-10739650D02*
X2143991Y-10749174D01*
X2143991Y-10749174D02*
X2153515Y-10768222D01*
X2153515Y-10768222D02*
X2153515Y-10872984D01*
X2543991Y-10663460D02*
X2372563Y-10920603D01*
X2801134Y-10672984D02*
X2820182Y-10672984D01*
X2820182Y-10672984D02*
X2839229Y-10682508D01*
X2839229Y-10682508D02*
X2848753Y-10692031D01*
X2848753Y-10692031D02*
X2858277Y-10711079D01*
X2858277Y-10711079D02*
X2867801Y-10749174D01*
X2867801Y-10749174D02*
X2867801Y-10796793D01*
X2867801Y-10796793D02*
X2858277Y-10834889D01*
X2858277Y-10834889D02*
X2848753Y-10853936D01*
X2848753Y-10853936D02*
X2839229Y-10863460D01*
X2839229Y-10863460D02*
X2820182Y-10872984D01*
X2820182Y-10872984D02*
X2801134Y-10872984D01*
X2801134Y-10872984D02*
X2782087Y-10863460D01*
X2782087Y-10863460D02*
X2772563Y-10853936D01*
X2772563Y-10853936D02*
X2763039Y-10834889D01*
X2763039Y-10834889D02*
X2753515Y-10796793D01*
X2753515Y-10796793D02*
X2753515Y-10749174D01*
X2753515Y-10749174D02*
X2763039Y-10711079D01*
X2763039Y-10711079D02*
X2772563Y-10692031D01*
X2772563Y-10692031D02*
X2782087Y-10682508D01*
X2782087Y-10682508D02*
X2801134Y-10672984D01*
X2953515Y-10853936D02*
X2963039Y-10863460D01*
X2963039Y-10863460D02*
X2953515Y-10872984D01*
X2953515Y-10872984D02*
X2943991Y-10863460D01*
X2943991Y-10863460D02*
X2953515Y-10853936D01*
X2953515Y-10853936D02*
X2953515Y-10872984D01*
X3086848Y-10672984D02*
X3105896Y-10672984D01*
X3105896Y-10672984D02*
X3124944Y-10682508D01*
X3124944Y-10682508D02*
X3134467Y-10692031D01*
X3134467Y-10692031D02*
X3143991Y-10711079D01*
X3143991Y-10711079D02*
X3153515Y-10749174D01*
X3153515Y-10749174D02*
X3153515Y-10796793D01*
X3153515Y-10796793D02*
X3143991Y-10834889D01*
X3143991Y-10834889D02*
X3134467Y-10853936D01*
X3134467Y-10853936D02*
X3124944Y-10863460D01*
X3124944Y-10863460D02*
X3105896Y-10872984D01*
X3105896Y-10872984D02*
X3086848Y-10872984D01*
X3086848Y-10872984D02*
X3067801Y-10863460D01*
X3067801Y-10863460D02*
X3058277Y-10853936D01*
X3058277Y-10853936D02*
X3048753Y-10834889D01*
X3048753Y-10834889D02*
X3039229Y-10796793D01*
X3039229Y-10796793D02*
X3039229Y-10749174D01*
X3039229Y-10749174D02*
X3048753Y-10711079D01*
X3048753Y-10711079D02*
X3058277Y-10692031D01*
X3058277Y-10692031D02*
X3067801Y-10682508D01*
X3067801Y-10682508D02*
X3086848Y-10672984D01*
X3343991Y-10872984D02*
X3229706Y-10872984D01*
X3286848Y-10872984D02*
X3286848Y-10672984D01*
X3286848Y-10672984D02*
X3267801Y-10701555D01*
X3267801Y-10701555D02*
X3248753Y-10720603D01*
X3248753Y-10720603D02*
X3229706Y-10730127D01*
X3524944Y-10672984D02*
X3429706Y-10672984D01*
X3429706Y-10672984D02*
X3420182Y-10768222D01*
X3420182Y-10768222D02*
X3429706Y-10758698D01*
X3429706Y-10758698D02*
X3448753Y-10749174D01*
X3448753Y-10749174D02*
X3496372Y-10749174D01*
X3496372Y-10749174D02*
X3515420Y-10758698D01*
X3515420Y-10758698D02*
X3524944Y-10768222D01*
X3524944Y-10768222D02*
X3534467Y-10787270D01*
X3534467Y-10787270D02*
X3534467Y-10834889D01*
X3534467Y-10834889D02*
X3524944Y-10853936D01*
X3524944Y-10853936D02*
X3515420Y-10863460D01*
X3515420Y-10863460D02*
X3496372Y-10872984D01*
X3496372Y-10872984D02*
X3448753Y-10872984D01*
X3448753Y-10872984D02*
X3429706Y-10863460D01*
X3429706Y-10863460D02*
X3420182Y-10853936D01*
X3601134Y-10672984D02*
X3734467Y-10672984D01*
X3734467Y-10672984D02*
X3648753Y-10872984D01*
X3801134Y-10672984D02*
X3801134Y-10711079D01*
X3877325Y-10672984D02*
X3877325Y-10711079D01*
X4172563Y-10949174D02*
X4163039Y-10939650D01*
X4163039Y-10939650D02*
X4143991Y-10911079D01*
X4143991Y-10911079D02*
X4134468Y-10892031D01*
X4134468Y-10892031D02*
X4124944Y-10863460D01*
X4124944Y-10863460D02*
X4115420Y-10815841D01*
X4115420Y-10815841D02*
X4115420Y-10777746D01*
X4115420Y-10777746D02*
X4124944Y-10730127D01*
X4124944Y-10730127D02*
X4134468Y-10701555D01*
X4134468Y-10701555D02*
X4143991Y-10682508D01*
X4143991Y-10682508D02*
X4163039Y-10653936D01*
X4163039Y-10653936D02*
X4172563Y-10644412D01*
X4334468Y-10739650D02*
X4334468Y-10872984D01*
X4286849Y-10663460D02*
X4239230Y-10806317D01*
X4239230Y-10806317D02*
X4363039Y-10806317D01*
X4534468Y-10672984D02*
X4439230Y-10672984D01*
X4439230Y-10672984D02*
X4429706Y-10768222D01*
X4429706Y-10768222D02*
X4439230Y-10758698D01*
X4439230Y-10758698D02*
X4458277Y-10749174D01*
X4458277Y-10749174D02*
X4505896Y-10749174D01*
X4505896Y-10749174D02*
X4524944Y-10758698D01*
X4524944Y-10758698D02*
X4534468Y-10768222D01*
X4534468Y-10768222D02*
X4543991Y-10787270D01*
X4543991Y-10787270D02*
X4543991Y-10834889D01*
X4543991Y-10834889D02*
X4534468Y-10853936D01*
X4534468Y-10853936D02*
X4524944Y-10863460D01*
X4524944Y-10863460D02*
X4505896Y-10872984D01*
X4505896Y-10872984D02*
X4458277Y-10872984D01*
X4458277Y-10872984D02*
X4439230Y-10863460D01*
X4439230Y-10863460D02*
X4429706Y-10853936D01*
X4782087Y-10872984D02*
X4782087Y-10672984D01*
X4867801Y-10872984D02*
X4867801Y-10768222D01*
X4867801Y-10768222D02*
X4858277Y-10749174D01*
X4858277Y-10749174D02*
X4839230Y-10739650D01*
X4839230Y-10739650D02*
X4810658Y-10739650D01*
X4810658Y-10739650D02*
X4791611Y-10749174D01*
X4791611Y-10749174D02*
X4782087Y-10758698D01*
X4991611Y-10872984D02*
X4972563Y-10863460D01*
X4972563Y-10863460D02*
X4963039Y-10853936D01*
X4963039Y-10853936D02*
X4953515Y-10834889D01*
X4953515Y-10834889D02*
X4953515Y-10777746D01*
X4953515Y-10777746D02*
X4963039Y-10758698D01*
X4963039Y-10758698D02*
X4972563Y-10749174D01*
X4972563Y-10749174D02*
X4991611Y-10739650D01*
X4991611Y-10739650D02*
X5020182Y-10739650D01*
X5020182Y-10739650D02*
X5039230Y-10749174D01*
X5039230Y-10749174D02*
X5048753Y-10758698D01*
X5048753Y-10758698D02*
X5058277Y-10777746D01*
X5058277Y-10777746D02*
X5058277Y-10834889D01*
X5058277Y-10834889D02*
X5048753Y-10853936D01*
X5048753Y-10853936D02*
X5039230Y-10863460D01*
X5039230Y-10863460D02*
X5020182Y-10872984D01*
X5020182Y-10872984D02*
X4991611Y-10872984D01*
X5172563Y-10872984D02*
X5153515Y-10863460D01*
X5153515Y-10863460D02*
X5143992Y-10844412D01*
X5143992Y-10844412D02*
X5143992Y-10672984D01*
X5324944Y-10863460D02*
X5305896Y-10872984D01*
X5305896Y-10872984D02*
X5267801Y-10872984D01*
X5267801Y-10872984D02*
X5248753Y-10863460D01*
X5248753Y-10863460D02*
X5239230Y-10844412D01*
X5239230Y-10844412D02*
X5239230Y-10768222D01*
X5239230Y-10768222D02*
X5248753Y-10749174D01*
X5248753Y-10749174D02*
X5267801Y-10739650D01*
X5267801Y-10739650D02*
X5305896Y-10739650D01*
X5305896Y-10739650D02*
X5324944Y-10749174D01*
X5324944Y-10749174D02*
X5334468Y-10768222D01*
X5334468Y-10768222D02*
X5334468Y-10787270D01*
X5334468Y-10787270D02*
X5239230Y-10806317D01*
X5410658Y-10863460D02*
X5429706Y-10872984D01*
X5429706Y-10872984D02*
X5467801Y-10872984D01*
X5467801Y-10872984D02*
X5486849Y-10863460D01*
X5486849Y-10863460D02*
X5496373Y-10844412D01*
X5496373Y-10844412D02*
X5496373Y-10834889D01*
X5496373Y-10834889D02*
X5486849Y-10815841D01*
X5486849Y-10815841D02*
X5467801Y-10806317D01*
X5467801Y-10806317D02*
X5439230Y-10806317D01*
X5439230Y-10806317D02*
X5420182Y-10796793D01*
X5420182Y-10796793D02*
X5410658Y-10777746D01*
X5410658Y-10777746D02*
X5410658Y-10768222D01*
X5410658Y-10768222D02*
X5420182Y-10749174D01*
X5420182Y-10749174D02*
X5439230Y-10739650D01*
X5439230Y-10739650D02*
X5467801Y-10739650D01*
X5467801Y-10739650D02*
X5486849Y-10749174D01*
X5563039Y-10949174D02*
X5572563Y-10939650D01*
X5572563Y-10939650D02*
X5591611Y-10911079D01*
X5591611Y-10911079D02*
X5601134Y-10892031D01*
X5601134Y-10892031D02*
X5610658Y-10863460D01*
X5610658Y-10863460D02*
X5620182Y-10815841D01*
X5620182Y-10815841D02*
X5620182Y-10777746D01*
X5620182Y-10777746D02*
X5610658Y-10730127D01*
X5610658Y-10730127D02*
X5601134Y-10701555D01*
X5601134Y-10701555D02*
X5591611Y-10682508D01*
X5591611Y-10682508D02*
X5572563Y-10653936D01*
X5572563Y-10653936D02*
X5563039Y-10644412D01*
D12*
X552500Y-11000500D02*
X552500Y-11090500D01*
X507500Y-11045500D02*
X597500Y-11045500D01*
D11*
X896372Y-10936984D02*
X915420Y-10936984D01*
X915420Y-10936984D02*
X934467Y-10946508D01*
X934467Y-10946508D02*
X943991Y-10956031D01*
X943991Y-10956031D02*
X953515Y-10975079D01*
X953515Y-10975079D02*
X963039Y-11013174D01*
X963039Y-11013174D02*
X963039Y-11060793D01*
X963039Y-11060793D02*
X953515Y-11098889D01*
X953515Y-11098889D02*
X943991Y-11117936D01*
X943991Y-11117936D02*
X934467Y-11127460D01*
X934467Y-11127460D02*
X915420Y-11136984D01*
X915420Y-11136984D02*
X896372Y-11136984D01*
X896372Y-11136984D02*
X877324Y-11127460D01*
X877324Y-11127460D02*
X867801Y-11117936D01*
X867801Y-11117936D02*
X858277Y-11098889D01*
X858277Y-11098889D02*
X848753Y-11060793D01*
X848753Y-11060793D02*
X848753Y-11013174D01*
X848753Y-11013174D02*
X858277Y-10975079D01*
X858277Y-10975079D02*
X867801Y-10956031D01*
X867801Y-10956031D02*
X877324Y-10946508D01*
X877324Y-10946508D02*
X896372Y-10936984D01*
X1048753Y-11117936D02*
X1058277Y-11127460D01*
X1058277Y-11127460D02*
X1048753Y-11136984D01*
X1048753Y-11136984D02*
X1039229Y-11127460D01*
X1039229Y-11127460D02*
X1048753Y-11117936D01*
X1048753Y-11117936D02*
X1048753Y-11136984D01*
X1153515Y-11136984D02*
X1191610Y-11136984D01*
X1191610Y-11136984D02*
X1210658Y-11127460D01*
X1210658Y-11127460D02*
X1220182Y-11117936D01*
X1220182Y-11117936D02*
X1239229Y-11089365D01*
X1239229Y-11089365D02*
X1248753Y-11051270D01*
X1248753Y-11051270D02*
X1248753Y-10975079D01*
X1248753Y-10975079D02*
X1239229Y-10956031D01*
X1239229Y-10956031D02*
X1229705Y-10946508D01*
X1229705Y-10946508D02*
X1210658Y-10936984D01*
X1210658Y-10936984D02*
X1172563Y-10936984D01*
X1172563Y-10936984D02*
X1153515Y-10946508D01*
X1153515Y-10946508D02*
X1143991Y-10956031D01*
X1143991Y-10956031D02*
X1134467Y-10975079D01*
X1134467Y-10975079D02*
X1134467Y-11022698D01*
X1134467Y-11022698D02*
X1143991Y-11041746D01*
X1143991Y-11041746D02*
X1153515Y-11051270D01*
X1153515Y-11051270D02*
X1172563Y-11060793D01*
X1172563Y-11060793D02*
X1210658Y-11060793D01*
X1210658Y-11060793D02*
X1229705Y-11051270D01*
X1229705Y-11051270D02*
X1239229Y-11041746D01*
X1239229Y-11041746D02*
X1248753Y-11022698D01*
X1372563Y-10936984D02*
X1391610Y-10936984D01*
X1391610Y-10936984D02*
X1410658Y-10946508D01*
X1410658Y-10946508D02*
X1420182Y-10956031D01*
X1420182Y-10956031D02*
X1429705Y-10975079D01*
X1429705Y-10975079D02*
X1439229Y-11013174D01*
X1439229Y-11013174D02*
X1439229Y-11060793D01*
X1439229Y-11060793D02*
X1429705Y-11098889D01*
X1429705Y-11098889D02*
X1420182Y-11117936D01*
X1420182Y-11117936D02*
X1410658Y-11127460D01*
X1410658Y-11127460D02*
X1391610Y-11136984D01*
X1391610Y-11136984D02*
X1372563Y-11136984D01*
X1372563Y-11136984D02*
X1353515Y-11127460D01*
X1353515Y-11127460D02*
X1343991Y-11117936D01*
X1343991Y-11117936D02*
X1334467Y-11098889D01*
X1334467Y-11098889D02*
X1324944Y-11060793D01*
X1324944Y-11060793D02*
X1324944Y-11013174D01*
X1324944Y-11013174D02*
X1334467Y-10975079D01*
X1334467Y-10975079D02*
X1343991Y-10956031D01*
X1343991Y-10956031D02*
X1353515Y-10946508D01*
X1353515Y-10946508D02*
X1372563Y-10936984D01*
X1563039Y-10936984D02*
X1582086Y-10936984D01*
X1582086Y-10936984D02*
X1601134Y-10946508D01*
X1601134Y-10946508D02*
X1610658Y-10956031D01*
X1610658Y-10956031D02*
X1620182Y-10975079D01*
X1620182Y-10975079D02*
X1629705Y-11013174D01*
X1629705Y-11013174D02*
X1629705Y-11060793D01*
X1629705Y-11060793D02*
X1620182Y-11098889D01*
X1620182Y-11098889D02*
X1610658Y-11117936D01*
X1610658Y-11117936D02*
X1601134Y-11127460D01*
X1601134Y-11127460D02*
X1582086Y-11136984D01*
X1582086Y-11136984D02*
X1563039Y-11136984D01*
X1563039Y-11136984D02*
X1543991Y-11127460D01*
X1543991Y-11127460D02*
X1534467Y-11117936D01*
X1534467Y-11117936D02*
X1524943Y-11098889D01*
X1524943Y-11098889D02*
X1515420Y-11060793D01*
X1515420Y-11060793D02*
X1515420Y-11013174D01*
X1515420Y-11013174D02*
X1524943Y-10975079D01*
X1524943Y-10975079D02*
X1534467Y-10956031D01*
X1534467Y-10956031D02*
X1543991Y-10946508D01*
X1543991Y-10946508D02*
X1563039Y-10936984D01*
X1715420Y-11136984D02*
X1715420Y-11003650D01*
X1715420Y-11022698D02*
X1724943Y-11013174D01*
X1724943Y-11013174D02*
X1743991Y-11003650D01*
X1743991Y-11003650D02*
X1772563Y-11003650D01*
X1772563Y-11003650D02*
X1791610Y-11013174D01*
X1791610Y-11013174D02*
X1801134Y-11032222D01*
X1801134Y-11032222D02*
X1801134Y-11136984D01*
X1801134Y-11032222D02*
X1810658Y-11013174D01*
X1810658Y-11013174D02*
X1829705Y-11003650D01*
X1829705Y-11003650D02*
X1858277Y-11003650D01*
X1858277Y-11003650D02*
X1877324Y-11013174D01*
X1877324Y-11013174D02*
X1886848Y-11032222D01*
X1886848Y-11032222D02*
X1886848Y-11136984D01*
X1982086Y-11136984D02*
X1982086Y-11003650D01*
X1982086Y-11022698D02*
X1991610Y-11013174D01*
X1991610Y-11013174D02*
X2010658Y-11003650D01*
X2010658Y-11003650D02*
X2039229Y-11003650D01*
X2039229Y-11003650D02*
X2058277Y-11013174D01*
X2058277Y-11013174D02*
X2067801Y-11032222D01*
X2067801Y-11032222D02*
X2067801Y-11136984D01*
X2067801Y-11032222D02*
X2077324Y-11013174D01*
X2077324Y-11013174D02*
X2096372Y-11003650D01*
X2096372Y-11003650D02*
X2124944Y-11003650D01*
X2124944Y-11003650D02*
X2143991Y-11013174D01*
X2143991Y-11013174D02*
X2153515Y-11032222D01*
X2153515Y-11032222D02*
X2153515Y-11136984D01*
X2543991Y-10927460D02*
X2372563Y-11184603D01*
X2801134Y-10936984D02*
X2820182Y-10936984D01*
X2820182Y-10936984D02*
X2839229Y-10946508D01*
X2839229Y-10946508D02*
X2848753Y-10956031D01*
X2848753Y-10956031D02*
X2858277Y-10975079D01*
X2858277Y-10975079D02*
X2867801Y-11013174D01*
X2867801Y-11013174D02*
X2867801Y-11060793D01*
X2867801Y-11060793D02*
X2858277Y-11098889D01*
X2858277Y-11098889D02*
X2848753Y-11117936D01*
X2848753Y-11117936D02*
X2839229Y-11127460D01*
X2839229Y-11127460D02*
X2820182Y-11136984D01*
X2820182Y-11136984D02*
X2801134Y-11136984D01*
X2801134Y-11136984D02*
X2782087Y-11127460D01*
X2782087Y-11127460D02*
X2772563Y-11117936D01*
X2772563Y-11117936D02*
X2763039Y-11098889D01*
X2763039Y-11098889D02*
X2753515Y-11060793D01*
X2753515Y-11060793D02*
X2753515Y-11013174D01*
X2753515Y-11013174D02*
X2763039Y-10975079D01*
X2763039Y-10975079D02*
X2772563Y-10956031D01*
X2772563Y-10956031D02*
X2782087Y-10946508D01*
X2782087Y-10946508D02*
X2801134Y-10936984D01*
X2953515Y-11117936D02*
X2963039Y-11127460D01*
X2963039Y-11127460D02*
X2953515Y-11136984D01*
X2953515Y-11136984D02*
X2943991Y-11127460D01*
X2943991Y-11127460D02*
X2953515Y-11117936D01*
X2953515Y-11117936D02*
X2953515Y-11136984D01*
X3086848Y-10936984D02*
X3105896Y-10936984D01*
X3105896Y-10936984D02*
X3124944Y-10946508D01*
X3124944Y-10946508D02*
X3134467Y-10956031D01*
X3134467Y-10956031D02*
X3143991Y-10975079D01*
X3143991Y-10975079D02*
X3153515Y-11013174D01*
X3153515Y-11013174D02*
X3153515Y-11060793D01*
X3153515Y-11060793D02*
X3143991Y-11098889D01*
X3143991Y-11098889D02*
X3134467Y-11117936D01*
X3134467Y-11117936D02*
X3124944Y-11127460D01*
X3124944Y-11127460D02*
X3105896Y-11136984D01*
X3105896Y-11136984D02*
X3086848Y-11136984D01*
X3086848Y-11136984D02*
X3067801Y-11127460D01*
X3067801Y-11127460D02*
X3058277Y-11117936D01*
X3058277Y-11117936D02*
X3048753Y-11098889D01*
X3048753Y-11098889D02*
X3039229Y-11060793D01*
X3039229Y-11060793D02*
X3039229Y-11013174D01*
X3039229Y-11013174D02*
X3048753Y-10975079D01*
X3048753Y-10975079D02*
X3058277Y-10956031D01*
X3058277Y-10956031D02*
X3067801Y-10946508D01*
X3067801Y-10946508D02*
X3086848Y-10936984D01*
X3220182Y-10936984D02*
X3343991Y-10936984D01*
X3343991Y-10936984D02*
X3277325Y-11013174D01*
X3277325Y-11013174D02*
X3305896Y-11013174D01*
X3305896Y-11013174D02*
X3324944Y-11022698D01*
X3324944Y-11022698D02*
X3334467Y-11032222D01*
X3334467Y-11032222D02*
X3343991Y-11051270D01*
X3343991Y-11051270D02*
X3343991Y-11098889D01*
X3343991Y-11098889D02*
X3334467Y-11117936D01*
X3334467Y-11117936D02*
X3324944Y-11127460D01*
X3324944Y-11127460D02*
X3305896Y-11136984D01*
X3305896Y-11136984D02*
X3248753Y-11136984D01*
X3248753Y-11136984D02*
X3229706Y-11127460D01*
X3229706Y-11127460D02*
X3220182Y-11117936D01*
X3524944Y-10936984D02*
X3429706Y-10936984D01*
X3429706Y-10936984D02*
X3420182Y-11032222D01*
X3420182Y-11032222D02*
X3429706Y-11022698D01*
X3429706Y-11022698D02*
X3448753Y-11013174D01*
X3448753Y-11013174D02*
X3496372Y-11013174D01*
X3496372Y-11013174D02*
X3515420Y-11022698D01*
X3515420Y-11022698D02*
X3524944Y-11032222D01*
X3524944Y-11032222D02*
X3534467Y-11051270D01*
X3534467Y-11051270D02*
X3534467Y-11098889D01*
X3534467Y-11098889D02*
X3524944Y-11117936D01*
X3524944Y-11117936D02*
X3515420Y-11127460D01*
X3515420Y-11127460D02*
X3496372Y-11136984D01*
X3496372Y-11136984D02*
X3448753Y-11136984D01*
X3448753Y-11136984D02*
X3429706Y-11127460D01*
X3429706Y-11127460D02*
X3420182Y-11117936D01*
X3705896Y-11003650D02*
X3705896Y-11136984D01*
X3658277Y-10927460D02*
X3610658Y-11070317D01*
X3610658Y-11070317D02*
X3734467Y-11070317D01*
X3801134Y-10936984D02*
X3801134Y-10975079D01*
X3877325Y-10936984D02*
X3877325Y-10975079D01*
X4172563Y-11213174D02*
X4163039Y-11203650D01*
X4163039Y-11203650D02*
X4143991Y-11175079D01*
X4143991Y-11175079D02*
X4134468Y-11156031D01*
X4134468Y-11156031D02*
X4124944Y-11127460D01*
X4124944Y-11127460D02*
X4115420Y-11079841D01*
X4115420Y-11079841D02*
X4115420Y-11041746D01*
X4115420Y-11041746D02*
X4124944Y-10994127D01*
X4124944Y-10994127D02*
X4134468Y-10965555D01*
X4134468Y-10965555D02*
X4143991Y-10946508D01*
X4143991Y-10946508D02*
X4163039Y-10917936D01*
X4163039Y-10917936D02*
X4172563Y-10908412D01*
X4229706Y-10936984D02*
X4353515Y-10936984D01*
X4353515Y-10936984D02*
X4286849Y-11013174D01*
X4286849Y-11013174D02*
X4315420Y-11013174D01*
X4315420Y-11013174D02*
X4334468Y-11022698D01*
X4334468Y-11022698D02*
X4343991Y-11032222D01*
X4343991Y-11032222D02*
X4353515Y-11051270D01*
X4353515Y-11051270D02*
X4353515Y-11098889D01*
X4353515Y-11098889D02*
X4343991Y-11117936D01*
X4343991Y-11117936D02*
X4334468Y-11127460D01*
X4334468Y-11127460D02*
X4315420Y-11136984D01*
X4315420Y-11136984D02*
X4258277Y-11136984D01*
X4258277Y-11136984D02*
X4239230Y-11127460D01*
X4239230Y-11127460D02*
X4229706Y-11117936D01*
X4467801Y-11022698D02*
X4448753Y-11013174D01*
X4448753Y-11013174D02*
X4439230Y-11003650D01*
X4439230Y-11003650D02*
X4429706Y-10984603D01*
X4429706Y-10984603D02*
X4429706Y-10975079D01*
X4429706Y-10975079D02*
X4439230Y-10956031D01*
X4439230Y-10956031D02*
X4448753Y-10946508D01*
X4448753Y-10946508D02*
X4467801Y-10936984D01*
X4467801Y-10936984D02*
X4505896Y-10936984D01*
X4505896Y-10936984D02*
X4524944Y-10946508D01*
X4524944Y-10946508D02*
X4534468Y-10956031D01*
X4534468Y-10956031D02*
X4543991Y-10975079D01*
X4543991Y-10975079D02*
X4543991Y-10984603D01*
X4543991Y-10984603D02*
X4534468Y-11003650D01*
X4534468Y-11003650D02*
X4524944Y-11013174D01*
X4524944Y-11013174D02*
X4505896Y-11022698D01*
X4505896Y-11022698D02*
X4467801Y-11022698D01*
X4467801Y-11022698D02*
X4448753Y-11032222D01*
X4448753Y-11032222D02*
X4439230Y-11041746D01*
X4439230Y-11041746D02*
X4429706Y-11060793D01*
X4429706Y-11060793D02*
X4429706Y-11098889D01*
X4429706Y-11098889D02*
X4439230Y-11117936D01*
X4439230Y-11117936D02*
X4448753Y-11127460D01*
X4448753Y-11127460D02*
X4467801Y-11136984D01*
X4467801Y-11136984D02*
X4505896Y-11136984D01*
X4505896Y-11136984D02*
X4524944Y-11127460D01*
X4524944Y-11127460D02*
X4534468Y-11117936D01*
X4534468Y-11117936D02*
X4543991Y-11098889D01*
X4543991Y-11098889D02*
X4543991Y-11060793D01*
X4543991Y-11060793D02*
X4534468Y-11041746D01*
X4534468Y-11041746D02*
X4524944Y-11032222D01*
X4524944Y-11032222D02*
X4505896Y-11022698D01*
X4782087Y-11136984D02*
X4782087Y-10936984D01*
X4867801Y-11136984D02*
X4867801Y-11032222D01*
X4867801Y-11032222D02*
X4858277Y-11013174D01*
X4858277Y-11013174D02*
X4839230Y-11003650D01*
X4839230Y-11003650D02*
X4810658Y-11003650D01*
X4810658Y-11003650D02*
X4791611Y-11013174D01*
X4791611Y-11013174D02*
X4782087Y-11022698D01*
X4991611Y-11136984D02*
X4972563Y-11127460D01*
X4972563Y-11127460D02*
X4963039Y-11117936D01*
X4963039Y-11117936D02*
X4953515Y-11098889D01*
X4953515Y-11098889D02*
X4953515Y-11041746D01*
X4953515Y-11041746D02*
X4963039Y-11022698D01*
X4963039Y-11022698D02*
X4972563Y-11013174D01*
X4972563Y-11013174D02*
X4991611Y-11003650D01*
X4991611Y-11003650D02*
X5020182Y-11003650D01*
X5020182Y-11003650D02*
X5039230Y-11013174D01*
X5039230Y-11013174D02*
X5048753Y-11022698D01*
X5048753Y-11022698D02*
X5058277Y-11041746D01*
X5058277Y-11041746D02*
X5058277Y-11098889D01*
X5058277Y-11098889D02*
X5048753Y-11117936D01*
X5048753Y-11117936D02*
X5039230Y-11127460D01*
X5039230Y-11127460D02*
X5020182Y-11136984D01*
X5020182Y-11136984D02*
X4991611Y-11136984D01*
X5172563Y-11136984D02*
X5153515Y-11127460D01*
X5153515Y-11127460D02*
X5143992Y-11108412D01*
X5143992Y-11108412D02*
X5143992Y-10936984D01*
X5324944Y-11127460D02*
X5305896Y-11136984D01*
X5305896Y-11136984D02*
X5267801Y-11136984D01*
X5267801Y-11136984D02*
X5248753Y-11127460D01*
X5248753Y-11127460D02*
X5239230Y-11108412D01*
X5239230Y-11108412D02*
X5239230Y-11032222D01*
X5239230Y-11032222D02*
X5248753Y-11013174D01*
X5248753Y-11013174D02*
X5267801Y-11003650D01*
X5267801Y-11003650D02*
X5305896Y-11003650D01*
X5305896Y-11003650D02*
X5324944Y-11013174D01*
X5324944Y-11013174D02*
X5334468Y-11032222D01*
X5334468Y-11032222D02*
X5334468Y-11051270D01*
X5334468Y-11051270D02*
X5239230Y-11070317D01*
X5410658Y-11127460D02*
X5429706Y-11136984D01*
X5429706Y-11136984D02*
X5467801Y-11136984D01*
X5467801Y-11136984D02*
X5486849Y-11127460D01*
X5486849Y-11127460D02*
X5496373Y-11108412D01*
X5496373Y-11108412D02*
X5496373Y-11098889D01*
X5496373Y-11098889D02*
X5486849Y-11079841D01*
X5486849Y-11079841D02*
X5467801Y-11070317D01*
X5467801Y-11070317D02*
X5439230Y-11070317D01*
X5439230Y-11070317D02*
X5420182Y-11060793D01*
X5420182Y-11060793D02*
X5410658Y-11041746D01*
X5410658Y-11041746D02*
X5410658Y-11032222D01*
X5410658Y-11032222D02*
X5420182Y-11013174D01*
X5420182Y-11013174D02*
X5439230Y-11003650D01*
X5439230Y-11003650D02*
X5467801Y-11003650D01*
X5467801Y-11003650D02*
X5486849Y-11013174D01*
X5563039Y-11213174D02*
X5572563Y-11203650D01*
X5572563Y-11203650D02*
X5591611Y-11175079D01*
X5591611Y-11175079D02*
X5601134Y-11156031D01*
X5601134Y-11156031D02*
X5610658Y-11127460D01*
X5610658Y-11127460D02*
X5620182Y-11079841D01*
X5620182Y-11079841D02*
X5620182Y-11041746D01*
X5620182Y-11041746D02*
X5610658Y-10994127D01*
X5610658Y-10994127D02*
X5601134Y-10965555D01*
X5601134Y-10965555D02*
X5591611Y-10946508D01*
X5591611Y-10946508D02*
X5572563Y-10917936D01*
X5572563Y-10917936D02*
X5563039Y-10908412D01*
D12*
X582993Y-11344523D02*
X582993Y-11274477D01*
X512947Y-11274477D01*
X512947Y-11344523D01*
X582993Y-11344523D01*
D11*
X896372Y-11200984D02*
X915420Y-11200984D01*
X915420Y-11200984D02*
X934467Y-11210508D01*
X934467Y-11210508D02*
X943991Y-11220031D01*
X943991Y-11220031D02*
X953515Y-11239079D01*
X953515Y-11239079D02*
X963039Y-11277174D01*
X963039Y-11277174D02*
X963039Y-11324793D01*
X963039Y-11324793D02*
X953515Y-11362888D01*
X953515Y-11362888D02*
X943991Y-11381936D01*
X943991Y-11381936D02*
X934467Y-11391460D01*
X934467Y-11391460D02*
X915420Y-11400984D01*
X915420Y-11400984D02*
X896372Y-11400984D01*
X896372Y-11400984D02*
X877324Y-11391460D01*
X877324Y-11391460D02*
X867801Y-11381936D01*
X867801Y-11381936D02*
X858277Y-11362888D01*
X858277Y-11362888D02*
X848753Y-11324793D01*
X848753Y-11324793D02*
X848753Y-11277174D01*
X848753Y-11277174D02*
X858277Y-11239079D01*
X858277Y-11239079D02*
X867801Y-11220031D01*
X867801Y-11220031D02*
X877324Y-11210508D01*
X877324Y-11210508D02*
X896372Y-11200984D01*
X1048753Y-11381936D02*
X1058277Y-11391460D01*
X1058277Y-11391460D02*
X1048753Y-11400984D01*
X1048753Y-11400984D02*
X1039229Y-11391460D01*
X1039229Y-11391460D02*
X1048753Y-11381936D01*
X1048753Y-11381936D02*
X1048753Y-11400984D01*
X1153515Y-11400984D02*
X1191610Y-11400984D01*
X1191610Y-11400984D02*
X1210658Y-11391460D01*
X1210658Y-11391460D02*
X1220182Y-11381936D01*
X1220182Y-11381936D02*
X1239229Y-11353365D01*
X1239229Y-11353365D02*
X1248753Y-11315269D01*
X1248753Y-11315269D02*
X1248753Y-11239079D01*
X1248753Y-11239079D02*
X1239229Y-11220031D01*
X1239229Y-11220031D02*
X1229705Y-11210508D01*
X1229705Y-11210508D02*
X1210658Y-11200984D01*
X1210658Y-11200984D02*
X1172563Y-11200984D01*
X1172563Y-11200984D02*
X1153515Y-11210508D01*
X1153515Y-11210508D02*
X1143991Y-11220031D01*
X1143991Y-11220031D02*
X1134467Y-11239079D01*
X1134467Y-11239079D02*
X1134467Y-11286698D01*
X1134467Y-11286698D02*
X1143991Y-11305746D01*
X1143991Y-11305746D02*
X1153515Y-11315269D01*
X1153515Y-11315269D02*
X1172563Y-11324793D01*
X1172563Y-11324793D02*
X1210658Y-11324793D01*
X1210658Y-11324793D02*
X1229705Y-11315269D01*
X1229705Y-11315269D02*
X1239229Y-11305746D01*
X1239229Y-11305746D02*
X1248753Y-11286698D01*
X1343991Y-11400984D02*
X1382086Y-11400984D01*
X1382086Y-11400984D02*
X1401134Y-11391460D01*
X1401134Y-11391460D02*
X1410658Y-11381936D01*
X1410658Y-11381936D02*
X1429705Y-11353365D01*
X1429705Y-11353365D02*
X1439229Y-11315269D01*
X1439229Y-11315269D02*
X1439229Y-11239079D01*
X1439229Y-11239079D02*
X1429705Y-11220031D01*
X1429705Y-11220031D02*
X1420182Y-11210508D01*
X1420182Y-11210508D02*
X1401134Y-11200984D01*
X1401134Y-11200984D02*
X1363039Y-11200984D01*
X1363039Y-11200984D02*
X1343991Y-11210508D01*
X1343991Y-11210508D02*
X1334467Y-11220031D01*
X1334467Y-11220031D02*
X1324944Y-11239079D01*
X1324944Y-11239079D02*
X1324944Y-11286698D01*
X1324944Y-11286698D02*
X1334467Y-11305746D01*
X1334467Y-11305746D02*
X1343991Y-11315269D01*
X1343991Y-11315269D02*
X1363039Y-11324793D01*
X1363039Y-11324793D02*
X1401134Y-11324793D01*
X1401134Y-11324793D02*
X1420182Y-11315269D01*
X1420182Y-11315269D02*
X1429705Y-11305746D01*
X1429705Y-11305746D02*
X1439229Y-11286698D01*
X1629705Y-11400984D02*
X1515420Y-11400984D01*
X1572562Y-11400984D02*
X1572562Y-11200984D01*
X1572562Y-11200984D02*
X1553515Y-11229555D01*
X1553515Y-11229555D02*
X1534467Y-11248603D01*
X1534467Y-11248603D02*
X1515420Y-11258127D01*
X1715420Y-11400984D02*
X1715420Y-11267650D01*
X1715420Y-11286698D02*
X1724943Y-11277174D01*
X1724943Y-11277174D02*
X1743991Y-11267650D01*
X1743991Y-11267650D02*
X1772563Y-11267650D01*
X1772563Y-11267650D02*
X1791610Y-11277174D01*
X1791610Y-11277174D02*
X1801134Y-11296222D01*
X1801134Y-11296222D02*
X1801134Y-11400984D01*
X1801134Y-11296222D02*
X1810658Y-11277174D01*
X1810658Y-11277174D02*
X1829705Y-11267650D01*
X1829705Y-11267650D02*
X1858277Y-11267650D01*
X1858277Y-11267650D02*
X1877324Y-11277174D01*
X1877324Y-11277174D02*
X1886848Y-11296222D01*
X1886848Y-11296222D02*
X1886848Y-11400984D01*
X1982086Y-11400984D02*
X1982086Y-11267650D01*
X1982086Y-11286698D02*
X1991610Y-11277174D01*
X1991610Y-11277174D02*
X2010658Y-11267650D01*
X2010658Y-11267650D02*
X2039229Y-11267650D01*
X2039229Y-11267650D02*
X2058277Y-11277174D01*
X2058277Y-11277174D02*
X2067801Y-11296222D01*
X2067801Y-11296222D02*
X2067801Y-11400984D01*
X2067801Y-11296222D02*
X2077324Y-11277174D01*
X2077324Y-11277174D02*
X2096372Y-11267650D01*
X2096372Y-11267650D02*
X2124944Y-11267650D01*
X2124944Y-11267650D02*
X2143991Y-11277174D01*
X2143991Y-11277174D02*
X2153515Y-11296222D01*
X2153515Y-11296222D02*
X2153515Y-11400984D01*
X2543991Y-11191460D02*
X2372563Y-11448603D01*
X2801134Y-11200984D02*
X2820182Y-11200984D01*
X2820182Y-11200984D02*
X2839229Y-11210508D01*
X2839229Y-11210508D02*
X2848753Y-11220031D01*
X2848753Y-11220031D02*
X2858277Y-11239079D01*
X2858277Y-11239079D02*
X2867801Y-11277174D01*
X2867801Y-11277174D02*
X2867801Y-11324793D01*
X2867801Y-11324793D02*
X2858277Y-11362888D01*
X2858277Y-11362888D02*
X2848753Y-11381936D01*
X2848753Y-11381936D02*
X2839229Y-11391460D01*
X2839229Y-11391460D02*
X2820182Y-11400984D01*
X2820182Y-11400984D02*
X2801134Y-11400984D01*
X2801134Y-11400984D02*
X2782087Y-11391460D01*
X2782087Y-11391460D02*
X2772563Y-11381936D01*
X2772563Y-11381936D02*
X2763039Y-11362888D01*
X2763039Y-11362888D02*
X2753515Y-11324793D01*
X2753515Y-11324793D02*
X2753515Y-11277174D01*
X2753515Y-11277174D02*
X2763039Y-11239079D01*
X2763039Y-11239079D02*
X2772563Y-11220031D01*
X2772563Y-11220031D02*
X2782087Y-11210508D01*
X2782087Y-11210508D02*
X2801134Y-11200984D01*
X2953515Y-11381936D02*
X2963039Y-11391460D01*
X2963039Y-11391460D02*
X2953515Y-11400984D01*
X2953515Y-11400984D02*
X2943991Y-11391460D01*
X2943991Y-11391460D02*
X2953515Y-11381936D01*
X2953515Y-11381936D02*
X2953515Y-11400984D01*
X3086848Y-11200984D02*
X3105896Y-11200984D01*
X3105896Y-11200984D02*
X3124944Y-11210508D01*
X3124944Y-11210508D02*
X3134467Y-11220031D01*
X3134467Y-11220031D02*
X3143991Y-11239079D01*
X3143991Y-11239079D02*
X3153515Y-11277174D01*
X3153515Y-11277174D02*
X3153515Y-11324793D01*
X3153515Y-11324793D02*
X3143991Y-11362888D01*
X3143991Y-11362888D02*
X3134467Y-11381936D01*
X3134467Y-11381936D02*
X3124944Y-11391460D01*
X3124944Y-11391460D02*
X3105896Y-11400984D01*
X3105896Y-11400984D02*
X3086848Y-11400984D01*
X3086848Y-11400984D02*
X3067801Y-11391460D01*
X3067801Y-11391460D02*
X3058277Y-11381936D01*
X3058277Y-11381936D02*
X3048753Y-11362888D01*
X3048753Y-11362888D02*
X3039229Y-11324793D01*
X3039229Y-11324793D02*
X3039229Y-11277174D01*
X3039229Y-11277174D02*
X3048753Y-11239079D01*
X3048753Y-11239079D02*
X3058277Y-11220031D01*
X3058277Y-11220031D02*
X3067801Y-11210508D01*
X3067801Y-11210508D02*
X3086848Y-11200984D01*
X3220182Y-11200984D02*
X3343991Y-11200984D01*
X3343991Y-11200984D02*
X3277325Y-11277174D01*
X3277325Y-11277174D02*
X3305896Y-11277174D01*
X3305896Y-11277174D02*
X3324944Y-11286698D01*
X3324944Y-11286698D02*
X3334467Y-11296222D01*
X3334467Y-11296222D02*
X3343991Y-11315269D01*
X3343991Y-11315269D02*
X3343991Y-11362888D01*
X3343991Y-11362888D02*
X3334467Y-11381936D01*
X3334467Y-11381936D02*
X3324944Y-11391460D01*
X3324944Y-11391460D02*
X3305896Y-11400984D01*
X3305896Y-11400984D02*
X3248753Y-11400984D01*
X3248753Y-11400984D02*
X3229706Y-11391460D01*
X3229706Y-11391460D02*
X3220182Y-11381936D01*
X3439229Y-11400984D02*
X3477325Y-11400984D01*
X3477325Y-11400984D02*
X3496372Y-11391460D01*
X3496372Y-11391460D02*
X3505896Y-11381936D01*
X3505896Y-11381936D02*
X3524944Y-11353365D01*
X3524944Y-11353365D02*
X3534467Y-11315269D01*
X3534467Y-11315269D02*
X3534467Y-11239079D01*
X3534467Y-11239079D02*
X3524944Y-11220031D01*
X3524944Y-11220031D02*
X3515420Y-11210508D01*
X3515420Y-11210508D02*
X3496372Y-11200984D01*
X3496372Y-11200984D02*
X3458277Y-11200984D01*
X3458277Y-11200984D02*
X3439229Y-11210508D01*
X3439229Y-11210508D02*
X3429706Y-11220031D01*
X3429706Y-11220031D02*
X3420182Y-11239079D01*
X3420182Y-11239079D02*
X3420182Y-11286698D01*
X3420182Y-11286698D02*
X3429706Y-11305746D01*
X3429706Y-11305746D02*
X3439229Y-11315269D01*
X3439229Y-11315269D02*
X3458277Y-11324793D01*
X3458277Y-11324793D02*
X3496372Y-11324793D01*
X3496372Y-11324793D02*
X3515420Y-11315269D01*
X3515420Y-11315269D02*
X3524944Y-11305746D01*
X3524944Y-11305746D02*
X3534467Y-11286698D01*
X3658277Y-11200984D02*
X3677325Y-11200984D01*
X3677325Y-11200984D02*
X3696372Y-11210508D01*
X3696372Y-11210508D02*
X3705896Y-11220031D01*
X3705896Y-11220031D02*
X3715420Y-11239079D01*
X3715420Y-11239079D02*
X3724944Y-11277174D01*
X3724944Y-11277174D02*
X3724944Y-11324793D01*
X3724944Y-11324793D02*
X3715420Y-11362888D01*
X3715420Y-11362888D02*
X3705896Y-11381936D01*
X3705896Y-11381936D02*
X3696372Y-11391460D01*
X3696372Y-11391460D02*
X3677325Y-11400984D01*
X3677325Y-11400984D02*
X3658277Y-11400984D01*
X3658277Y-11400984D02*
X3639229Y-11391460D01*
X3639229Y-11391460D02*
X3629706Y-11381936D01*
X3629706Y-11381936D02*
X3620182Y-11362888D01*
X3620182Y-11362888D02*
X3610658Y-11324793D01*
X3610658Y-11324793D02*
X3610658Y-11277174D01*
X3610658Y-11277174D02*
X3620182Y-11239079D01*
X3620182Y-11239079D02*
X3629706Y-11220031D01*
X3629706Y-11220031D02*
X3639229Y-11210508D01*
X3639229Y-11210508D02*
X3658277Y-11200984D01*
X3801134Y-11200984D02*
X3801134Y-11239079D01*
X3877325Y-11200984D02*
X3877325Y-11239079D01*
X4172563Y-11477174D02*
X4163039Y-11467650D01*
X4163039Y-11467650D02*
X4143991Y-11439079D01*
X4143991Y-11439079D02*
X4134468Y-11420031D01*
X4134468Y-11420031D02*
X4124944Y-11391460D01*
X4124944Y-11391460D02*
X4115420Y-11343841D01*
X4115420Y-11343841D02*
X4115420Y-11305746D01*
X4115420Y-11305746D02*
X4124944Y-11258127D01*
X4124944Y-11258127D02*
X4134468Y-11229555D01*
X4134468Y-11229555D02*
X4143991Y-11210508D01*
X4143991Y-11210508D02*
X4163039Y-11181936D01*
X4163039Y-11181936D02*
X4172563Y-11172412D01*
X4239230Y-11220031D02*
X4248753Y-11210508D01*
X4248753Y-11210508D02*
X4267801Y-11200984D01*
X4267801Y-11200984D02*
X4315420Y-11200984D01*
X4315420Y-11200984D02*
X4334468Y-11210508D01*
X4334468Y-11210508D02*
X4343991Y-11220031D01*
X4343991Y-11220031D02*
X4353515Y-11239079D01*
X4353515Y-11239079D02*
X4353515Y-11258127D01*
X4353515Y-11258127D02*
X4343991Y-11286698D01*
X4343991Y-11286698D02*
X4229706Y-11400984D01*
X4229706Y-11400984D02*
X4353515Y-11400984D01*
X4467801Y-11286698D02*
X4448753Y-11277174D01*
X4448753Y-11277174D02*
X4439230Y-11267650D01*
X4439230Y-11267650D02*
X4429706Y-11248603D01*
X4429706Y-11248603D02*
X4429706Y-11239079D01*
X4429706Y-11239079D02*
X4439230Y-11220031D01*
X4439230Y-11220031D02*
X4448753Y-11210508D01*
X4448753Y-11210508D02*
X4467801Y-11200984D01*
X4467801Y-11200984D02*
X4505896Y-11200984D01*
X4505896Y-11200984D02*
X4524944Y-11210508D01*
X4524944Y-11210508D02*
X4534468Y-11220031D01*
X4534468Y-11220031D02*
X4543991Y-11239079D01*
X4543991Y-11239079D02*
X4543991Y-11248603D01*
X4543991Y-11248603D02*
X4534468Y-11267650D01*
X4534468Y-11267650D02*
X4524944Y-11277174D01*
X4524944Y-11277174D02*
X4505896Y-11286698D01*
X4505896Y-11286698D02*
X4467801Y-11286698D01*
X4467801Y-11286698D02*
X4448753Y-11296222D01*
X4448753Y-11296222D02*
X4439230Y-11305746D01*
X4439230Y-11305746D02*
X4429706Y-11324793D01*
X4429706Y-11324793D02*
X4429706Y-11362888D01*
X4429706Y-11362888D02*
X4439230Y-11381936D01*
X4439230Y-11381936D02*
X4448753Y-11391460D01*
X4448753Y-11391460D02*
X4467801Y-11400984D01*
X4467801Y-11400984D02*
X4505896Y-11400984D01*
X4505896Y-11400984D02*
X4524944Y-11391460D01*
X4524944Y-11391460D02*
X4534468Y-11381936D01*
X4534468Y-11381936D02*
X4543991Y-11362888D01*
X4543991Y-11362888D02*
X4543991Y-11324793D01*
X4543991Y-11324793D02*
X4534468Y-11305746D01*
X4534468Y-11305746D02*
X4524944Y-11296222D01*
X4524944Y-11296222D02*
X4505896Y-11286698D01*
X4782087Y-11400984D02*
X4782087Y-11200984D01*
X4867801Y-11400984D02*
X4867801Y-11296222D01*
X4867801Y-11296222D02*
X4858277Y-11277174D01*
X4858277Y-11277174D02*
X4839230Y-11267650D01*
X4839230Y-11267650D02*
X4810658Y-11267650D01*
X4810658Y-11267650D02*
X4791611Y-11277174D01*
X4791611Y-11277174D02*
X4782087Y-11286698D01*
X4991611Y-11400984D02*
X4972563Y-11391460D01*
X4972563Y-11391460D02*
X4963039Y-11381936D01*
X4963039Y-11381936D02*
X4953515Y-11362888D01*
X4953515Y-11362888D02*
X4953515Y-11305746D01*
X4953515Y-11305746D02*
X4963039Y-11286698D01*
X4963039Y-11286698D02*
X4972563Y-11277174D01*
X4972563Y-11277174D02*
X4991611Y-11267650D01*
X4991611Y-11267650D02*
X5020182Y-11267650D01*
X5020182Y-11267650D02*
X5039230Y-11277174D01*
X5039230Y-11277174D02*
X5048753Y-11286698D01*
X5048753Y-11286698D02*
X5058277Y-11305746D01*
X5058277Y-11305746D02*
X5058277Y-11362888D01*
X5058277Y-11362888D02*
X5048753Y-11381936D01*
X5048753Y-11381936D02*
X5039230Y-11391460D01*
X5039230Y-11391460D02*
X5020182Y-11400984D01*
X5020182Y-11400984D02*
X4991611Y-11400984D01*
X5172563Y-11400984D02*
X5153515Y-11391460D01*
X5153515Y-11391460D02*
X5143992Y-11372412D01*
X5143992Y-11372412D02*
X5143992Y-11200984D01*
X5324944Y-11391460D02*
X5305896Y-11400984D01*
X5305896Y-11400984D02*
X5267801Y-11400984D01*
X5267801Y-11400984D02*
X5248753Y-11391460D01*
X5248753Y-11391460D02*
X5239230Y-11372412D01*
X5239230Y-11372412D02*
X5239230Y-11296222D01*
X5239230Y-11296222D02*
X5248753Y-11277174D01*
X5248753Y-11277174D02*
X5267801Y-11267650D01*
X5267801Y-11267650D02*
X5305896Y-11267650D01*
X5305896Y-11267650D02*
X5324944Y-11277174D01*
X5324944Y-11277174D02*
X5334468Y-11296222D01*
X5334468Y-11296222D02*
X5334468Y-11315269D01*
X5334468Y-11315269D02*
X5239230Y-11334317D01*
X5410658Y-11391460D02*
X5429706Y-11400984D01*
X5429706Y-11400984D02*
X5467801Y-11400984D01*
X5467801Y-11400984D02*
X5486849Y-11391460D01*
X5486849Y-11391460D02*
X5496373Y-11372412D01*
X5496373Y-11372412D02*
X5496373Y-11362888D01*
X5496373Y-11362888D02*
X5486849Y-11343841D01*
X5486849Y-11343841D02*
X5467801Y-11334317D01*
X5467801Y-11334317D02*
X5439230Y-11334317D01*
X5439230Y-11334317D02*
X5420182Y-11324793D01*
X5420182Y-11324793D02*
X5410658Y-11305746D01*
X5410658Y-11305746D02*
X5410658Y-11296222D01*
X5410658Y-11296222D02*
X5420182Y-11277174D01*
X5420182Y-11277174D02*
X5439230Y-11267650D01*
X5439230Y-11267650D02*
X5467801Y-11267650D01*
X5467801Y-11267650D02*
X5486849Y-11277174D01*
X5563039Y-11477174D02*
X5572563Y-11467650D01*
X5572563Y-11467650D02*
X5591611Y-11439079D01*
X5591611Y-11439079D02*
X5601134Y-11420031D01*
X5601134Y-11420031D02*
X5610658Y-11391460D01*
X5610658Y-11391460D02*
X5620182Y-11343841D01*
X5620182Y-11343841D02*
X5620182Y-11305746D01*
X5620182Y-11305746D02*
X5610658Y-11258127D01*
X5610658Y-11258127D02*
X5601134Y-11229555D01*
X5601134Y-11229555D02*
X5591611Y-11210508D01*
X5591611Y-11210508D02*
X5572563Y-11181936D01*
X5572563Y-11181936D02*
X5563039Y-11172412D01*
D13*
X532500Y-11638500D02*
X597500Y-11573500D01*
X532500Y-11508500D01*
X467500Y-11573500D01*
X532500Y-11638500D01*
D11*
X963039Y-11664984D02*
X848753Y-11664984D01*
X905896Y-11664984D02*
X905896Y-11464984D01*
X905896Y-11464984D02*
X886848Y-11493555D01*
X886848Y-11493555D02*
X867801Y-11512603D01*
X867801Y-11512603D02*
X848753Y-11522127D01*
X1048753Y-11645936D02*
X1058277Y-11655460D01*
X1058277Y-11655460D02*
X1048753Y-11664984D01*
X1048753Y-11664984D02*
X1039229Y-11655460D01*
X1039229Y-11655460D02*
X1048753Y-11645936D01*
X1048753Y-11645936D02*
X1048753Y-11664984D01*
X1124944Y-11464984D02*
X1248753Y-11464984D01*
X1248753Y-11464984D02*
X1182086Y-11541174D01*
X1182086Y-11541174D02*
X1210658Y-11541174D01*
X1210658Y-11541174D02*
X1229705Y-11550698D01*
X1229705Y-11550698D02*
X1239229Y-11560222D01*
X1239229Y-11560222D02*
X1248753Y-11579269D01*
X1248753Y-11579269D02*
X1248753Y-11626888D01*
X1248753Y-11626888D02*
X1239229Y-11645936D01*
X1239229Y-11645936D02*
X1229705Y-11655460D01*
X1229705Y-11655460D02*
X1210658Y-11664984D01*
X1210658Y-11664984D02*
X1153515Y-11664984D01*
X1153515Y-11664984D02*
X1134467Y-11655460D01*
X1134467Y-11655460D02*
X1124944Y-11645936D01*
X1372563Y-11464984D02*
X1391610Y-11464984D01*
X1391610Y-11464984D02*
X1410658Y-11474508D01*
X1410658Y-11474508D02*
X1420182Y-11484031D01*
X1420182Y-11484031D02*
X1429705Y-11503079D01*
X1429705Y-11503079D02*
X1439229Y-11541174D01*
X1439229Y-11541174D02*
X1439229Y-11588793D01*
X1439229Y-11588793D02*
X1429705Y-11626888D01*
X1429705Y-11626888D02*
X1420182Y-11645936D01*
X1420182Y-11645936D02*
X1410658Y-11655460D01*
X1410658Y-11655460D02*
X1391610Y-11664984D01*
X1391610Y-11664984D02*
X1372563Y-11664984D01*
X1372563Y-11664984D02*
X1353515Y-11655460D01*
X1353515Y-11655460D02*
X1343991Y-11645936D01*
X1343991Y-11645936D02*
X1334467Y-11626888D01*
X1334467Y-11626888D02*
X1324944Y-11588793D01*
X1324944Y-11588793D02*
X1324944Y-11541174D01*
X1324944Y-11541174D02*
X1334467Y-11503079D01*
X1334467Y-11503079D02*
X1343991Y-11484031D01*
X1343991Y-11484031D02*
X1353515Y-11474508D01*
X1353515Y-11474508D02*
X1372563Y-11464984D01*
X1563039Y-11464984D02*
X1582086Y-11464984D01*
X1582086Y-11464984D02*
X1601134Y-11474508D01*
X1601134Y-11474508D02*
X1610658Y-11484031D01*
X1610658Y-11484031D02*
X1620182Y-11503079D01*
X1620182Y-11503079D02*
X1629705Y-11541174D01*
X1629705Y-11541174D02*
X1629705Y-11588793D01*
X1629705Y-11588793D02*
X1620182Y-11626888D01*
X1620182Y-11626888D02*
X1610658Y-11645936D01*
X1610658Y-11645936D02*
X1601134Y-11655460D01*
X1601134Y-11655460D02*
X1582086Y-11664984D01*
X1582086Y-11664984D02*
X1563039Y-11664984D01*
X1563039Y-11664984D02*
X1543991Y-11655460D01*
X1543991Y-11655460D02*
X1534467Y-11645936D01*
X1534467Y-11645936D02*
X1524943Y-11626888D01*
X1524943Y-11626888D02*
X1515420Y-11588793D01*
X1515420Y-11588793D02*
X1515420Y-11541174D01*
X1515420Y-11541174D02*
X1524943Y-11503079D01*
X1524943Y-11503079D02*
X1534467Y-11484031D01*
X1534467Y-11484031D02*
X1543991Y-11474508D01*
X1543991Y-11474508D02*
X1563039Y-11464984D01*
X1715420Y-11664984D02*
X1715420Y-11531650D01*
X1715420Y-11550698D02*
X1724943Y-11541174D01*
X1724943Y-11541174D02*
X1743991Y-11531650D01*
X1743991Y-11531650D02*
X1772563Y-11531650D01*
X1772563Y-11531650D02*
X1791610Y-11541174D01*
X1791610Y-11541174D02*
X1801134Y-11560222D01*
X1801134Y-11560222D02*
X1801134Y-11664984D01*
X1801134Y-11560222D02*
X1810658Y-11541174D01*
X1810658Y-11541174D02*
X1829705Y-11531650D01*
X1829705Y-11531650D02*
X1858277Y-11531650D01*
X1858277Y-11531650D02*
X1877324Y-11541174D01*
X1877324Y-11541174D02*
X1886848Y-11560222D01*
X1886848Y-11560222D02*
X1886848Y-11664984D01*
X1982086Y-11664984D02*
X1982086Y-11531650D01*
X1982086Y-11550698D02*
X1991610Y-11541174D01*
X1991610Y-11541174D02*
X2010658Y-11531650D01*
X2010658Y-11531650D02*
X2039229Y-11531650D01*
X2039229Y-11531650D02*
X2058277Y-11541174D01*
X2058277Y-11541174D02*
X2067801Y-11560222D01*
X2067801Y-11560222D02*
X2067801Y-11664984D01*
X2067801Y-11560222D02*
X2077324Y-11541174D01*
X2077324Y-11541174D02*
X2096372Y-11531650D01*
X2096372Y-11531650D02*
X2124944Y-11531650D01*
X2124944Y-11531650D02*
X2143991Y-11541174D01*
X2143991Y-11541174D02*
X2153515Y-11560222D01*
X2153515Y-11560222D02*
X2153515Y-11664984D01*
X2543991Y-11455460D02*
X2372563Y-11712603D01*
X2801134Y-11464984D02*
X2820182Y-11464984D01*
X2820182Y-11464984D02*
X2839229Y-11474508D01*
X2839229Y-11474508D02*
X2848753Y-11484031D01*
X2848753Y-11484031D02*
X2858277Y-11503079D01*
X2858277Y-11503079D02*
X2867801Y-11541174D01*
X2867801Y-11541174D02*
X2867801Y-11588793D01*
X2867801Y-11588793D02*
X2858277Y-11626888D01*
X2858277Y-11626888D02*
X2848753Y-11645936D01*
X2848753Y-11645936D02*
X2839229Y-11655460D01*
X2839229Y-11655460D02*
X2820182Y-11664984D01*
X2820182Y-11664984D02*
X2801134Y-11664984D01*
X2801134Y-11664984D02*
X2782087Y-11655460D01*
X2782087Y-11655460D02*
X2772563Y-11645936D01*
X2772563Y-11645936D02*
X2763039Y-11626888D01*
X2763039Y-11626888D02*
X2753515Y-11588793D01*
X2753515Y-11588793D02*
X2753515Y-11541174D01*
X2753515Y-11541174D02*
X2763039Y-11503079D01*
X2763039Y-11503079D02*
X2772563Y-11484031D01*
X2772563Y-11484031D02*
X2782087Y-11474508D01*
X2782087Y-11474508D02*
X2801134Y-11464984D01*
X2953515Y-11645936D02*
X2963039Y-11655460D01*
X2963039Y-11655460D02*
X2953515Y-11664984D01*
X2953515Y-11664984D02*
X2943991Y-11655460D01*
X2943991Y-11655460D02*
X2953515Y-11645936D01*
X2953515Y-11645936D02*
X2953515Y-11664984D01*
X3086848Y-11464984D02*
X3105896Y-11464984D01*
X3105896Y-11464984D02*
X3124944Y-11474508D01*
X3124944Y-11474508D02*
X3134467Y-11484031D01*
X3134467Y-11484031D02*
X3143991Y-11503079D01*
X3143991Y-11503079D02*
X3153515Y-11541174D01*
X3153515Y-11541174D02*
X3153515Y-11588793D01*
X3153515Y-11588793D02*
X3143991Y-11626888D01*
X3143991Y-11626888D02*
X3134467Y-11645936D01*
X3134467Y-11645936D02*
X3124944Y-11655460D01*
X3124944Y-11655460D02*
X3105896Y-11664984D01*
X3105896Y-11664984D02*
X3086848Y-11664984D01*
X3086848Y-11664984D02*
X3067801Y-11655460D01*
X3067801Y-11655460D02*
X3058277Y-11645936D01*
X3058277Y-11645936D02*
X3048753Y-11626888D01*
X3048753Y-11626888D02*
X3039229Y-11588793D01*
X3039229Y-11588793D02*
X3039229Y-11541174D01*
X3039229Y-11541174D02*
X3048753Y-11503079D01*
X3048753Y-11503079D02*
X3058277Y-11484031D01*
X3058277Y-11484031D02*
X3067801Y-11474508D01*
X3067801Y-11474508D02*
X3086848Y-11464984D01*
X3334467Y-11464984D02*
X3239229Y-11464984D01*
X3239229Y-11464984D02*
X3229706Y-11560222D01*
X3229706Y-11560222D02*
X3239229Y-11550698D01*
X3239229Y-11550698D02*
X3258277Y-11541174D01*
X3258277Y-11541174D02*
X3305896Y-11541174D01*
X3305896Y-11541174D02*
X3324944Y-11550698D01*
X3324944Y-11550698D02*
X3334467Y-11560222D01*
X3334467Y-11560222D02*
X3343991Y-11579269D01*
X3343991Y-11579269D02*
X3343991Y-11626888D01*
X3343991Y-11626888D02*
X3334467Y-11645936D01*
X3334467Y-11645936D02*
X3324944Y-11655460D01*
X3324944Y-11655460D02*
X3305896Y-11664984D01*
X3305896Y-11664984D02*
X3258277Y-11664984D01*
X3258277Y-11664984D02*
X3239229Y-11655460D01*
X3239229Y-11655460D02*
X3229706Y-11645936D01*
X3534467Y-11664984D02*
X3420182Y-11664984D01*
X3477325Y-11664984D02*
X3477325Y-11464984D01*
X3477325Y-11464984D02*
X3458277Y-11493555D01*
X3458277Y-11493555D02*
X3439229Y-11512603D01*
X3439229Y-11512603D02*
X3420182Y-11522127D01*
X3610658Y-11484031D02*
X3620182Y-11474508D01*
X3620182Y-11474508D02*
X3639229Y-11464984D01*
X3639229Y-11464984D02*
X3686848Y-11464984D01*
X3686848Y-11464984D02*
X3705896Y-11474508D01*
X3705896Y-11474508D02*
X3715420Y-11484031D01*
X3715420Y-11484031D02*
X3724944Y-11503079D01*
X3724944Y-11503079D02*
X3724944Y-11522127D01*
X3724944Y-11522127D02*
X3715420Y-11550698D01*
X3715420Y-11550698D02*
X3601134Y-11664984D01*
X3601134Y-11664984D02*
X3724944Y-11664984D01*
X3801134Y-11464984D02*
X3801134Y-11503079D01*
X3877325Y-11464984D02*
X3877325Y-11503079D01*
X4172563Y-11741174D02*
X4163039Y-11731650D01*
X4163039Y-11731650D02*
X4143991Y-11703079D01*
X4143991Y-11703079D02*
X4134468Y-11684031D01*
X4134468Y-11684031D02*
X4124944Y-11655460D01*
X4124944Y-11655460D02*
X4115420Y-11607841D01*
X4115420Y-11607841D02*
X4115420Y-11569746D01*
X4115420Y-11569746D02*
X4124944Y-11522127D01*
X4124944Y-11522127D02*
X4134468Y-11493555D01*
X4134468Y-11493555D02*
X4143991Y-11474508D01*
X4143991Y-11474508D02*
X4163039Y-11445936D01*
X4163039Y-11445936D02*
X4172563Y-11436412D01*
X4334468Y-11464984D02*
X4296372Y-11464984D01*
X4296372Y-11464984D02*
X4277325Y-11474508D01*
X4277325Y-11474508D02*
X4267801Y-11484031D01*
X4267801Y-11484031D02*
X4248753Y-11512603D01*
X4248753Y-11512603D02*
X4239230Y-11550698D01*
X4239230Y-11550698D02*
X4239230Y-11626888D01*
X4239230Y-11626888D02*
X4248753Y-11645936D01*
X4248753Y-11645936D02*
X4258277Y-11655460D01*
X4258277Y-11655460D02*
X4277325Y-11664984D01*
X4277325Y-11664984D02*
X4315420Y-11664984D01*
X4315420Y-11664984D02*
X4334468Y-11655460D01*
X4334468Y-11655460D02*
X4343991Y-11645936D01*
X4343991Y-11645936D02*
X4353515Y-11626888D01*
X4353515Y-11626888D02*
X4353515Y-11579269D01*
X4353515Y-11579269D02*
X4343991Y-11560222D01*
X4343991Y-11560222D02*
X4334468Y-11550698D01*
X4334468Y-11550698D02*
X4315420Y-11541174D01*
X4315420Y-11541174D02*
X4277325Y-11541174D01*
X4277325Y-11541174D02*
X4258277Y-11550698D01*
X4258277Y-11550698D02*
X4248753Y-11560222D01*
X4248753Y-11560222D02*
X4239230Y-11579269D01*
X4591611Y-11664984D02*
X4591611Y-11464984D01*
X4677325Y-11664984D02*
X4677325Y-11560222D01*
X4677325Y-11560222D02*
X4667801Y-11541174D01*
X4667801Y-11541174D02*
X4648753Y-11531650D01*
X4648753Y-11531650D02*
X4620182Y-11531650D01*
X4620182Y-11531650D02*
X4601134Y-11541174D01*
X4601134Y-11541174D02*
X4591611Y-11550698D01*
X4801134Y-11664984D02*
X4782087Y-11655460D01*
X4782087Y-11655460D02*
X4772563Y-11645936D01*
X4772563Y-11645936D02*
X4763039Y-11626888D01*
X4763039Y-11626888D02*
X4763039Y-11569746D01*
X4763039Y-11569746D02*
X4772563Y-11550698D01*
X4772563Y-11550698D02*
X4782087Y-11541174D01*
X4782087Y-11541174D02*
X4801134Y-11531650D01*
X4801134Y-11531650D02*
X4829706Y-11531650D01*
X4829706Y-11531650D02*
X4848753Y-11541174D01*
X4848753Y-11541174D02*
X4858277Y-11550698D01*
X4858277Y-11550698D02*
X4867801Y-11569746D01*
X4867801Y-11569746D02*
X4867801Y-11626888D01*
X4867801Y-11626888D02*
X4858277Y-11645936D01*
X4858277Y-11645936D02*
X4848753Y-11655460D01*
X4848753Y-11655460D02*
X4829706Y-11664984D01*
X4829706Y-11664984D02*
X4801134Y-11664984D01*
X4982087Y-11664984D02*
X4963039Y-11655460D01*
X4963039Y-11655460D02*
X4953515Y-11636412D01*
X4953515Y-11636412D02*
X4953515Y-11464984D01*
X5134468Y-11655460D02*
X5115420Y-11664984D01*
X5115420Y-11664984D02*
X5077325Y-11664984D01*
X5077325Y-11664984D02*
X5058277Y-11655460D01*
X5058277Y-11655460D02*
X5048753Y-11636412D01*
X5048753Y-11636412D02*
X5048753Y-11560222D01*
X5048753Y-11560222D02*
X5058277Y-11541174D01*
X5058277Y-11541174D02*
X5077325Y-11531650D01*
X5077325Y-11531650D02*
X5115420Y-11531650D01*
X5115420Y-11531650D02*
X5134468Y-11541174D01*
X5134468Y-11541174D02*
X5143992Y-11560222D01*
X5143992Y-11560222D02*
X5143992Y-11579269D01*
X5143992Y-11579269D02*
X5048753Y-11598317D01*
X5220182Y-11655460D02*
X5239230Y-11664984D01*
X5239230Y-11664984D02*
X5277325Y-11664984D01*
X5277325Y-11664984D02*
X5296373Y-11655460D01*
X5296373Y-11655460D02*
X5305896Y-11636412D01*
X5305896Y-11636412D02*
X5305896Y-11626888D01*
X5305896Y-11626888D02*
X5296373Y-11607841D01*
X5296373Y-11607841D02*
X5277325Y-11598317D01*
X5277325Y-11598317D02*
X5248753Y-11598317D01*
X5248753Y-11598317D02*
X5229706Y-11588793D01*
X5229706Y-11588793D02*
X5220182Y-11569746D01*
X5220182Y-11569746D02*
X5220182Y-11560222D01*
X5220182Y-11560222D02*
X5229706Y-11541174D01*
X5229706Y-11541174D02*
X5248753Y-11531650D01*
X5248753Y-11531650D02*
X5277325Y-11531650D01*
X5277325Y-11531650D02*
X5296373Y-11541174D01*
X5372563Y-11741174D02*
X5382087Y-11731650D01*
X5382087Y-11731650D02*
X5401134Y-11703079D01*
X5401134Y-11703079D02*
X5410658Y-11684031D01*
X5410658Y-11684031D02*
X5420182Y-11655460D01*
X5420182Y-11655460D02*
X5429706Y-11607841D01*
X5429706Y-11607841D02*
X5429706Y-11569746D01*
X5429706Y-11569746D02*
X5420182Y-11522127D01*
X5420182Y-11522127D02*
X5410658Y-11493555D01*
X5410658Y-11493555D02*
X5401134Y-11474508D01*
X5401134Y-11474508D02*
X5382087Y-11445936D01*
X5382087Y-11445936D02*
X5372563Y-11436412D01*
D14*
X457500Y-11767500D02*
X597500Y-11907500D01*
X597500Y-11767500D02*
X457500Y-11907500D01*
X597500Y-11837500D02*
G75*
G02*
X457500Y-11837500I-70000J0D01*
G01*
X457500Y-11837500D02*
G75*
G02*
X597500Y-11837500I70000J0D01*
G01*
D11*
X963039Y-11928984D02*
X848753Y-11928984D01*
X905896Y-11928984D02*
X905896Y-11728984D01*
X905896Y-11728984D02*
X886848Y-11757555D01*
X886848Y-11757555D02*
X867801Y-11776603D01*
X867801Y-11776603D02*
X848753Y-11786127D01*
X1048753Y-11909936D02*
X1058277Y-11919460D01*
X1058277Y-11919460D02*
X1048753Y-11928984D01*
X1048753Y-11928984D02*
X1039229Y-11919460D01*
X1039229Y-11919460D02*
X1048753Y-11909936D01*
X1048753Y-11909936D02*
X1048753Y-11928984D01*
X1229705Y-11795650D02*
X1229705Y-11928984D01*
X1182086Y-11719460D02*
X1134467Y-11862317D01*
X1134467Y-11862317D02*
X1258277Y-11862317D01*
X1372563Y-11728984D02*
X1391610Y-11728984D01*
X1391610Y-11728984D02*
X1410658Y-11738508D01*
X1410658Y-11738508D02*
X1420182Y-11748031D01*
X1420182Y-11748031D02*
X1429705Y-11767079D01*
X1429705Y-11767079D02*
X1439229Y-11805174D01*
X1439229Y-11805174D02*
X1439229Y-11852793D01*
X1439229Y-11852793D02*
X1429705Y-11890888D01*
X1429705Y-11890888D02*
X1420182Y-11909936D01*
X1420182Y-11909936D02*
X1410658Y-11919460D01*
X1410658Y-11919460D02*
X1391610Y-11928984D01*
X1391610Y-11928984D02*
X1372563Y-11928984D01*
X1372563Y-11928984D02*
X1353515Y-11919460D01*
X1353515Y-11919460D02*
X1343991Y-11909936D01*
X1343991Y-11909936D02*
X1334467Y-11890888D01*
X1334467Y-11890888D02*
X1324944Y-11852793D01*
X1324944Y-11852793D02*
X1324944Y-11805174D01*
X1324944Y-11805174D02*
X1334467Y-11767079D01*
X1334467Y-11767079D02*
X1343991Y-11748031D01*
X1343991Y-11748031D02*
X1353515Y-11738508D01*
X1353515Y-11738508D02*
X1372563Y-11728984D01*
X1563039Y-11728984D02*
X1582086Y-11728984D01*
X1582086Y-11728984D02*
X1601134Y-11738508D01*
X1601134Y-11738508D02*
X1610658Y-11748031D01*
X1610658Y-11748031D02*
X1620182Y-11767079D01*
X1620182Y-11767079D02*
X1629705Y-11805174D01*
X1629705Y-11805174D02*
X1629705Y-11852793D01*
X1629705Y-11852793D02*
X1620182Y-11890888D01*
X1620182Y-11890888D02*
X1610658Y-11909936D01*
X1610658Y-11909936D02*
X1601134Y-11919460D01*
X1601134Y-11919460D02*
X1582086Y-11928984D01*
X1582086Y-11928984D02*
X1563039Y-11928984D01*
X1563039Y-11928984D02*
X1543991Y-11919460D01*
X1543991Y-11919460D02*
X1534467Y-11909936D01*
X1534467Y-11909936D02*
X1524943Y-11890888D01*
X1524943Y-11890888D02*
X1515420Y-11852793D01*
X1515420Y-11852793D02*
X1515420Y-11805174D01*
X1515420Y-11805174D02*
X1524943Y-11767079D01*
X1524943Y-11767079D02*
X1534467Y-11748031D01*
X1534467Y-11748031D02*
X1543991Y-11738508D01*
X1543991Y-11738508D02*
X1563039Y-11728984D01*
X1715420Y-11928984D02*
X1715420Y-11795650D01*
X1715420Y-11814698D02*
X1724943Y-11805174D01*
X1724943Y-11805174D02*
X1743991Y-11795650D01*
X1743991Y-11795650D02*
X1772563Y-11795650D01*
X1772563Y-11795650D02*
X1791610Y-11805174D01*
X1791610Y-11805174D02*
X1801134Y-11824222D01*
X1801134Y-11824222D02*
X1801134Y-11928984D01*
X1801134Y-11824222D02*
X1810658Y-11805174D01*
X1810658Y-11805174D02*
X1829705Y-11795650D01*
X1829705Y-11795650D02*
X1858277Y-11795650D01*
X1858277Y-11795650D02*
X1877324Y-11805174D01*
X1877324Y-11805174D02*
X1886848Y-11824222D01*
X1886848Y-11824222D02*
X1886848Y-11928984D01*
X1982086Y-11928984D02*
X1982086Y-11795650D01*
X1982086Y-11814698D02*
X1991610Y-11805174D01*
X1991610Y-11805174D02*
X2010658Y-11795650D01*
X2010658Y-11795650D02*
X2039229Y-11795650D01*
X2039229Y-11795650D02*
X2058277Y-11805174D01*
X2058277Y-11805174D02*
X2067801Y-11824222D01*
X2067801Y-11824222D02*
X2067801Y-11928984D01*
X2067801Y-11824222D02*
X2077324Y-11805174D01*
X2077324Y-11805174D02*
X2096372Y-11795650D01*
X2096372Y-11795650D02*
X2124944Y-11795650D01*
X2124944Y-11795650D02*
X2143991Y-11805174D01*
X2143991Y-11805174D02*
X2153515Y-11824222D01*
X2153515Y-11824222D02*
X2153515Y-11928984D01*
X2543991Y-11719460D02*
X2372563Y-11976603D01*
X2801134Y-11728984D02*
X2820182Y-11728984D01*
X2820182Y-11728984D02*
X2839229Y-11738508D01*
X2839229Y-11738508D02*
X2848753Y-11748031D01*
X2848753Y-11748031D02*
X2858277Y-11767079D01*
X2858277Y-11767079D02*
X2867801Y-11805174D01*
X2867801Y-11805174D02*
X2867801Y-11852793D01*
X2867801Y-11852793D02*
X2858277Y-11890888D01*
X2858277Y-11890888D02*
X2848753Y-11909936D01*
X2848753Y-11909936D02*
X2839229Y-11919460D01*
X2839229Y-11919460D02*
X2820182Y-11928984D01*
X2820182Y-11928984D02*
X2801134Y-11928984D01*
X2801134Y-11928984D02*
X2782087Y-11919460D01*
X2782087Y-11919460D02*
X2772563Y-11909936D01*
X2772563Y-11909936D02*
X2763039Y-11890888D01*
X2763039Y-11890888D02*
X2753515Y-11852793D01*
X2753515Y-11852793D02*
X2753515Y-11805174D01*
X2753515Y-11805174D02*
X2763039Y-11767079D01*
X2763039Y-11767079D02*
X2772563Y-11748031D01*
X2772563Y-11748031D02*
X2782087Y-11738508D01*
X2782087Y-11738508D02*
X2801134Y-11728984D01*
X2953515Y-11909936D02*
X2963039Y-11919460D01*
X2963039Y-11919460D02*
X2953515Y-11928984D01*
X2953515Y-11928984D02*
X2943991Y-11919460D01*
X2943991Y-11919460D02*
X2953515Y-11909936D01*
X2953515Y-11909936D02*
X2953515Y-11928984D01*
X3086848Y-11728984D02*
X3105896Y-11728984D01*
X3105896Y-11728984D02*
X3124944Y-11738508D01*
X3124944Y-11738508D02*
X3134467Y-11748031D01*
X3134467Y-11748031D02*
X3143991Y-11767079D01*
X3143991Y-11767079D02*
X3153515Y-11805174D01*
X3153515Y-11805174D02*
X3153515Y-11852793D01*
X3153515Y-11852793D02*
X3143991Y-11890888D01*
X3143991Y-11890888D02*
X3134467Y-11909936D01*
X3134467Y-11909936D02*
X3124944Y-11919460D01*
X3124944Y-11919460D02*
X3105896Y-11928984D01*
X3105896Y-11928984D02*
X3086848Y-11928984D01*
X3086848Y-11928984D02*
X3067801Y-11919460D01*
X3067801Y-11919460D02*
X3058277Y-11909936D01*
X3058277Y-11909936D02*
X3048753Y-11890888D01*
X3048753Y-11890888D02*
X3039229Y-11852793D01*
X3039229Y-11852793D02*
X3039229Y-11805174D01*
X3039229Y-11805174D02*
X3048753Y-11767079D01*
X3048753Y-11767079D02*
X3058277Y-11748031D01*
X3058277Y-11748031D02*
X3067801Y-11738508D01*
X3067801Y-11738508D02*
X3086848Y-11728984D01*
X3334467Y-11728984D02*
X3239229Y-11728984D01*
X3239229Y-11728984D02*
X3229706Y-11824222D01*
X3229706Y-11824222D02*
X3239229Y-11814698D01*
X3239229Y-11814698D02*
X3258277Y-11805174D01*
X3258277Y-11805174D02*
X3305896Y-11805174D01*
X3305896Y-11805174D02*
X3324944Y-11814698D01*
X3324944Y-11814698D02*
X3334467Y-11824222D01*
X3334467Y-11824222D02*
X3343991Y-11843269D01*
X3343991Y-11843269D02*
X3343991Y-11890888D01*
X3343991Y-11890888D02*
X3334467Y-11909936D01*
X3334467Y-11909936D02*
X3324944Y-11919460D01*
X3324944Y-11919460D02*
X3305896Y-11928984D01*
X3305896Y-11928984D02*
X3258277Y-11928984D01*
X3258277Y-11928984D02*
X3239229Y-11919460D01*
X3239229Y-11919460D02*
X3229706Y-11909936D01*
X3524944Y-11728984D02*
X3429706Y-11728984D01*
X3429706Y-11728984D02*
X3420182Y-11824222D01*
X3420182Y-11824222D02*
X3429706Y-11814698D01*
X3429706Y-11814698D02*
X3448753Y-11805174D01*
X3448753Y-11805174D02*
X3496372Y-11805174D01*
X3496372Y-11805174D02*
X3515420Y-11814698D01*
X3515420Y-11814698D02*
X3524944Y-11824222D01*
X3524944Y-11824222D02*
X3534467Y-11843269D01*
X3534467Y-11843269D02*
X3534467Y-11890888D01*
X3534467Y-11890888D02*
X3524944Y-11909936D01*
X3524944Y-11909936D02*
X3515420Y-11919460D01*
X3515420Y-11919460D02*
X3496372Y-11928984D01*
X3496372Y-11928984D02*
X3448753Y-11928984D01*
X3448753Y-11928984D02*
X3429706Y-11919460D01*
X3429706Y-11919460D02*
X3420182Y-11909936D01*
X3724944Y-11928984D02*
X3610658Y-11928984D01*
X3667801Y-11928984D02*
X3667801Y-11728984D01*
X3667801Y-11728984D02*
X3648753Y-11757555D01*
X3648753Y-11757555D02*
X3629706Y-11776603D01*
X3629706Y-11776603D02*
X3610658Y-11786127D01*
X3801134Y-11728984D02*
X3801134Y-11767079D01*
X3877325Y-11728984D02*
X3877325Y-11767079D01*
X4172563Y-12005174D02*
X4163039Y-11995650D01*
X4163039Y-11995650D02*
X4143991Y-11967079D01*
X4143991Y-11967079D02*
X4134468Y-11948031D01*
X4134468Y-11948031D02*
X4124944Y-11919460D01*
X4124944Y-11919460D02*
X4115420Y-11871841D01*
X4115420Y-11871841D02*
X4115420Y-11833746D01*
X4115420Y-11833746D02*
X4124944Y-11786127D01*
X4124944Y-11786127D02*
X4134468Y-11757555D01*
X4134468Y-11757555D02*
X4143991Y-11738508D01*
X4143991Y-11738508D02*
X4163039Y-11709936D01*
X4163039Y-11709936D02*
X4172563Y-11700412D01*
X4343991Y-11728984D02*
X4248753Y-11728984D01*
X4248753Y-11728984D02*
X4239230Y-11824222D01*
X4239230Y-11824222D02*
X4248753Y-11814698D01*
X4248753Y-11814698D02*
X4267801Y-11805174D01*
X4267801Y-11805174D02*
X4315420Y-11805174D01*
X4315420Y-11805174D02*
X4334468Y-11814698D01*
X4334468Y-11814698D02*
X4343991Y-11824222D01*
X4343991Y-11824222D02*
X4353515Y-11843269D01*
X4353515Y-11843269D02*
X4353515Y-11890888D01*
X4353515Y-11890888D02*
X4343991Y-11909936D01*
X4343991Y-11909936D02*
X4334468Y-11919460D01*
X4334468Y-11919460D02*
X4315420Y-11928984D01*
X4315420Y-11928984D02*
X4267801Y-11928984D01*
X4267801Y-11928984D02*
X4248753Y-11919460D01*
X4248753Y-11919460D02*
X4239230Y-11909936D01*
X4420182Y-11728984D02*
X4543991Y-11728984D01*
X4543991Y-11728984D02*
X4477325Y-11805174D01*
X4477325Y-11805174D02*
X4505896Y-11805174D01*
X4505896Y-11805174D02*
X4524944Y-11814698D01*
X4524944Y-11814698D02*
X4534468Y-11824222D01*
X4534468Y-11824222D02*
X4543991Y-11843269D01*
X4543991Y-11843269D02*
X4543991Y-11890888D01*
X4543991Y-11890888D02*
X4534468Y-11909936D01*
X4534468Y-11909936D02*
X4524944Y-11919460D01*
X4524944Y-11919460D02*
X4505896Y-11928984D01*
X4505896Y-11928984D02*
X4448753Y-11928984D01*
X4448753Y-11928984D02*
X4429706Y-11919460D01*
X4429706Y-11919460D02*
X4420182Y-11909936D01*
X4782087Y-11928984D02*
X4782087Y-11728984D01*
X4867801Y-11928984D02*
X4867801Y-11824222D01*
X4867801Y-11824222D02*
X4858277Y-11805174D01*
X4858277Y-11805174D02*
X4839230Y-11795650D01*
X4839230Y-11795650D02*
X4810658Y-11795650D01*
X4810658Y-11795650D02*
X4791611Y-11805174D01*
X4791611Y-11805174D02*
X4782087Y-11814698D01*
X4991611Y-11928984D02*
X4972563Y-11919460D01*
X4972563Y-11919460D02*
X4963039Y-11909936D01*
X4963039Y-11909936D02*
X4953515Y-11890888D01*
X4953515Y-11890888D02*
X4953515Y-11833746D01*
X4953515Y-11833746D02*
X4963039Y-11814698D01*
X4963039Y-11814698D02*
X4972563Y-11805174D01*
X4972563Y-11805174D02*
X4991611Y-11795650D01*
X4991611Y-11795650D02*
X5020182Y-11795650D01*
X5020182Y-11795650D02*
X5039230Y-11805174D01*
X5039230Y-11805174D02*
X5048753Y-11814698D01*
X5048753Y-11814698D02*
X5058277Y-11833746D01*
X5058277Y-11833746D02*
X5058277Y-11890888D01*
X5058277Y-11890888D02*
X5048753Y-11909936D01*
X5048753Y-11909936D02*
X5039230Y-11919460D01*
X5039230Y-11919460D02*
X5020182Y-11928984D01*
X5020182Y-11928984D02*
X4991611Y-11928984D01*
X5172563Y-11928984D02*
X5153515Y-11919460D01*
X5153515Y-11919460D02*
X5143992Y-11900412D01*
X5143992Y-11900412D02*
X5143992Y-11728984D01*
X5324944Y-11919460D02*
X5305896Y-11928984D01*
X5305896Y-11928984D02*
X5267801Y-11928984D01*
X5267801Y-11928984D02*
X5248753Y-11919460D01*
X5248753Y-11919460D02*
X5239230Y-11900412D01*
X5239230Y-11900412D02*
X5239230Y-11824222D01*
X5239230Y-11824222D02*
X5248753Y-11805174D01*
X5248753Y-11805174D02*
X5267801Y-11795650D01*
X5267801Y-11795650D02*
X5305896Y-11795650D01*
X5305896Y-11795650D02*
X5324944Y-11805174D01*
X5324944Y-11805174D02*
X5334468Y-11824222D01*
X5334468Y-11824222D02*
X5334468Y-11843269D01*
X5334468Y-11843269D02*
X5239230Y-11862317D01*
X5410658Y-11919460D02*
X5429706Y-11928984D01*
X5429706Y-11928984D02*
X5467801Y-11928984D01*
X5467801Y-11928984D02*
X5486849Y-11919460D01*
X5486849Y-11919460D02*
X5496373Y-11900412D01*
X5496373Y-11900412D02*
X5496373Y-11890888D01*
X5496373Y-11890888D02*
X5486849Y-11871841D01*
X5486849Y-11871841D02*
X5467801Y-11862317D01*
X5467801Y-11862317D02*
X5439230Y-11862317D01*
X5439230Y-11862317D02*
X5420182Y-11852793D01*
X5420182Y-11852793D02*
X5410658Y-11833746D01*
X5410658Y-11833746D02*
X5410658Y-11824222D01*
X5410658Y-11824222D02*
X5420182Y-11805174D01*
X5420182Y-11805174D02*
X5439230Y-11795650D01*
X5439230Y-11795650D02*
X5467801Y-11795650D01*
X5467801Y-11795650D02*
X5486849Y-11805174D01*
X5563039Y-12005174D02*
X5572563Y-11995650D01*
X5572563Y-11995650D02*
X5591611Y-11967079D01*
X5591611Y-11967079D02*
X5601134Y-11948031D01*
X5601134Y-11948031D02*
X5610658Y-11919460D01*
X5610658Y-11919460D02*
X5620182Y-11871841D01*
X5620182Y-11871841D02*
X5620182Y-11833746D01*
X5620182Y-11833746D02*
X5610658Y-11786127D01*
X5610658Y-11786127D02*
X5601134Y-11757555D01*
X5601134Y-11757555D02*
X5591611Y-11738508D01*
X5591611Y-11738508D02*
X5572563Y-11709936D01*
X5572563Y-11709936D02*
X5563039Y-11700412D01*
M02*
